%TF.GenerationSoftware,KiCad,Pcbnew,8.0.3*%
%TF.CreationDate,2024-08-05T20:49:33+08:00*%
%TF.ProjectId,PC_Fan_Control,50435f46-616e-45f4-936f-6e74726f6c2e,v1.0*%
%TF.SameCoordinates,Original*%
%TF.FileFunction,Copper,L2,Bot*%
%TF.FilePolarity,Positive*%
%FSLAX46Y46*%
G04 Gerber Fmt 4.6, Leading zero omitted, Abs format (unit mm)*
G04 Created by KiCad (PCBNEW 8.0.3) date 2024-08-05 20:49:33*
%MOMM*%
%LPD*%
G01*
G04 APERTURE LIST*
%TA.AperFunction,ComponentPad*%
%ADD10R,1.700000X1.700000*%
%TD*%
%TA.AperFunction,ComponentPad*%
%ADD11O,1.700000X1.700000*%
%TD*%
%TA.AperFunction,ComponentPad*%
%ADD12C,3.900000*%
%TD*%
%TA.AperFunction,ComponentPad*%
%ADD13C,2.000000*%
%TD*%
%TA.AperFunction,ComponentPad*%
%ADD14R,1.800000X1.800000*%
%TD*%
%TA.AperFunction,ComponentPad*%
%ADD15C,1.800000*%
%TD*%
%TA.AperFunction,ComponentPad*%
%ADD16R,1.800000X4.400000*%
%TD*%
%TA.AperFunction,ComponentPad*%
%ADD17O,1.800000X4.000000*%
%TD*%
%TA.AperFunction,ComponentPad*%
%ADD18O,4.000000X1.800000*%
%TD*%
%TA.AperFunction,ComponentPad*%
%ADD19R,1.300000X1.300000*%
%TD*%
%TA.AperFunction,ComponentPad*%
%ADD20C,1.300000*%
%TD*%
%TA.AperFunction,ComponentPad*%
%ADD21C,1.500000*%
%TD*%
%TA.AperFunction,ComponentPad*%
%ADD22O,1.600000X3.200000*%
%TD*%
%TA.AperFunction,ViaPad*%
%ADD23C,0.609600*%
%TD*%
%TA.AperFunction,ViaPad*%
%ADD24C,0.508000*%
%TD*%
%TA.AperFunction,ViaPad*%
%ADD25C,0.660400*%
%TD*%
%TA.AperFunction,ViaPad*%
%ADD26C,0.558800*%
%TD*%
%TA.AperFunction,ViaPad*%
%ADD27C,0.711200*%
%TD*%
%TA.AperFunction,Conductor*%
%ADD28C,0.203200*%
%TD*%
G04 APERTURE END LIST*
D10*
%TO.P,J6,1,Pin_1*%
%TO.N,+5V*%
X141328500Y-127728400D03*
D11*
%TO.P,J6,2,Pin_2*%
%TO.N,GND*%
X141328500Y-130268400D03*
%TD*%
D10*
%TO.P,JP3,1,A*%
%TO.N,/MCU/PA6*%
X122654500Y-105503400D03*
D11*
%TO.P,JP3,2,B*%
%TO.N,Net-(JP3-B)*%
X122654500Y-102963400D03*
%TD*%
D10*
%TO.P,JP2,1,A*%
%TO.N,Net-(JP2-A)*%
X147551500Y-128490400D03*
D11*
%TO.P,JP2,2,B*%
%TO.N,+3.3V*%
X145011500Y-128490400D03*
%TD*%
D10*
%TO.P,J7,1,Pin_1*%
%TO.N,+3.3V*%
X137772500Y-127728400D03*
D11*
%TO.P,J7,2,Pin_2*%
%TO.N,GND*%
X137772500Y-130268400D03*
%TD*%
D12*
%TO.P,J3,1,GND*%
%TO.N,GND*%
X157535467Y-138890600D03*
%TD*%
%TO.P,J4,1,GND*%
%TO.N,GND*%
X109035467Y-138890600D03*
%TD*%
D13*
%TO.P,SW1,1,1*%
%TO.N,GND*%
X157289500Y-103321400D03*
X157289500Y-109821400D03*
%TO.P,SW1,2,2*%
%TO.N,NRST*%
X152789500Y-103321400D03*
X152789500Y-109821400D03*
%TD*%
D12*
%TO.P,J1,1,GND*%
%TO.N,GND*%
X157535467Y-97890600D03*
%TD*%
D10*
%TO.P,JP1,1,A*%
%TO.N,Net-(JP1-A)*%
X151610500Y-132940400D03*
D11*
%TO.P,JP1,2,B*%
%TO.N,+5V_Raw*%
X151610500Y-130400400D03*
%TD*%
D10*
%TO.P,J9,1,Pin_1*%
%TO.N,/MCU/PA7*%
X126337500Y-100296400D03*
D11*
%TO.P,J9,2,Pin_2*%
%TO.N,/MCU/PA6*%
X128877500Y-100296400D03*
%TO.P,J9,3,Pin_3*%
%TO.N,/MCU/PA5*%
X131417500Y-100296400D03*
%TO.P,J9,4,Pin_4*%
%TO.N,/MCU/PA4*%
X133957500Y-100296400D03*
%TO.P,J9,5,Pin_5*%
%TO.N,/MCU/PB0*%
X136497500Y-100296400D03*
%TO.P,J9,6,Pin_6*%
%TO.N,/MCU/PA11*%
X139037500Y-100296400D03*
%TO.P,J9,7,Pin_7*%
%TO.N,/MCU/PA12*%
X141577500Y-100296400D03*
%TO.P,J9,8,Pin_8*%
%TO.N,/MCU/PB5*%
X144117500Y-100296400D03*
%TD*%
D14*
%TO.P,D5,1,K*%
%TO.N,GND*%
X128877500Y-128876400D03*
D15*
%TO.P,D5,2,A*%
%TO.N,Net-(D5-A)*%
X128877500Y-126336400D03*
%TD*%
D16*
%TO.P,J5,1,POWER*%
%TO.N,Net-(J5-POWER)*%
X121384500Y-128236400D03*
D17*
%TO.P,J5,2,GND_1*%
%TO.N,GND*%
X115584500Y-128236400D03*
D18*
%TO.P,J5,3,GND_2*%
X118384500Y-133036400D03*
%TD*%
D10*
%TO.P,JP6,1,A*%
%TO.N,/MCU/PB0*%
X117955500Y-121378400D03*
D11*
%TO.P,JP6,2,B*%
%TO.N,Net-(JP6-B)*%
X115415500Y-121378400D03*
%TD*%
D10*
%TO.P,JP4,1,A*%
%TO.N,/MCU/PA7*%
X125326500Y-109313400D03*
D11*
%TO.P,JP4,2,B*%
%TO.N,Net-(JP4-B)*%
X122786500Y-109313400D03*
%TD*%
D12*
%TO.P,J2,1,GND*%
%TO.N,GND*%
X109035467Y-97890600D03*
%TD*%
D14*
%TO.P,D4,1,K*%
%TO.N,Net-(D4-K)*%
X133581500Y-125950400D03*
D15*
%TO.P,D4,2,A*%
%TO.N,Net-(D4-A)*%
X133581500Y-128490400D03*
%TD*%
D10*
%TO.P,P1,1,PWM*%
%TO.N,Net-(JP4-B)*%
X114915467Y-97248400D03*
D11*
%TO.P,P1,2,TAC*%
%TO.N,Net-(JP3-B)*%
X117455467Y-97248400D03*
%TO.P,P1,3,+12V*%
%TO.N,+12V*%
X119995467Y-97248400D03*
%TO.P,P1,4,GND*%
%TO.N,GND*%
X122535467Y-97248400D03*
%TD*%
D10*
%TO.P,JP5,1,A*%
%TO.N,/MCU/PB5*%
X111737500Y-121251400D03*
D11*
%TO.P,JP5,2,B*%
%TO.N,Net-(JP5-B)*%
X109197500Y-121251400D03*
%TD*%
D19*
%TO.P,S1,1,NC*%
%TO.N,unconnected-(S1-NC-Pad1)*%
X114987500Y-137634400D03*
D20*
%TO.P,S1,2,COM*%
%TO.N,Net-(S1-COM)*%
X117487500Y-137634400D03*
%TO.P,S1,3,NO*%
%TO.N,+12V*%
X119987500Y-137634400D03*
%TD*%
D10*
%TO.P,J8,1,Pin_1*%
%TO.N,/MCU/PB7*%
X146911500Y-124045400D03*
D11*
%TO.P,J8,2,Pin_2*%
%TO.N,/MCU/PC14*%
X146911500Y-121505400D03*
%TO.P,J8,3,Pin_3*%
%TO.N,/MCU/PC15*%
X146911500Y-118965400D03*
%TO.P,J8,4,Pin_4*%
%TO.N,/MCU/PA0*%
X146911500Y-116425400D03*
%TO.P,J8,5,Pin_5*%
%TO.N,/MCU/PA1*%
X146911500Y-113885400D03*
%TO.P,J8,6,Pin_6*%
%TO.N,/MCU/PA2*%
X146911500Y-111345400D03*
%TO.P,J8,7,Pin_7*%
%TO.N,/MCU/PA3*%
X146911500Y-108805400D03*
%TO.P,J8,8,Pin_8*%
%TO.N,GND*%
X146911500Y-106265400D03*
%TD*%
D10*
%TO.P,P2,1,T_VCC*%
%TO.N,+3.3V*%
X127861500Y-123156400D03*
D11*
%TO.P,P2,2,SWCLK*%
%TO.N,Net-(P2-SWCLK)*%
X127861500Y-120616400D03*
%TO.P,P2,3,SWDIO*%
%TO.N,Net-(P2-SWDIO)*%
X127861500Y-118076400D03*
%TO.P,P2,4,NRST*%
%TO.N,NRST*%
X127861500Y-115536400D03*
%TO.P,P2,5,GND*%
%TO.N,GND*%
X127861500Y-112996400D03*
%TD*%
D21*
%TO.P,U9,A1,A*%
%TO.N,Net-(JP5-B)*%
X111518500Y-105837400D03*
%TO.P,U9,B1,B*%
%TO.N,Net-(JP6-B)*%
X114018500Y-105837400D03*
%TO.P,U9,C1,GROUND*%
%TO.N,GND*%
X116518500Y-105837400D03*
D22*
%TO.P,U9,MH1,MH1*%
X109018500Y-103837400D03*
%TO.P,U9,MH2,MH2*%
X119018500Y-103837400D03*
%TD*%
D23*
%TO.N,+5V*%
X132052500Y-123816800D03*
%TO.N,+3.3V*%
X130909500Y-124680400D03*
X116329900Y-123156400D03*
%TO.N,GND*%
X153525467Y-129579600D03*
X152255467Y-140374600D03*
X152509467Y-96432600D03*
X128699700Y-137685200D03*
X137640500Y-108856200D03*
D24*
X156065467Y-112815600D03*
D25*
X155430467Y-116625600D03*
D23*
X143746467Y-133008600D03*
X139809467Y-96432600D03*
X133078467Y-121451600D03*
X125677100Y-113707600D03*
X124432500Y-139056800D03*
X140205900Y-117009600D03*
X130792467Y-128817600D03*
X123619700Y-119422600D03*
D24*
X154160467Y-112815600D03*
D23*
X117965467Y-118022600D03*
X128699700Y-138726600D03*
X107551467Y-100750600D03*
X114155467Y-140374600D03*
X127635467Y-98465600D03*
D25*
X151620467Y-116625600D03*
D23*
X127236467Y-102020600D03*
X139697900Y-114012400D03*
X130376100Y-116882600D03*
X122451300Y-123867600D03*
X131468300Y-107789400D03*
X107551467Y-123610600D03*
X139936467Y-121832600D03*
D24*
X157970467Y-112815600D03*
D23*
X149969467Y-96432600D03*
X132814500Y-104258800D03*
X140952467Y-105957600D03*
X147175467Y-140374600D03*
X112062700Y-110939000D03*
X113266467Y-123991600D03*
X136192700Y-139666400D03*
X131935467Y-140374600D03*
X133078467Y-122975600D03*
X123060467Y-99415600D03*
X149756300Y-109973800D03*
X152636467Y-134532600D03*
X127871467Y-135294600D03*
X134475467Y-140374600D03*
X150350467Y-135167600D03*
X117965467Y-123864600D03*
X127963100Y-108602200D03*
X155049467Y-96432600D03*
X123594300Y-112437600D03*
X136853100Y-133976800D03*
X135532300Y-116831800D03*
X126601467Y-126150600D03*
X129649467Y-96432600D03*
X141587467Y-115736600D03*
X149715467Y-140374600D03*
X139494700Y-107433800D03*
D25*
X157335467Y-116625600D03*
D23*
X121521467Y-133770600D03*
X116050500Y-108500600D03*
X107551467Y-115990600D03*
X159113467Y-110910600D03*
X122664467Y-136437600D03*
X122664467Y-137961600D03*
X143279300Y-117619200D03*
X135745467Y-126404600D03*
X136761467Y-123483600D03*
X135989500Y-136389800D03*
X144635467Y-140374600D03*
X137269467Y-96432600D03*
X127109467Y-96432600D03*
X144762467Y-131103600D03*
X155938467Y-132627600D03*
X137615100Y-106062200D03*
X149730900Y-115282400D03*
X153906467Y-136056600D03*
X142349467Y-96432600D03*
D25*
X153525467Y-116625600D03*
D23*
X107551467Y-131230600D03*
X124569467Y-96432600D03*
D26*
X157335467Y-114085600D03*
D23*
X134602467Y-122975600D03*
X145143467Y-125896600D03*
X149807100Y-117873200D03*
X140063467Y-119800600D03*
D26*
X155430467Y-114085600D03*
D23*
X112123467Y-109818400D03*
X142123797Y-136275303D03*
X124315467Y-140374600D03*
X157970467Y-115355600D03*
X159113467Y-133770600D03*
X156065467Y-115355600D03*
X138031467Y-102020600D03*
X111869467Y-96432600D03*
X120546300Y-123842200D03*
X154795467Y-140374600D03*
X119235467Y-140374600D03*
X159113467Y-100750600D03*
X159113467Y-108370600D03*
X143736500Y-135297600D03*
X117965467Y-125388600D03*
X135618467Y-101893600D03*
X114409467Y-122975600D03*
X119733500Y-106468600D03*
X132204900Y-137634400D03*
D26*
X151620467Y-114085600D03*
D23*
X141333467Y-123356600D03*
X154160467Y-115355600D03*
X159113467Y-103290600D03*
X123416500Y-116908000D03*
X129715700Y-105478000D03*
D27*
X152255467Y-117895600D03*
D23*
X148994300Y-137888400D03*
X116695467Y-140374600D03*
X127658300Y-105173200D03*
X127251900Y-132198800D03*
X149588467Y-125642600D03*
X149705500Y-104716000D03*
X140444467Y-102020600D03*
X149807100Y-107433800D03*
X122410467Y-107354600D03*
X107551467Y-110910600D03*
X141907700Y-138396400D03*
X118854467Y-119419600D03*
X107551467Y-108370600D03*
X145057300Y-135272200D03*
X144889467Y-133008600D03*
X121775467Y-140374600D03*
X107551467Y-133770600D03*
X159113467Y-126150600D03*
X140307500Y-104157200D03*
X128039300Y-132960800D03*
X107551467Y-118530600D03*
X143365467Y-131230600D03*
X116126700Y-110837400D03*
X149832500Y-112717000D03*
X133078467Y-102020600D03*
X107551467Y-103290600D03*
X137792900Y-116882600D03*
X129395467Y-140374600D03*
X159113467Y-105830600D03*
X132992300Y-106316200D03*
X121902467Y-101258600D03*
X136507467Y-125134600D03*
X132484300Y-116857200D03*
X135618467Y-125388600D03*
X159113467Y-123610600D03*
X132189467Y-96432600D03*
X141079467Y-110656600D03*
X130934900Y-121175200D03*
X109202467Y-108370600D03*
X143238467Y-101893600D03*
X159113467Y-113450600D03*
X142095467Y-140374600D03*
X149832500Y-120210000D03*
D27*
X157970467Y-117895600D03*
D23*
X159113467Y-121070600D03*
X150731467Y-124626600D03*
X143228500Y-107738600D03*
X154235467Y-125190600D03*
X134211500Y-107459200D03*
X141333467Y-118530600D03*
X159113467Y-131230600D03*
X129893500Y-109161000D03*
X159113467Y-115990600D03*
X143279300Y-120210000D03*
X125372300Y-107103600D03*
X107551467Y-105830600D03*
X142720500Y-104182600D03*
X131554467Y-127293600D03*
X144889467Y-96432600D03*
X124696467Y-137961600D03*
X148994300Y-136059600D03*
X137015467Y-140374600D03*
X130553900Y-114241000D03*
X139555467Y-140374600D03*
X154633100Y-136847000D03*
X107551467Y-126150600D03*
X123426467Y-121705600D03*
X111615467Y-140374600D03*
X152255467Y-115355600D03*
D27*
X156065467Y-117895600D03*
D23*
X139809467Y-131611600D03*
X150111900Y-99204200D03*
X135491467Y-115228600D03*
X134475467Y-115609600D03*
X134729467Y-96432600D03*
X142603467Y-133008600D03*
D27*
X154160467Y-117895600D03*
D23*
X130833300Y-118863800D03*
X135745467Y-127547600D03*
X147429467Y-96432600D03*
X159113467Y-118530600D03*
X140866300Y-135069000D03*
X125331467Y-105322600D03*
X159113467Y-136310600D03*
X138453300Y-120489400D03*
X107551467Y-128690600D03*
X137767500Y-103903200D03*
X135618467Y-128944600D03*
X120470100Y-111548600D03*
X135633900Y-134053000D03*
X136903900Y-135729400D03*
X124696467Y-136437600D03*
X139342300Y-119016200D03*
X107551467Y-113450600D03*
X159113467Y-128690600D03*
X141044100Y-108043400D03*
X135227500Y-104284200D03*
X107551467Y-121070600D03*
D26*
X153525467Y-114085600D03*
D23*
X126855467Y-140374600D03*
D24*
X152255467Y-112815600D03*
D23*
X143152300Y-109872200D03*
X138554900Y-108805400D03*
X141907700Y-139488600D03*
X130157467Y-102147600D03*
%TO.N,NRST*%
X145908200Y-104093700D03*
X129512500Y-114418800D03*
X140867047Y-114087853D03*
%TO.N,/MCU/PB5*%
X131671500Y-119219400D03*
%TO.N,/MCU/PB0*%
X123416500Y-113885400D03*
%TO.N,Net-(U1-VBST)*%
X136878500Y-133062400D03*
X136243500Y-138518400D03*
%TO.N,Net-(JP3-B)*%
X121359100Y-111980400D03*
X119733500Y-100931400D03*
%TO.N,Net-(JP4-B)*%
X116385467Y-98915600D03*
X122146500Y-113123400D03*
%TO.N,Net-(D4-K)*%
X153261500Y-125696400D03*
X135862500Y-122648400D03*
%TO.N,Net-(U3-IN)*%
X135481500Y-131284400D03*
X154658500Y-135221400D03*
%TO.N,Net-(U1-VFB)*%
X138402500Y-135538900D03*
X143888900Y-134332400D03*
%TO.N,Net-(U1-EN)*%
X134465500Y-135221400D03*
X136243500Y-137568400D03*
%TD*%
D28*
%TO.N,+5V*%
X136170500Y-123816800D02*
X140082100Y-127728400D01*
X132052500Y-123816800D02*
X136170500Y-123816800D01*
X140082100Y-127728400D02*
X141328500Y-127728400D01*
%TO.N,+3.3V*%
X133147655Y-129760400D02*
X135740500Y-129760400D01*
X130909500Y-127522245D02*
X133147655Y-129760400D01*
X135740500Y-129760400D02*
X137772500Y-127728400D01*
X116329900Y-123156400D02*
X127861500Y-123156400D01*
X130909500Y-124680400D02*
X130909500Y-127522245D01*
%TO.N,NRST*%
X142364900Y-112412200D02*
X142364900Y-107637000D01*
X140867047Y-114087853D02*
X140867047Y-113910053D01*
X129385500Y-110837400D02*
X133474900Y-106748000D01*
X143253900Y-106748000D02*
X145908200Y-104093700D01*
X140867047Y-113910053D02*
X142364900Y-112412200D01*
X142364900Y-107637000D02*
X145908200Y-104093700D01*
X129385500Y-114291800D02*
X129385500Y-110837400D01*
X133474900Y-106748000D02*
X143253900Y-106748000D01*
X129512500Y-114418800D02*
X129385500Y-114291800D01*
%TO.N,/MCU/PB5*%
X131671500Y-119219400D02*
X131671500Y-122318200D01*
X111737500Y-121251400D02*
X115039500Y-124553400D01*
X131671500Y-122318200D02*
X129442783Y-124546916D01*
X115039500Y-124553400D02*
X129436299Y-124553400D01*
X129436299Y-124553400D02*
X129442783Y-124546916D01*
X129442783Y-124546916D02*
X129436300Y-124553400D01*
%TO.N,/MCU/PB0*%
X117955500Y-119346400D02*
X117955500Y-121378400D01*
X123416500Y-113885400D02*
X117955500Y-119346400D01*
%TO.N,Net-(U1-VBST)*%
X136878500Y-133062400D02*
X134871900Y-133062400D01*
X133195500Y-134738800D02*
X133195500Y-136669200D01*
X134871900Y-133062400D02*
X133195500Y-134738800D01*
X135044700Y-138518400D02*
X136243500Y-138518400D01*
X133195500Y-136669200D02*
X135044700Y-138518400D01*
%TO.N,Net-(JP3-B)*%
X120876500Y-101185400D02*
X122654500Y-102963400D01*
X121359100Y-111980400D02*
X121359100Y-111269200D01*
X119733500Y-100931400D02*
X119987500Y-101185400D01*
X120622500Y-104995400D02*
X122654500Y-102963400D01*
X120622500Y-110532600D02*
X120622500Y-104995400D01*
X121359100Y-111269200D02*
X120622500Y-110532600D01*
X119987500Y-101185400D02*
X120876500Y-101185400D01*
%TO.N,Net-(JP4-B)*%
X124356300Y-107743600D02*
X122786500Y-109313400D01*
X121028900Y-98899400D02*
X124356300Y-102226800D01*
X122146500Y-113123400D02*
X122786500Y-112483400D01*
X124356300Y-102226800D02*
X124356300Y-107743600D01*
X122786500Y-112483400D02*
X122786500Y-109313400D01*
X116385467Y-98915600D02*
X116401667Y-98899400D01*
X116401667Y-98899400D02*
X121028900Y-98899400D01*
%TO.N,Net-(D4-K)*%
X146433166Y-122660200D02*
X147389834Y-122660200D01*
X135862500Y-122648400D02*
X146421366Y-122648400D01*
X150823100Y-125696400D02*
X153261500Y-125696400D01*
X147389834Y-122660200D02*
X147401634Y-122648400D01*
X146421366Y-122648400D02*
X146433166Y-122660200D01*
X147401634Y-122648400D02*
X147775100Y-122648400D01*
X147775100Y-122648400D02*
X150823100Y-125696400D01*
%TO.N,Net-(U3-IN)*%
X148660900Y-132300400D02*
X151581900Y-135221400D01*
X151581900Y-135221400D02*
X154658500Y-135221400D01*
X135481500Y-131284400D02*
X136497500Y-132300400D01*
X136497500Y-132300400D02*
X148660900Y-132300400D01*
%TO.N,Net-(U1-VFB)*%
X139609000Y-134332400D02*
X138402500Y-135538900D01*
X143888900Y-134332400D02*
X139609000Y-134332400D01*
%TO.N,Net-(U1-EN)*%
X135542500Y-137568400D02*
X134465500Y-136491400D01*
X134465500Y-136491400D02*
X134465500Y-135221400D01*
X136243500Y-137568400D02*
X135542500Y-137568400D01*
%TD*%
%TA.AperFunction,Conductor*%
%TO.N,GND*%
G36*
X121782576Y-95918785D02*
G01*
X121828331Y-95971589D01*
X121838275Y-96040747D01*
X121809250Y-96104303D01*
X121786660Y-96124675D01*
X121664393Y-96210286D01*
X121664387Y-96210291D01*
X121497358Y-96377320D01*
X121497353Y-96377326D01*
X121361867Y-96570820D01*
X121361866Y-96570822D01*
X121262037Y-96784907D01*
X121262034Y-96784914D01*
X121230876Y-96901198D01*
X121194511Y-96960858D01*
X121131664Y-96991387D01*
X121062288Y-96983092D01*
X121008410Y-96938607D01*
X120992442Y-96905103D01*
X120973669Y-96843216D01*
X120942506Y-96784914D01*
X120875828Y-96660168D01*
X120875824Y-96660161D01*
X120744150Y-96499716D01*
X120583705Y-96368042D01*
X120583698Y-96368038D01*
X120400658Y-96270201D01*
X120400655Y-96270200D01*
X120400654Y-96270199D01*
X120400651Y-96270198D01*
X120202028Y-96209947D01*
X120202026Y-96209946D01*
X120202028Y-96209946D01*
X119995467Y-96189602D01*
X119788907Y-96209946D01*
X119671632Y-96245521D01*
X119590283Y-96270198D01*
X119590280Y-96270199D01*
X119590278Y-96270200D01*
X119590275Y-96270201D01*
X119407235Y-96368038D01*
X119407228Y-96368042D01*
X119246783Y-96499716D01*
X119115109Y-96660161D01*
X119115105Y-96660168D01*
X119017268Y-96843208D01*
X119017267Y-96843211D01*
X119017266Y-96843213D01*
X119017265Y-96843216D01*
X119001605Y-96894841D01*
X118957013Y-97041840D01*
X118936669Y-97248400D01*
X118957013Y-97454959D01*
X118957014Y-97454961D01*
X119017265Y-97653584D01*
X119017266Y-97653586D01*
X119017267Y-97653588D01*
X119017268Y-97653591D01*
X119115105Y-97836631D01*
X119115109Y-97836638D01*
X119246783Y-97997083D01*
X119407228Y-98128757D01*
X119407235Y-98128761D01*
X119590275Y-98226598D01*
X119590276Y-98226598D01*
X119590283Y-98226602D01*
X119788906Y-98286853D01*
X119788905Y-98286853D01*
X119807425Y-98288677D01*
X119995467Y-98307198D01*
X120202028Y-98286853D01*
X120400651Y-98226602D01*
X120583704Y-98128758D01*
X120744150Y-97997083D01*
X120875825Y-97836637D01*
X120973669Y-97653584D01*
X120992441Y-97591698D01*
X121030737Y-97533262D01*
X121094549Y-97504805D01*
X121163616Y-97515364D01*
X121216010Y-97561588D01*
X121230876Y-97595601D01*
X121262034Y-97711886D01*
X121262037Y-97711892D01*
X121361866Y-97925978D01*
X121497361Y-98119482D01*
X121664384Y-98286505D01*
X121857888Y-98422000D01*
X122071974Y-98521829D01*
X122071983Y-98521833D01*
X122285467Y-98579034D01*
X122285467Y-97681412D01*
X122342474Y-97714325D01*
X122469641Y-97748400D01*
X122601293Y-97748400D01*
X122728460Y-97714325D01*
X122785467Y-97681412D01*
X122785467Y-98579033D01*
X122998950Y-98521833D01*
X122998959Y-98521829D01*
X123213045Y-98422000D01*
X123406549Y-98286505D01*
X123573572Y-98119482D01*
X123709067Y-97925978D01*
X123808896Y-97711892D01*
X123808899Y-97711886D01*
X123866103Y-97498400D01*
X122968479Y-97498400D01*
X123001392Y-97441393D01*
X123035467Y-97314226D01*
X123035467Y-97182574D01*
X123001392Y-97055407D01*
X122968479Y-96998400D01*
X123866103Y-96998400D01*
X123866102Y-96998399D01*
X123808899Y-96784913D01*
X123808896Y-96784907D01*
X123709067Y-96570822D01*
X123709066Y-96570820D01*
X123573580Y-96377326D01*
X123573575Y-96377320D01*
X123406545Y-96210290D01*
X123284274Y-96124674D01*
X123240649Y-96070097D01*
X123233457Y-96000599D01*
X123264979Y-95938244D01*
X123325210Y-95902831D01*
X123355398Y-95899100D01*
X155859074Y-95899100D01*
X155926113Y-95918785D01*
X155971868Y-95971589D01*
X155972267Y-95973847D01*
X156916933Y-96918513D01*
X156786292Y-97013429D01*
X156658296Y-97141425D01*
X156563380Y-97272065D01*
X155635266Y-96343951D01*
X155549452Y-96447683D01*
X155384272Y-96707967D01*
X155384269Y-96707973D01*
X155253013Y-96986905D01*
X155253011Y-96986910D01*
X155157747Y-97280100D01*
X155099979Y-97582929D01*
X155099978Y-97582936D01*
X155080623Y-97890594D01*
X155080623Y-97890605D01*
X155099978Y-98198263D01*
X155099979Y-98198270D01*
X155157747Y-98501099D01*
X155253011Y-98794289D01*
X155253013Y-98794294D01*
X155384269Y-99073226D01*
X155384272Y-99073232D01*
X155549454Y-99333519D01*
X155549457Y-99333523D01*
X155635266Y-99437247D01*
X156563380Y-98509133D01*
X156658296Y-98639775D01*
X156786292Y-98767771D01*
X156916932Y-98862686D01*
X155986234Y-99793383D01*
X155986235Y-99793385D01*
X156220084Y-99963285D01*
X156220102Y-99963297D01*
X156490245Y-100111809D01*
X156490253Y-100111813D01*
X156776873Y-100225293D01*
X157075475Y-100301961D01*
X157075484Y-100301963D01*
X157381314Y-100340599D01*
X157381328Y-100340600D01*
X157689606Y-100340600D01*
X157689619Y-100340599D01*
X157995449Y-100301963D01*
X157995458Y-100301961D01*
X158294060Y-100225293D01*
X158580680Y-100111813D01*
X158580688Y-100111809D01*
X158850831Y-99963297D01*
X158850849Y-99963285D01*
X159084697Y-99793385D01*
X159084698Y-99793383D01*
X158154000Y-98862686D01*
X158284642Y-98767771D01*
X158412638Y-98639775D01*
X158507553Y-98509134D01*
X159450445Y-99452026D01*
X159465017Y-99455569D01*
X159513209Y-99506158D01*
X159526967Y-99562927D01*
X159526967Y-137218271D01*
X159507282Y-137285310D01*
X159454478Y-137331065D01*
X159447135Y-137332482D01*
X158507553Y-138272065D01*
X158412638Y-138141425D01*
X158284642Y-138013429D01*
X158154000Y-137918513D01*
X159084698Y-136987815D01*
X159084697Y-136987814D01*
X158850849Y-136817914D01*
X158850831Y-136817902D01*
X158580688Y-136669390D01*
X158580680Y-136669386D01*
X158294060Y-136555906D01*
X157995458Y-136479238D01*
X157995449Y-136479236D01*
X157689619Y-136440600D01*
X157381314Y-136440600D01*
X157075484Y-136479236D01*
X157075475Y-136479238D01*
X156776873Y-136555906D01*
X156490253Y-136669386D01*
X156490245Y-136669390D01*
X156220099Y-136817904D01*
X156220094Y-136817907D01*
X155986235Y-136987814D01*
X155986235Y-136987815D01*
X156916933Y-137918513D01*
X156786292Y-138013429D01*
X156658296Y-138141425D01*
X156563380Y-138272065D01*
X155635266Y-137343951D01*
X155549452Y-137447683D01*
X155384272Y-137707967D01*
X155384269Y-137707973D01*
X155253013Y-137986905D01*
X155253011Y-137986910D01*
X155157747Y-138280100D01*
X155099979Y-138582929D01*
X155099978Y-138582936D01*
X155080623Y-138890594D01*
X155080623Y-138890605D01*
X155099978Y-139198263D01*
X155099979Y-139198270D01*
X155157747Y-139501099D01*
X155253011Y-139794289D01*
X155253013Y-139794294D01*
X155384269Y-140073226D01*
X155384272Y-140073232D01*
X155549454Y-140333519D01*
X155549457Y-140333523D01*
X155635266Y-140437247D01*
X156563380Y-139509133D01*
X156658296Y-139639775D01*
X156786292Y-139767771D01*
X156916932Y-139862686D01*
X155969781Y-140809836D01*
X155968331Y-140816744D01*
X155919282Y-140866503D01*
X155859075Y-140882100D01*
X110711858Y-140882100D01*
X110644819Y-140862415D01*
X110599064Y-140809611D01*
X110598664Y-140807349D01*
X109654000Y-139862686D01*
X109784642Y-139767771D01*
X109912638Y-139639775D01*
X110007553Y-139509133D01*
X110935666Y-140437247D01*
X111021481Y-140333516D01*
X111186661Y-140073232D01*
X111186664Y-140073226D01*
X111317920Y-139794294D01*
X111317922Y-139794289D01*
X111413186Y-139501099D01*
X111470954Y-139198270D01*
X111470955Y-139198263D01*
X111490311Y-138890605D01*
X111490311Y-138890594D01*
X111470955Y-138582936D01*
X111470954Y-138582929D01*
X111417834Y-138304466D01*
X114133799Y-138304466D01*
X114145617Y-138363876D01*
X114145618Y-138363879D01*
X114160557Y-138386238D01*
X114190640Y-138431260D01*
X114258020Y-138476281D01*
X114258023Y-138476282D01*
X114317433Y-138488100D01*
X114317436Y-138488100D01*
X115657566Y-138488100D01*
X115716976Y-138476282D01*
X115716977Y-138476281D01*
X115716980Y-138476281D01*
X115784360Y-138431260D01*
X115829381Y-138363880D01*
X115841200Y-138304464D01*
X115841200Y-137634400D01*
X116629098Y-137634400D01*
X116647856Y-137812872D01*
X116647857Y-137812875D01*
X116703308Y-137983538D01*
X116703311Y-137983544D01*
X116793038Y-138138956D01*
X116821264Y-138170304D01*
X116913111Y-138272312D01*
X116913114Y-138272314D01*
X116913117Y-138272317D01*
X117039137Y-138363876D01*
X117058299Y-138377798D01*
X117222234Y-138450787D01*
X117222239Y-138450789D01*
X117397773Y-138488100D01*
X117577227Y-138488100D01*
X117752761Y-138450789D01*
X117916701Y-138377798D01*
X118061883Y-138272317D01*
X118181962Y-138138956D01*
X118271689Y-137983544D01*
X118327144Y-137812872D01*
X118345902Y-137634400D01*
X119129098Y-137634400D01*
X119147856Y-137812872D01*
X119147857Y-137812875D01*
X119203308Y-137983538D01*
X119203311Y-137983544D01*
X119293038Y-138138956D01*
X119321264Y-138170304D01*
X119413111Y-138272312D01*
X119413114Y-138272314D01*
X119413117Y-138272317D01*
X119539137Y-138363876D01*
X119558299Y-138377798D01*
X119722234Y-138450787D01*
X119722239Y-138450789D01*
X119897773Y-138488100D01*
X120077227Y-138488100D01*
X120252761Y-138450789D01*
X120416701Y-138377798D01*
X120561883Y-138272317D01*
X120681962Y-138138956D01*
X120771689Y-137983544D01*
X120827144Y-137812872D01*
X120845902Y-137634400D01*
X120827144Y-137455928D01*
X120784806Y-137325626D01*
X120771691Y-137285261D01*
X120771688Y-137285255D01*
X120681962Y-137129844D01*
X120618984Y-137059900D01*
X120561888Y-136996487D01*
X120561885Y-136996485D01*
X120561884Y-136996484D01*
X120561883Y-136996483D01*
X120435862Y-136904923D01*
X120416700Y-136891001D01*
X120252765Y-136818012D01*
X120252760Y-136818010D01*
X120077227Y-136780700D01*
X119897773Y-136780700D01*
X119722239Y-136818010D01*
X119722234Y-136818012D01*
X119558299Y-136891001D01*
X119413114Y-136996485D01*
X119413111Y-136996487D01*
X119293037Y-137129845D01*
X119203311Y-137285255D01*
X119203308Y-137285261D01*
X119150535Y-137447683D01*
X119147856Y-137455928D01*
X119129098Y-137634400D01*
X118345902Y-137634400D01*
X118327144Y-137455928D01*
X118284806Y-137325626D01*
X118271691Y-137285261D01*
X118271688Y-137285255D01*
X118181962Y-137129844D01*
X118118984Y-137059900D01*
X118061888Y-136996487D01*
X118061885Y-136996485D01*
X118061884Y-136996484D01*
X118061883Y-136996483D01*
X117935862Y-136904923D01*
X117916700Y-136891001D01*
X117752765Y-136818012D01*
X117752760Y-136818010D01*
X117577227Y-136780700D01*
X117397773Y-136780700D01*
X117222239Y-136818010D01*
X117222234Y-136818012D01*
X117058299Y-136891001D01*
X116913114Y-136996485D01*
X116913111Y-136996487D01*
X116793037Y-137129845D01*
X116703311Y-137285255D01*
X116703308Y-137285261D01*
X116650535Y-137447683D01*
X116647856Y-137455928D01*
X116629098Y-137634400D01*
X115841200Y-137634400D01*
X115841200Y-136964336D01*
X115841200Y-136964333D01*
X115829382Y-136904923D01*
X115829381Y-136904920D01*
X115820081Y-136891001D01*
X115784360Y-136837540D01*
X115716980Y-136792519D01*
X115716979Y-136792518D01*
X115716976Y-136792517D01*
X115657566Y-136780700D01*
X115657564Y-136780700D01*
X114317436Y-136780700D01*
X114317434Y-136780700D01*
X114258023Y-136792517D01*
X114258020Y-136792518D01*
X114190640Y-136837540D01*
X114145618Y-136904920D01*
X114145617Y-136904923D01*
X114133800Y-136964333D01*
X114133800Y-136964336D01*
X114133800Y-138304464D01*
X114133800Y-138304466D01*
X114133799Y-138304466D01*
X111417834Y-138304466D01*
X111413186Y-138280100D01*
X111317922Y-137986910D01*
X111317920Y-137986905D01*
X111186664Y-137707973D01*
X111186661Y-137707967D01*
X111021484Y-137447688D01*
X110935665Y-137343951D01*
X110007552Y-138272064D01*
X109912638Y-138141425D01*
X109784642Y-138013429D01*
X109654000Y-137918513D01*
X110584698Y-136987815D01*
X110584697Y-136987814D01*
X110350849Y-136817914D01*
X110350831Y-136817902D01*
X110080688Y-136669390D01*
X110080680Y-136669386D01*
X109794060Y-136555906D01*
X109495458Y-136479238D01*
X109495449Y-136479236D01*
X109189619Y-136440600D01*
X108881314Y-136440600D01*
X108575484Y-136479236D01*
X108575475Y-136479238D01*
X108276873Y-136555906D01*
X107990253Y-136669386D01*
X107990245Y-136669390D01*
X107720099Y-136817904D01*
X107720094Y-136817907D01*
X107486235Y-136987814D01*
X107486235Y-136987815D01*
X108416933Y-137918513D01*
X108286292Y-138013429D01*
X108158296Y-138141425D01*
X108063380Y-138272065D01*
X107120484Y-137329169D01*
X107105911Y-137325626D01*
X107057722Y-137275033D01*
X107043967Y-137218271D01*
X107043967Y-134698607D01*
X132890200Y-134698607D01*
X132890200Y-134698609D01*
X132890200Y-136709394D01*
X132908017Y-136775891D01*
X132908018Y-136775891D01*
X132908019Y-136775894D01*
X132911006Y-136787041D01*
X132951200Y-136856659D01*
X132951202Y-136856661D01*
X134857239Y-138762699D01*
X134857241Y-138762701D01*
X134915166Y-138796143D01*
X134915165Y-138796143D01*
X134915168Y-138796144D01*
X134926859Y-138802894D01*
X135004507Y-138823700D01*
X135778573Y-138823700D01*
X135845612Y-138843385D01*
X135872285Y-138866496D01*
X135907079Y-138906650D01*
X135907080Y-138906650D01*
X135907080Y-138906651D01*
X135986273Y-138957545D01*
X136030089Y-138985704D01*
X136141227Y-139018337D01*
X136170388Y-139026900D01*
X136170389Y-139026900D01*
X136316612Y-139026900D01*
X136340754Y-139019810D01*
X136456911Y-138985704D01*
X136579921Y-138906650D01*
X136675676Y-138796143D01*
X136736419Y-138663134D01*
X136757229Y-138518400D01*
X136736419Y-138373666D01*
X136731949Y-138363879D01*
X136706047Y-138307161D01*
X136675676Y-138240657D01*
X136675674Y-138240655D01*
X136675673Y-138240652D01*
X136587551Y-138138956D01*
X136579921Y-138130150D01*
X136579920Y-138130149D01*
X136575114Y-138124603D01*
X136546088Y-138061048D01*
X136556031Y-137991889D01*
X136575114Y-137962197D01*
X136675673Y-137846147D01*
X136675675Y-137846144D01*
X136675676Y-137846143D01*
X136736419Y-137713134D01*
X136757229Y-137568400D01*
X136736419Y-137423666D01*
X136675676Y-137290657D01*
X136579921Y-137180150D01*
X136579918Y-137180148D01*
X136579919Y-137180148D01*
X136456913Y-137101097D01*
X136456912Y-137101096D01*
X136456911Y-137101096D01*
X136374932Y-137077024D01*
X136316612Y-137059900D01*
X136316611Y-137059900D01*
X136170389Y-137059900D01*
X136170388Y-137059900D01*
X136030086Y-137101097D01*
X135907080Y-137180148D01*
X135907080Y-137180149D01*
X135872285Y-137220304D01*
X135813507Y-137258078D01*
X135778573Y-137263100D01*
X135720321Y-137263100D01*
X135653282Y-137243415D01*
X135632640Y-137226781D01*
X134807119Y-136401260D01*
X134773634Y-136339937D01*
X134770800Y-136313579D01*
X134770800Y-135691814D01*
X134790485Y-135624775D01*
X134801088Y-135610611D01*
X134863227Y-135538900D01*
X137888771Y-135538900D01*
X137909580Y-135683634D01*
X137970323Y-135816641D01*
X137970324Y-135816643D01*
X138066079Y-135927150D01*
X138066081Y-135927151D01*
X138066080Y-135927151D01*
X138168455Y-135992943D01*
X138189089Y-136006204D01*
X138300227Y-136038837D01*
X138329388Y-136047400D01*
X138329389Y-136047400D01*
X138475612Y-136047400D01*
X138499754Y-136040310D01*
X138615911Y-136006204D01*
X138738921Y-135927150D01*
X138834676Y-135816643D01*
X138895419Y-135683634D01*
X138916229Y-135538900D01*
X138914758Y-135528670D01*
X138924701Y-135459513D01*
X138949812Y-135423345D01*
X139699141Y-134674019D01*
X139760464Y-134640534D01*
X139786822Y-134637700D01*
X143423973Y-134637700D01*
X143491012Y-134657385D01*
X143517685Y-134680496D01*
X143552479Y-134720650D01*
X143552480Y-134720650D01*
X143552480Y-134720651D01*
X143604522Y-134754096D01*
X143675489Y-134799704D01*
X143786627Y-134832337D01*
X143815788Y-134840900D01*
X143815789Y-134840900D01*
X143962012Y-134840900D01*
X143988412Y-134833148D01*
X144102311Y-134799704D01*
X144225321Y-134720650D01*
X144321076Y-134610143D01*
X144381819Y-134477134D01*
X144402629Y-134332400D01*
X144381819Y-134187666D01*
X144321076Y-134054657D01*
X144225321Y-133944150D01*
X144225318Y-133944148D01*
X144225319Y-133944148D01*
X144102313Y-133865097D01*
X144102312Y-133865096D01*
X144102311Y-133865096D01*
X144020332Y-133841024D01*
X143962012Y-133823900D01*
X143962011Y-133823900D01*
X143815789Y-133823900D01*
X143815788Y-133823900D01*
X143675486Y-133865097D01*
X143552480Y-133944148D01*
X143552480Y-133944149D01*
X143517685Y-133984304D01*
X143458907Y-134022078D01*
X143423973Y-134027100D01*
X139568807Y-134027100D01*
X139510571Y-134042704D01*
X139491158Y-134047906D01*
X139421541Y-134088098D01*
X138515558Y-134994081D01*
X138454235Y-135027566D01*
X138427877Y-135030400D01*
X138329388Y-135030400D01*
X138189086Y-135071597D01*
X138066080Y-135150648D01*
X137970324Y-135261157D01*
X137970323Y-135261158D01*
X137909580Y-135394165D01*
X137888771Y-135538900D01*
X134863227Y-135538900D01*
X134897674Y-135499146D01*
X134897674Y-135499144D01*
X134897676Y-135499143D01*
X134958419Y-135366134D01*
X134979229Y-135221400D01*
X134958419Y-135076666D01*
X134897676Y-134943657D01*
X134801921Y-134833150D01*
X134801918Y-134833148D01*
X134801919Y-134833148D01*
X134678913Y-134754097D01*
X134678912Y-134754096D01*
X134678911Y-134754096D01*
X134596932Y-134730024D01*
X134538612Y-134712900D01*
X134538611Y-134712900D01*
X134392389Y-134712900D01*
X134392388Y-134712900D01*
X134252086Y-134754097D01*
X134129080Y-134833148D01*
X134033324Y-134943657D01*
X134033323Y-134943658D01*
X133972580Y-135076665D01*
X133951771Y-135221400D01*
X133972580Y-135366134D01*
X134033323Y-135499141D01*
X134033326Y-135499146D01*
X134129912Y-135610611D01*
X134158938Y-135674166D01*
X134160200Y-135691814D01*
X134160200Y-136531593D01*
X134181006Y-136609241D01*
X134221200Y-136678859D01*
X135355041Y-137812700D01*
X135412966Y-137846143D01*
X135424659Y-137852894D01*
X135502307Y-137873700D01*
X135778573Y-137873700D01*
X135845612Y-137893385D01*
X135872285Y-137916496D01*
X135911885Y-137962196D01*
X135940911Y-138025752D01*
X135930968Y-138094910D01*
X135911885Y-138124604D01*
X135872285Y-138170304D01*
X135813507Y-138208077D01*
X135778573Y-138213100D01*
X135222522Y-138213100D01*
X135155483Y-138193415D01*
X135134841Y-138176781D01*
X133537119Y-136579059D01*
X133503634Y-136517736D01*
X133500800Y-136491378D01*
X133500800Y-134916621D01*
X133520485Y-134849582D01*
X133537119Y-134828940D01*
X134962041Y-133404019D01*
X135023364Y-133370534D01*
X135049722Y-133367700D01*
X136413573Y-133367700D01*
X136480612Y-133387385D01*
X136507285Y-133410496D01*
X136542079Y-133450650D01*
X136542080Y-133450650D01*
X136542080Y-133450651D01*
X136644455Y-133516443D01*
X136665089Y-133529704D01*
X136776227Y-133562337D01*
X136805388Y-133570900D01*
X136805389Y-133570900D01*
X136951612Y-133570900D01*
X136975754Y-133563810D01*
X137091911Y-133529704D01*
X137214921Y-133450650D01*
X137310676Y-133340143D01*
X137371419Y-133207134D01*
X137392229Y-133062400D01*
X137371419Y-132917666D01*
X137325949Y-132818100D01*
X137309103Y-132781211D01*
X137299159Y-132712053D01*
X137328184Y-132648497D01*
X137386962Y-132610723D01*
X137421897Y-132605700D01*
X148483079Y-132605700D01*
X148550118Y-132625385D01*
X148570759Y-132642018D01*
X149983397Y-134054657D01*
X151394439Y-135465699D01*
X151394441Y-135465701D01*
X151452366Y-135499143D01*
X151452365Y-135499143D01*
X151452368Y-135499144D01*
X151464059Y-135505894D01*
X151541707Y-135526700D01*
X154193573Y-135526700D01*
X154260612Y-135546385D01*
X154287285Y-135569496D01*
X154322079Y-135609650D01*
X154322080Y-135609650D01*
X154322080Y-135609651D01*
X154424455Y-135675443D01*
X154445089Y-135688704D01*
X154556227Y-135721337D01*
X154585388Y-135729900D01*
X154585389Y-135729900D01*
X154731612Y-135729900D01*
X154755754Y-135722810D01*
X154871911Y-135688704D01*
X154994921Y-135609650D01*
X155090676Y-135499143D01*
X155151419Y-135366134D01*
X155172229Y-135221400D01*
X155151419Y-135076666D01*
X155090676Y-134943657D01*
X154994921Y-134833150D01*
X154994918Y-134833148D01*
X154994919Y-134833148D01*
X154871913Y-134754097D01*
X154871912Y-134754096D01*
X154871911Y-134754096D01*
X154789932Y-134730024D01*
X154731612Y-134712900D01*
X154731611Y-134712900D01*
X154585389Y-134712900D01*
X154585388Y-134712900D01*
X154445086Y-134754097D01*
X154322080Y-134833148D01*
X154322080Y-134833149D01*
X154287285Y-134873304D01*
X154228507Y-134911078D01*
X154193573Y-134916100D01*
X151759722Y-134916100D01*
X151692683Y-134896415D01*
X151672041Y-134879781D01*
X150998041Y-134205781D01*
X150964556Y-134144458D01*
X150969540Y-134074766D01*
X151011412Y-134018833D01*
X151076876Y-133994416D01*
X151085722Y-133994100D01*
X152480566Y-133994100D01*
X152539976Y-133982282D01*
X152539977Y-133982281D01*
X152539980Y-133982281D01*
X152607360Y-133937260D01*
X152652381Y-133869880D01*
X152652382Y-133869876D01*
X152664200Y-133810466D01*
X152664200Y-132070333D01*
X152652382Y-132010923D01*
X152652381Y-132010920D01*
X152607360Y-131943540D01*
X152539980Y-131898519D01*
X152539979Y-131898518D01*
X152539976Y-131898517D01*
X152480566Y-131886700D01*
X152480564Y-131886700D01*
X150740436Y-131886700D01*
X150740434Y-131886700D01*
X150681023Y-131898517D01*
X150681020Y-131898518D01*
X150613640Y-131943540D01*
X150568618Y-132010920D01*
X150568617Y-132010923D01*
X150556800Y-132070333D01*
X150556800Y-133465178D01*
X150537115Y-133532217D01*
X150484311Y-133577972D01*
X150415153Y-133587916D01*
X150351597Y-133558891D01*
X150345119Y-133552859D01*
X148848361Y-132056102D01*
X148848359Y-132056100D01*
X148778741Y-132015906D01*
X148701093Y-131995100D01*
X148701090Y-131995100D01*
X136675321Y-131995100D01*
X136608282Y-131975415D01*
X136587640Y-131958781D01*
X136028815Y-131399956D01*
X135995330Y-131338633D01*
X135993759Y-131294625D01*
X135995229Y-131284402D01*
X135995229Y-131284401D01*
X135974419Y-131139665D01*
X135913676Y-131006658D01*
X135913676Y-131006657D01*
X135817921Y-130896150D01*
X135817918Y-130896148D01*
X135817919Y-130896148D01*
X135694913Y-130817097D01*
X135694912Y-130817096D01*
X135694911Y-130817096D01*
X135612932Y-130793024D01*
X135554612Y-130775900D01*
X135554611Y-130775900D01*
X135408389Y-130775900D01*
X135408388Y-130775900D01*
X135268086Y-130817097D01*
X135145080Y-130896148D01*
X135049324Y-131006657D01*
X135049323Y-131006658D01*
X134988580Y-131139665D01*
X134967771Y-131284400D01*
X134988580Y-131429134D01*
X135040047Y-131541829D01*
X135049324Y-131562143D01*
X135145079Y-131672650D01*
X135145081Y-131672651D01*
X135145080Y-131672651D01*
X135247455Y-131738443D01*
X135268089Y-131751704D01*
X135379227Y-131784337D01*
X135408388Y-131792900D01*
X135506879Y-131792900D01*
X135573918Y-131812585D01*
X135594560Y-131829219D01*
X136310760Y-132545419D01*
X136344245Y-132606742D01*
X136339261Y-132676434D01*
X136297389Y-132732367D01*
X136231925Y-132756784D01*
X136223079Y-132757100D01*
X134831707Y-132757100D01*
X134773471Y-132772704D01*
X134754058Y-132777906D01*
X134684441Y-132818098D01*
X134684439Y-132818100D01*
X132951201Y-134551339D01*
X132951199Y-134551341D01*
X132940909Y-134569165D01*
X132936559Y-134576700D01*
X132911006Y-134620959D01*
X132890200Y-134698607D01*
X107043967Y-134698607D01*
X107043967Y-132786400D01*
X115906645Y-132786400D01*
X116968814Y-132786400D01*
X116964420Y-132790794D01*
X116911759Y-132882006D01*
X116884500Y-132983739D01*
X116884500Y-133089061D01*
X116911759Y-133190794D01*
X116964420Y-133282006D01*
X116968814Y-133286400D01*
X115906645Y-133286400D01*
X115918973Y-133364235D01*
X115918973Y-133364238D01*
X115987067Y-133573810D01*
X116087113Y-133770160D01*
X116216642Y-133948441D01*
X116372458Y-134104257D01*
X116550739Y-134233786D01*
X116747089Y-134333832D01*
X116956664Y-134401926D01*
X117174319Y-134436400D01*
X118134500Y-134436400D01*
X118134500Y-133436400D01*
X118634500Y-133436400D01*
X118634500Y-134436400D01*
X119594681Y-134436400D01*
X119812335Y-134401926D01*
X120021910Y-134333832D01*
X120218260Y-134233786D01*
X120396541Y-134104257D01*
X120552357Y-133948441D01*
X120681886Y-133770160D01*
X120781932Y-133573810D01*
X120850026Y-133364238D01*
X120850026Y-133364235D01*
X120862355Y-133286400D01*
X119800186Y-133286400D01*
X119804580Y-133282006D01*
X119857241Y-133190794D01*
X119884500Y-133089061D01*
X119884500Y-132983739D01*
X119857241Y-132882006D01*
X119804580Y-132790794D01*
X119800186Y-132786400D01*
X120862355Y-132786400D01*
X120850026Y-132708564D01*
X120850026Y-132708561D01*
X120781932Y-132498989D01*
X120681886Y-132302639D01*
X120552357Y-132124358D01*
X120396541Y-131968542D01*
X120218260Y-131839013D01*
X120021910Y-131738967D01*
X119812335Y-131670873D01*
X119594681Y-131636400D01*
X118634500Y-131636400D01*
X118634500Y-132636400D01*
X118134500Y-132636400D01*
X118134500Y-131636400D01*
X117174319Y-131636400D01*
X116956664Y-131670873D01*
X116747089Y-131738967D01*
X116550739Y-131839013D01*
X116372458Y-131968542D01*
X116216642Y-132124358D01*
X116087113Y-132302639D01*
X115987067Y-132498989D01*
X115918973Y-132708561D01*
X115918973Y-132708564D01*
X115906645Y-132786400D01*
X107043967Y-132786400D01*
X107043967Y-127026218D01*
X114184500Y-127026218D01*
X114184500Y-127986400D01*
X115184500Y-127986400D01*
X115184500Y-128486400D01*
X114184500Y-128486400D01*
X114184500Y-129446581D01*
X114218973Y-129664235D01*
X114287067Y-129873810D01*
X114387113Y-130070160D01*
X114516642Y-130248441D01*
X114672458Y-130404257D01*
X114850739Y-130533786D01*
X115047089Y-130633832D01*
X115256663Y-130701926D01*
X115334499Y-130714254D01*
X115334500Y-130714254D01*
X115334500Y-129652086D01*
X115338894Y-129656480D01*
X115430106Y-129709141D01*
X115531839Y-129736400D01*
X115637161Y-129736400D01*
X115738894Y-129709141D01*
X115830106Y-129656480D01*
X115834500Y-129652086D01*
X115834500Y-130714254D01*
X115912334Y-130701926D01*
X115912337Y-130701926D01*
X116121910Y-130633832D01*
X116318260Y-130533786D01*
X116424682Y-130456466D01*
X120280799Y-130456466D01*
X120292617Y-130515876D01*
X120292618Y-130515879D01*
X120304583Y-130533786D01*
X120337640Y-130583260D01*
X120373109Y-130606959D01*
X120405020Y-130628281D01*
X120405023Y-130628282D01*
X120464433Y-130640100D01*
X120464436Y-130640100D01*
X122304566Y-130640100D01*
X122363976Y-130628282D01*
X122363977Y-130628281D01*
X122363980Y-130628281D01*
X122431360Y-130583260D01*
X122476381Y-130515880D01*
X122488200Y-130456464D01*
X122488200Y-127928555D01*
X127477500Y-127928555D01*
X127477500Y-128626400D01*
X128502222Y-128626400D01*
X128458167Y-128702706D01*
X128427500Y-128817156D01*
X128427500Y-128935644D01*
X128458167Y-129050094D01*
X128502222Y-129126400D01*
X127477500Y-129126400D01*
X127477500Y-129824244D01*
X127483901Y-129883772D01*
X127483903Y-129883779D01*
X127534145Y-130018486D01*
X127534149Y-130018493D01*
X127620309Y-130133587D01*
X127620312Y-130133590D01*
X127735406Y-130219750D01*
X127735413Y-130219754D01*
X127870120Y-130269996D01*
X127870127Y-130269998D01*
X127929655Y-130276399D01*
X127929672Y-130276400D01*
X128627500Y-130276400D01*
X128627500Y-129251677D01*
X128703806Y-129295733D01*
X128818256Y-129326400D01*
X128936744Y-129326400D01*
X129051194Y-129295733D01*
X129127500Y-129251677D01*
X129127500Y-130276400D01*
X129825328Y-130276400D01*
X129825344Y-130276399D01*
X129884872Y-130269998D01*
X129884879Y-130269996D01*
X130019586Y-130219754D01*
X130019593Y-130219750D01*
X130134687Y-130133590D01*
X130134690Y-130133587D01*
X130220850Y-130018493D01*
X130220854Y-130018486D01*
X130271096Y-129883779D01*
X130271098Y-129883772D01*
X130277499Y-129824244D01*
X130277500Y-129824227D01*
X130277500Y-129126400D01*
X129252778Y-129126400D01*
X129296833Y-129050094D01*
X129327500Y-128935644D01*
X129327500Y-128817156D01*
X129296833Y-128702706D01*
X129252778Y-128626400D01*
X130277500Y-128626400D01*
X130277500Y-127928572D01*
X130277499Y-127928555D01*
X130271098Y-127869027D01*
X130271096Y-127869020D01*
X130220854Y-127734313D01*
X130220850Y-127734306D01*
X130134690Y-127619212D01*
X130134687Y-127619209D01*
X130019593Y-127533049D01*
X130019586Y-127533045D01*
X129884879Y-127482803D01*
X129884872Y-127482801D01*
X129825344Y-127476400D01*
X129568718Y-127476400D01*
X129501679Y-127456715D01*
X129455924Y-127403911D01*
X129445980Y-127334753D01*
X129475005Y-127271197D01*
X129503441Y-127246973D01*
X129545475Y-127220946D01*
X129545474Y-127220946D01*
X129545477Y-127220945D01*
X129696638Y-127083143D01*
X129819904Y-126919912D01*
X129911078Y-126736810D01*
X129967055Y-126540073D01*
X129985928Y-126336400D01*
X129967055Y-126132727D01*
X129911078Y-125935990D01*
X129819904Y-125752888D01*
X129696638Y-125589657D01*
X129696635Y-125589654D01*
X129696631Y-125589650D01*
X129545477Y-125451855D01*
X129545475Y-125451853D01*
X129371572Y-125344177D01*
X129371566Y-125344174D01*
X129180839Y-125270287D01*
X129180838Y-125270286D01*
X129180836Y-125270286D01*
X128979773Y-125232700D01*
X128775227Y-125232700D01*
X128574164Y-125270286D01*
X128574162Y-125270286D01*
X128574160Y-125270287D01*
X128383433Y-125344174D01*
X128383427Y-125344177D01*
X128209524Y-125451853D01*
X128209522Y-125451855D01*
X128058368Y-125589650D01*
X128058364Y-125589654D01*
X127935096Y-125752887D01*
X127843926Y-125935979D01*
X127843921Y-125935992D01*
X127787944Y-126132727D01*
X127769072Y-126336399D01*
X127769072Y-126336400D01*
X127787944Y-126540072D01*
X127843921Y-126736807D01*
X127843926Y-126736820D01*
X127910474Y-126870464D01*
X127935096Y-126919912D01*
X128056655Y-127080883D01*
X128058364Y-127083145D01*
X128058368Y-127083149D01*
X128209522Y-127220944D01*
X128209524Y-127220946D01*
X128251559Y-127246973D01*
X128298195Y-127299001D01*
X128309299Y-127367983D01*
X128281346Y-127432017D01*
X128223211Y-127470773D01*
X128186282Y-127476400D01*
X127929655Y-127476400D01*
X127870127Y-127482801D01*
X127870120Y-127482803D01*
X127735413Y-127533045D01*
X127735406Y-127533049D01*
X127620312Y-127619209D01*
X127620309Y-127619212D01*
X127534149Y-127734306D01*
X127534145Y-127734313D01*
X127483903Y-127869020D01*
X127483901Y-127869027D01*
X127477500Y-127928555D01*
X122488200Y-127928555D01*
X122488200Y-126016336D01*
X122488200Y-126016333D01*
X122476382Y-125956923D01*
X122476381Y-125956921D01*
X122476381Y-125956920D01*
X122431360Y-125889540D01*
X122363980Y-125844519D01*
X122363979Y-125844518D01*
X122363976Y-125844517D01*
X122304566Y-125832700D01*
X122304564Y-125832700D01*
X120464436Y-125832700D01*
X120464434Y-125832700D01*
X120405023Y-125844517D01*
X120405020Y-125844518D01*
X120337640Y-125889540D01*
X120306603Y-125935992D01*
X120292620Y-125956919D01*
X120292617Y-125956923D01*
X120280800Y-126016333D01*
X120280800Y-126016336D01*
X120280800Y-130456464D01*
X120280800Y-130456466D01*
X120280799Y-130456466D01*
X116424682Y-130456466D01*
X116496541Y-130404257D01*
X116652357Y-130248441D01*
X116781886Y-130070160D01*
X116881932Y-129873810D01*
X116950026Y-129664235D01*
X116984500Y-129446581D01*
X116984500Y-128486400D01*
X115984500Y-128486400D01*
X115984500Y-127986400D01*
X116984500Y-127986400D01*
X116984500Y-127026218D01*
X116950026Y-126808564D01*
X116881932Y-126598989D01*
X116781886Y-126402639D01*
X116652357Y-126224358D01*
X116496541Y-126068542D01*
X116318260Y-125939013D01*
X116121910Y-125838967D01*
X115912336Y-125770873D01*
X115834500Y-125758544D01*
X115834500Y-126820714D01*
X115830106Y-126816320D01*
X115738894Y-126763659D01*
X115637161Y-126736400D01*
X115531839Y-126736400D01*
X115430106Y-126763659D01*
X115338894Y-126816320D01*
X115334500Y-126820714D01*
X115334500Y-125758544D01*
X115256664Y-125770873D01*
X115256661Y-125770873D01*
X115047089Y-125838967D01*
X114850739Y-125939013D01*
X114672458Y-126068542D01*
X114516642Y-126224358D01*
X114387113Y-126402639D01*
X114287067Y-126598989D01*
X114218973Y-126808564D01*
X114184500Y-127026218D01*
X107043967Y-127026218D01*
X107043967Y-121251400D01*
X108138702Y-121251400D01*
X108159046Y-121457959D01*
X108170816Y-121496758D01*
X108219298Y-121656584D01*
X108219299Y-121656587D01*
X108219300Y-121656588D01*
X108219301Y-121656591D01*
X108317138Y-121839631D01*
X108317142Y-121839638D01*
X108448816Y-122000083D01*
X108609261Y-122131757D01*
X108609268Y-122131761D01*
X108792308Y-122229598D01*
X108792309Y-122229598D01*
X108792316Y-122229602D01*
X108990939Y-122289853D01*
X108990938Y-122289853D01*
X109009458Y-122291677D01*
X109197500Y-122310198D01*
X109404061Y-122289853D01*
X109602684Y-122229602D01*
X109785737Y-122131758D01*
X109798278Y-122121466D01*
X110683799Y-122121466D01*
X110695617Y-122180876D01*
X110695618Y-122180879D01*
X110695619Y-122180880D01*
X110740640Y-122248260D01*
X110797626Y-122286336D01*
X110808020Y-122293281D01*
X110808023Y-122293282D01*
X110867433Y-122305100D01*
X110867436Y-122305100D01*
X112308079Y-122305100D01*
X112375118Y-122324785D01*
X112395760Y-122341419D01*
X114852041Y-124797700D01*
X114921658Y-124837894D01*
X114938067Y-124842290D01*
X114938072Y-124842291D01*
X114938074Y-124842292D01*
X114961429Y-124848550D01*
X114999307Y-124858700D01*
X129387475Y-124858700D01*
X129387517Y-124858702D01*
X129396128Y-124858701D01*
X129396130Y-124858702D01*
X129422926Y-124858700D01*
X129476492Y-124858700D01*
X129476499Y-124858700D01*
X129476550Y-124858692D01*
X129477202Y-124858512D01*
X129514363Y-124848552D01*
X129514369Y-124848552D01*
X129514369Y-124848550D01*
X129514370Y-124848550D01*
X129551212Y-124838678D01*
X129554318Y-124837930D01*
X129554347Y-124837918D01*
X129557544Y-124835933D01*
X129576244Y-124825134D01*
X129598412Y-124812333D01*
X129622053Y-124798683D01*
X129624246Y-124797466D01*
X129624502Y-124797264D01*
X129627686Y-124793776D01*
X129658314Y-124763143D01*
X129687084Y-124734375D01*
X129687085Y-124734372D01*
X129697287Y-124724171D01*
X129697290Y-124724166D01*
X129741056Y-124680400D01*
X130395771Y-124680400D01*
X130416580Y-124825134D01*
X130477323Y-124958141D01*
X130477326Y-124958147D01*
X130573912Y-125069611D01*
X130602938Y-125133166D01*
X130604200Y-125150814D01*
X130604200Y-127562438D01*
X130619713Y-127620334D01*
X130625005Y-127640085D01*
X130625006Y-127640086D01*
X130665200Y-127709704D01*
X132960196Y-130004700D01*
X133029813Y-130044894D01*
X133046222Y-130049290D01*
X133107462Y-130065700D01*
X133107463Y-130065700D01*
X135780690Y-130065700D01*
X135780693Y-130065700D01*
X135858341Y-130044894D01*
X135858343Y-130044892D01*
X135858345Y-130044892D01*
X135858346Y-130044891D01*
X135902359Y-130019480D01*
X135927959Y-130004700D01*
X136326242Y-129606416D01*
X136387563Y-129572933D01*
X136457254Y-129577917D01*
X136513188Y-129619788D01*
X136537605Y-129685253D01*
X136526304Y-129746502D01*
X136499070Y-129804907D01*
X136499067Y-129804913D01*
X136441864Y-130018399D01*
X136441864Y-130018400D01*
X137339488Y-130018400D01*
X137306575Y-130075407D01*
X137272500Y-130202574D01*
X137272500Y-130334226D01*
X137306575Y-130461393D01*
X137339488Y-130518400D01*
X136441864Y-130518400D01*
X136499067Y-130731886D01*
X136499070Y-130731892D01*
X136598899Y-130945978D01*
X136734394Y-131139482D01*
X136901417Y-131306505D01*
X137094921Y-131442000D01*
X137309007Y-131541829D01*
X137309016Y-131541833D01*
X137522500Y-131599034D01*
X137522500Y-130701412D01*
X137579507Y-130734325D01*
X137706674Y-130768400D01*
X137838326Y-130768400D01*
X137965493Y-130734325D01*
X138022500Y-130701412D01*
X138022500Y-131599033D01*
X138235983Y-131541833D01*
X138235992Y-131541829D01*
X138450078Y-131442000D01*
X138643582Y-131306505D01*
X138810605Y-131139482D01*
X138946100Y-130945978D01*
X139045929Y-130731892D01*
X139045932Y-130731886D01*
X139103136Y-130518400D01*
X138205512Y-130518400D01*
X138238425Y-130461393D01*
X138272500Y-130334226D01*
X138272500Y-130202574D01*
X138238425Y-130075407D01*
X138205512Y-130018400D01*
X139103136Y-130018400D01*
X139103135Y-130018399D01*
X139045932Y-129804913D01*
X139045929Y-129804907D01*
X138946100Y-129590822D01*
X138946099Y-129590820D01*
X138810613Y-129397326D01*
X138810608Y-129397320D01*
X138643582Y-129230294D01*
X138450078Y-129094799D01*
X138286414Y-129018482D01*
X138233975Y-128972310D01*
X138214823Y-128905116D01*
X138235039Y-128838235D01*
X138288204Y-128792901D01*
X138338819Y-128782100D01*
X138642566Y-128782100D01*
X138701976Y-128770282D01*
X138701977Y-128770281D01*
X138701980Y-128770281D01*
X138769360Y-128725260D01*
X138814381Y-128657880D01*
X138826200Y-128598464D01*
X138826200Y-127203621D01*
X138845885Y-127136582D01*
X138898689Y-127090827D01*
X138967847Y-127080883D01*
X139031403Y-127109908D01*
X139037878Y-127115937D01*
X139894641Y-127972701D01*
X139964259Y-128012894D01*
X140041907Y-128033700D01*
X140150800Y-128033700D01*
X140217839Y-128053385D01*
X140263594Y-128106189D01*
X140274800Y-128157700D01*
X140274800Y-128598464D01*
X140274800Y-128598466D01*
X140274799Y-128598466D01*
X140286617Y-128657876D01*
X140286618Y-128657879D01*
X140286619Y-128657880D01*
X140331640Y-128725260D01*
X140399020Y-128770281D01*
X140399023Y-128770282D01*
X140458433Y-128782100D01*
X140762181Y-128782100D01*
X140829220Y-128801785D01*
X140874975Y-128854589D01*
X140884919Y-128923747D01*
X140855894Y-128987303D01*
X140814586Y-129018482D01*
X140650922Y-129094799D01*
X140650920Y-129094800D01*
X140457426Y-129230286D01*
X140457420Y-129230291D01*
X140290391Y-129397320D01*
X140290386Y-129397326D01*
X140154900Y-129590820D01*
X140154899Y-129590822D01*
X140055070Y-129804907D01*
X140055067Y-129804913D01*
X139997864Y-130018399D01*
X139997864Y-130018400D01*
X140895488Y-130018400D01*
X140862575Y-130075407D01*
X140828500Y-130202574D01*
X140828500Y-130334226D01*
X140862575Y-130461393D01*
X140895488Y-130518400D01*
X139997864Y-130518400D01*
X140055067Y-130731886D01*
X140055070Y-130731892D01*
X140154899Y-130945978D01*
X140290394Y-131139482D01*
X140457417Y-131306505D01*
X140650921Y-131442000D01*
X140865007Y-131541829D01*
X140865016Y-131541833D01*
X141078500Y-131599034D01*
X141078500Y-130701412D01*
X141135507Y-130734325D01*
X141262674Y-130768400D01*
X141394326Y-130768400D01*
X141521493Y-130734325D01*
X141578500Y-130701412D01*
X141578500Y-131599033D01*
X141791983Y-131541833D01*
X141791992Y-131541829D01*
X142006078Y-131442000D01*
X142199582Y-131306505D01*
X142366605Y-131139482D01*
X142502100Y-130945978D01*
X142601929Y-130731892D01*
X142601932Y-130731886D01*
X142659136Y-130518400D01*
X141761512Y-130518400D01*
X141794425Y-130461393D01*
X141810768Y-130400400D01*
X150551702Y-130400400D01*
X150572046Y-130606959D01*
X150590714Y-130668499D01*
X150632298Y-130805584D01*
X150632299Y-130805587D01*
X150632300Y-130805588D01*
X150632301Y-130805591D01*
X150730138Y-130988631D01*
X150730142Y-130988638D01*
X150861816Y-131149083D01*
X151022261Y-131280757D01*
X151022268Y-131280761D01*
X151205308Y-131378598D01*
X151205309Y-131378598D01*
X151205316Y-131378602D01*
X151403939Y-131438853D01*
X151403938Y-131438853D01*
X151422458Y-131440677D01*
X151610500Y-131459198D01*
X151817061Y-131438853D01*
X152015684Y-131378602D01*
X152198737Y-131280758D01*
X152359183Y-131149083D01*
X152490858Y-130988637D01*
X152588702Y-130805584D01*
X152648953Y-130606961D01*
X152669298Y-130400400D01*
X152648953Y-130193839D01*
X152588702Y-129995216D01*
X152523809Y-129873810D01*
X152490861Y-129812168D01*
X152490857Y-129812161D01*
X152359183Y-129651716D01*
X152198738Y-129520042D01*
X152198731Y-129520038D01*
X152015691Y-129422201D01*
X152015688Y-129422200D01*
X152015687Y-129422199D01*
X152015684Y-129422198D01*
X151817061Y-129361947D01*
X151817059Y-129361946D01*
X151817061Y-129361946D01*
X151610500Y-129341602D01*
X151403940Y-129361946D01*
X151314555Y-129389061D01*
X151205316Y-129422198D01*
X151205313Y-129422199D01*
X151205311Y-129422200D01*
X151205308Y-129422201D01*
X151022268Y-129520038D01*
X151022261Y-129520042D01*
X150861816Y-129651716D01*
X150730142Y-129812161D01*
X150730138Y-129812168D01*
X150632301Y-129995208D01*
X150632300Y-129995211D01*
X150632299Y-129995213D01*
X150632298Y-129995216D01*
X150610917Y-130065700D01*
X150572046Y-130193840D01*
X150551702Y-130400400D01*
X141810768Y-130400400D01*
X141828500Y-130334226D01*
X141828500Y-130202574D01*
X141794425Y-130075407D01*
X141761512Y-130018400D01*
X142659136Y-130018400D01*
X142659135Y-130018399D01*
X142601932Y-129804913D01*
X142601929Y-129804907D01*
X142502100Y-129590822D01*
X142502099Y-129590820D01*
X142366613Y-129397326D01*
X142366608Y-129397320D01*
X142199582Y-129230294D01*
X142006078Y-129094799D01*
X141842414Y-129018482D01*
X141789975Y-128972310D01*
X141770823Y-128905116D01*
X141791039Y-128838235D01*
X141844204Y-128792901D01*
X141894819Y-128782100D01*
X142198566Y-128782100D01*
X142257976Y-128770282D01*
X142257977Y-128770281D01*
X142257980Y-128770281D01*
X142325360Y-128725260D01*
X142370381Y-128657880D01*
X142382200Y-128598464D01*
X142382200Y-128490400D01*
X143952702Y-128490400D01*
X143973046Y-128696959D01*
X143981631Y-128725259D01*
X144033298Y-128895584D01*
X144033299Y-128895587D01*
X144033300Y-128895588D01*
X144033301Y-128895591D01*
X144131138Y-129078631D01*
X144131142Y-129078638D01*
X144262816Y-129239083D01*
X144423261Y-129370757D01*
X144423268Y-129370761D01*
X144606308Y-129468598D01*
X144606309Y-129468598D01*
X144606316Y-129468602D01*
X144804939Y-129528853D01*
X144804938Y-129528853D01*
X144823458Y-129530677D01*
X145011500Y-129549198D01*
X145218061Y-129528853D01*
X145416684Y-129468602D01*
X145599737Y-129370758D01*
X145612278Y-129360466D01*
X146497799Y-129360466D01*
X146509617Y-129419876D01*
X146509618Y-129419879D01*
X146509619Y-129419880D01*
X146554640Y-129487260D01*
X146603697Y-129520038D01*
X146622020Y-129532281D01*
X146622023Y-129532282D01*
X146681433Y-129544100D01*
X146681436Y-129544100D01*
X148421566Y-129544100D01*
X148480976Y-129532282D01*
X148480977Y-129532281D01*
X148480980Y-129532281D01*
X148548360Y-129487260D01*
X148593381Y-129419880D01*
X148593600Y-129418781D01*
X148605200Y-129360466D01*
X148605200Y-127620333D01*
X148593382Y-127560923D01*
X148593381Y-127560920D01*
X148548360Y-127493540D01*
X148503338Y-127463457D01*
X148480979Y-127448518D01*
X148480976Y-127448517D01*
X148421566Y-127436700D01*
X148421564Y-127436700D01*
X146681436Y-127436700D01*
X146681434Y-127436700D01*
X146622023Y-127448517D01*
X146622020Y-127448518D01*
X146554640Y-127493540D01*
X146509618Y-127560920D01*
X146509617Y-127560923D01*
X146497800Y-127620333D01*
X146497800Y-127620334D01*
X146497800Y-127620336D01*
X146497800Y-129360464D01*
X146497800Y-129360466D01*
X146497799Y-129360466D01*
X145612278Y-129360466D01*
X145760183Y-129239083D01*
X145891858Y-129078637D01*
X145989702Y-128895584D01*
X146049953Y-128696961D01*
X146070298Y-128490400D01*
X146049953Y-128283839D01*
X145989702Y-128085216D01*
X145951045Y-128012894D01*
X145891861Y-127902168D01*
X145891857Y-127902161D01*
X145760183Y-127741716D01*
X145599738Y-127610042D01*
X145599731Y-127610038D01*
X145416691Y-127512201D01*
X145416688Y-127512200D01*
X145416687Y-127512199D01*
X145416684Y-127512198D01*
X145218061Y-127451947D01*
X145218059Y-127451946D01*
X145218061Y-127451946D01*
X145011500Y-127431602D01*
X144804940Y-127451946D01*
X144724327Y-127476400D01*
X144606316Y-127512198D01*
X144606313Y-127512199D01*
X144606311Y-127512200D01*
X144606308Y-127512201D01*
X144423268Y-127610038D01*
X144423261Y-127610042D01*
X144262816Y-127741716D01*
X144131142Y-127902161D01*
X144131138Y-127902168D01*
X144033301Y-128085208D01*
X144033300Y-128085211D01*
X144033299Y-128085213D01*
X144033298Y-128085216D01*
X144008621Y-128166565D01*
X143973046Y-128283840D01*
X143952702Y-128490400D01*
X142382200Y-128490400D01*
X142382200Y-126858336D01*
X142382200Y-126858333D01*
X142370382Y-126798923D01*
X142370381Y-126798920D01*
X142325360Y-126731540D01*
X142257980Y-126686519D01*
X142257979Y-126686518D01*
X142257976Y-126686517D01*
X142198566Y-126674700D01*
X142198564Y-126674700D01*
X140458436Y-126674700D01*
X140458434Y-126674700D01*
X140399023Y-126686517D01*
X140399020Y-126686518D01*
X140331640Y-126731540D01*
X140286618Y-126798920D01*
X140286617Y-126798923D01*
X140274800Y-126858333D01*
X140274800Y-127189978D01*
X140255115Y-127257017D01*
X140202311Y-127302772D01*
X140133153Y-127312716D01*
X140069597Y-127283691D01*
X140063119Y-127277659D01*
X136357961Y-123572502D01*
X136357959Y-123572500D01*
X136288341Y-123532306D01*
X136210693Y-123511500D01*
X136210690Y-123511500D01*
X132517427Y-123511500D01*
X132450388Y-123491815D01*
X132423715Y-123468704D01*
X132413423Y-123456827D01*
X132388921Y-123428550D01*
X132388919Y-123428548D01*
X132265913Y-123349497D01*
X132265912Y-123349496D01*
X132265911Y-123349496D01*
X132183932Y-123325424D01*
X132125612Y-123308300D01*
X132125611Y-123308300D01*
X131979389Y-123308300D01*
X131979388Y-123308300D01*
X131839086Y-123349497D01*
X131716080Y-123428548D01*
X131620324Y-123539057D01*
X131620323Y-123539058D01*
X131559580Y-123672065D01*
X131538771Y-123816800D01*
X131559580Y-123961534D01*
X131589233Y-124026464D01*
X131620324Y-124094543D01*
X131716079Y-124205050D01*
X131716081Y-124205051D01*
X131716080Y-124205051D01*
X131777075Y-124244250D01*
X131839089Y-124284104D01*
X131950227Y-124316737D01*
X131979388Y-124325300D01*
X131979389Y-124325300D01*
X132125612Y-124325300D01*
X132149754Y-124318210D01*
X132265911Y-124284104D01*
X132388921Y-124205050D01*
X132423715Y-124164896D01*
X132482493Y-124127122D01*
X132517427Y-124122100D01*
X135992679Y-124122100D01*
X136059718Y-124141785D01*
X136080360Y-124158419D01*
X138384959Y-126463019D01*
X138418444Y-126524342D01*
X138413460Y-126594034D01*
X138371588Y-126649967D01*
X138306124Y-126674384D01*
X138297278Y-126674700D01*
X136902434Y-126674700D01*
X136843023Y-126686517D01*
X136843020Y-126686518D01*
X136775640Y-126731540D01*
X136730618Y-126798920D01*
X136730617Y-126798923D01*
X136718800Y-126858333D01*
X136718800Y-128298979D01*
X136699115Y-128366018D01*
X136682481Y-128386660D01*
X135650360Y-129418781D01*
X135589037Y-129452266D01*
X135562679Y-129455100D01*
X134481632Y-129455100D01*
X134414593Y-129435415D01*
X134368838Y-129382611D01*
X134358894Y-129313453D01*
X134387919Y-129249897D01*
X134398092Y-129239465D01*
X134400629Y-129237151D01*
X134400638Y-129237143D01*
X134523904Y-129073912D01*
X134615078Y-128890810D01*
X134671055Y-128694073D01*
X134689928Y-128490400D01*
X134689548Y-128486304D01*
X134671055Y-128286727D01*
X134619687Y-128106189D01*
X134615078Y-128089990D01*
X134612698Y-128085211D01*
X134534693Y-127928555D01*
X134523904Y-127906888D01*
X134400638Y-127743657D01*
X134400635Y-127743654D01*
X134400631Y-127743650D01*
X134249477Y-127605855D01*
X134249475Y-127605853D01*
X134075572Y-127498177D01*
X134075566Y-127498174D01*
X133884839Y-127424287D01*
X133884838Y-127424286D01*
X133884836Y-127424286D01*
X133683773Y-127386700D01*
X133479227Y-127386700D01*
X133278164Y-127424286D01*
X133278162Y-127424286D01*
X133278160Y-127424287D01*
X133087433Y-127498174D01*
X133087427Y-127498177D01*
X132913524Y-127605853D01*
X132913522Y-127605855D01*
X132762368Y-127743650D01*
X132762364Y-127743654D01*
X132639096Y-127906887D01*
X132547926Y-128089979D01*
X132547921Y-128089992D01*
X132491945Y-128286727D01*
X132483565Y-128377160D01*
X132457779Y-128442097D01*
X132400978Y-128482784D01*
X132331197Y-128486304D01*
X132272413Y-128453399D01*
X131251119Y-127432105D01*
X131217634Y-127370782D01*
X131214800Y-127344424D01*
X131214800Y-126870466D01*
X132477799Y-126870466D01*
X132489617Y-126929876D01*
X132489618Y-126929879D01*
X132489619Y-126929880D01*
X132534640Y-126997260D01*
X132577980Y-127026218D01*
X132602020Y-127042281D01*
X132602023Y-127042282D01*
X132661433Y-127054100D01*
X132661436Y-127054100D01*
X134501566Y-127054100D01*
X134560976Y-127042282D01*
X134560977Y-127042281D01*
X134560980Y-127042281D01*
X134628360Y-126997260D01*
X134673381Y-126929880D01*
X134685200Y-126870464D01*
X134685200Y-125030336D01*
X134685200Y-125030333D01*
X134673382Y-124970923D01*
X134673381Y-124970920D01*
X134628360Y-124903540D01*
X134561251Y-124858700D01*
X134560979Y-124858518D01*
X134560976Y-124858517D01*
X134501566Y-124846700D01*
X134501564Y-124846700D01*
X132661436Y-124846700D01*
X132661434Y-124846700D01*
X132602023Y-124858517D01*
X132602020Y-124858518D01*
X132534640Y-124903540D01*
X132489618Y-124970920D01*
X132489617Y-124970923D01*
X132477800Y-125030333D01*
X132477800Y-125030336D01*
X132477800Y-126870464D01*
X132477800Y-126870466D01*
X132477799Y-126870466D01*
X131214800Y-126870466D01*
X131214800Y-125150814D01*
X131234485Y-125083775D01*
X131245088Y-125069611D01*
X131341673Y-124958147D01*
X131341673Y-124958145D01*
X131341676Y-124958143D01*
X131402419Y-124825134D01*
X131423229Y-124680400D01*
X131402419Y-124535666D01*
X131341676Y-124402657D01*
X131245921Y-124292150D01*
X131245918Y-124292148D01*
X131245919Y-124292148D01*
X131122913Y-124213097D01*
X131122912Y-124213096D01*
X131122911Y-124213096D01*
X131040932Y-124189024D01*
X130982612Y-124171900D01*
X130982611Y-124171900D01*
X130836389Y-124171900D01*
X130836388Y-124171900D01*
X130746544Y-124198281D01*
X130700568Y-124211781D01*
X130696086Y-124213097D01*
X130573080Y-124292148D01*
X130477324Y-124402657D01*
X130477323Y-124402658D01*
X130416580Y-124535665D01*
X130395771Y-124680400D01*
X129741056Y-124680400D01*
X131773059Y-122648400D01*
X135348771Y-122648400D01*
X135369580Y-122793134D01*
X135396053Y-122851100D01*
X135430324Y-122926143D01*
X135526079Y-123036650D01*
X135526081Y-123036651D01*
X135526080Y-123036651D01*
X135544580Y-123048540D01*
X135649089Y-123115704D01*
X135760227Y-123148337D01*
X135789388Y-123156900D01*
X135789389Y-123156900D01*
X135935612Y-123156900D01*
X135959754Y-123149810D01*
X136075911Y-123115704D01*
X136198921Y-123036650D01*
X136233715Y-122996496D01*
X136292493Y-122958722D01*
X136327427Y-122953700D01*
X145751233Y-122953700D01*
X145818272Y-122973385D01*
X145864027Y-123026189D01*
X145873971Y-123095347D01*
X145871633Y-123103868D01*
X145872001Y-123103942D01*
X145857800Y-123175333D01*
X145857800Y-123175336D01*
X145857800Y-124915464D01*
X145857800Y-124915466D01*
X145857799Y-124915466D01*
X145869617Y-124974876D01*
X145869618Y-124974879D01*
X145869619Y-124974880D01*
X145914640Y-125042260D01*
X145976773Y-125083775D01*
X145982020Y-125087281D01*
X145982023Y-125087282D01*
X146041433Y-125099100D01*
X146041436Y-125099100D01*
X147781566Y-125099100D01*
X147840976Y-125087282D01*
X147840977Y-125087281D01*
X147840980Y-125087281D01*
X147908360Y-125042260D01*
X147953381Y-124974880D01*
X147956710Y-124958147D01*
X147965200Y-124915466D01*
X147965200Y-123569621D01*
X147984885Y-123502582D01*
X148037689Y-123456827D01*
X148106847Y-123446883D01*
X148170403Y-123475908D01*
X148176881Y-123481940D01*
X150635641Y-125940700D01*
X150663735Y-125956920D01*
X150663736Y-125956921D01*
X150705253Y-125980891D01*
X150705254Y-125980892D01*
X150705256Y-125980892D01*
X150705259Y-125980894D01*
X150782907Y-126001700D01*
X152796573Y-126001700D01*
X152863612Y-126021385D01*
X152890285Y-126044496D01*
X152925079Y-126084650D01*
X152925080Y-126084650D01*
X152925080Y-126084651D01*
X152999888Y-126132727D01*
X153048089Y-126163704D01*
X153159227Y-126196337D01*
X153188388Y-126204900D01*
X153188389Y-126204900D01*
X153334612Y-126204900D01*
X153358754Y-126197810D01*
X153474911Y-126163704D01*
X153597921Y-126084650D01*
X153693676Y-125974143D01*
X153754419Y-125841134D01*
X153775229Y-125696400D01*
X153754419Y-125551666D01*
X153693676Y-125418657D01*
X153597921Y-125308150D01*
X153597918Y-125308148D01*
X153597919Y-125308148D01*
X153474913Y-125229097D01*
X153474912Y-125229096D01*
X153474911Y-125229096D01*
X153392932Y-125205024D01*
X153334612Y-125187900D01*
X153334611Y-125187900D01*
X153188389Y-125187900D01*
X153188388Y-125187900D01*
X153048086Y-125229097D01*
X152925080Y-125308148D01*
X152925080Y-125308149D01*
X152890285Y-125348304D01*
X152831507Y-125386078D01*
X152796573Y-125391100D01*
X151000921Y-125391100D01*
X150933882Y-125371415D01*
X150913240Y-125354781D01*
X147962561Y-122404102D01*
X147962559Y-122404100D01*
X147892941Y-122363906D01*
X147815293Y-122343100D01*
X147815291Y-122343100D01*
X147814022Y-122342760D01*
X147754362Y-122306395D01*
X147723833Y-122243548D01*
X147732128Y-122174172D01*
X147750264Y-122144319D01*
X147753452Y-122140435D01*
X147791858Y-122093637D01*
X147889702Y-121910584D01*
X147949953Y-121711961D01*
X147970298Y-121505400D01*
X147949953Y-121298839D01*
X147889702Y-121100216D01*
X147860103Y-121044840D01*
X147791861Y-120917168D01*
X147791857Y-120917161D01*
X147660183Y-120756716D01*
X147499738Y-120625042D01*
X147499731Y-120625038D01*
X147316691Y-120527201D01*
X147316688Y-120527200D01*
X147316687Y-120527199D01*
X147316684Y-120527198D01*
X147118061Y-120466947D01*
X147118059Y-120466946D01*
X147118061Y-120466946D01*
X146911500Y-120446602D01*
X146704940Y-120466946D01*
X146602431Y-120498042D01*
X146506316Y-120527198D01*
X146506313Y-120527199D01*
X146506311Y-120527200D01*
X146506308Y-120527201D01*
X146323268Y-120625038D01*
X146323261Y-120625042D01*
X146162816Y-120756716D01*
X146031142Y-120917161D01*
X146031138Y-120917168D01*
X145933301Y-121100208D01*
X145933300Y-121100211D01*
X145873046Y-121298840D01*
X145852702Y-121505400D01*
X145873046Y-121711959D01*
X145873047Y-121711961D01*
X145933298Y-121910584D01*
X145933299Y-121910587D01*
X145933300Y-121910588D01*
X145933301Y-121910591D01*
X146031138Y-122093631D01*
X146031142Y-122093638D01*
X146069548Y-122140435D01*
X146096861Y-122204745D01*
X146085070Y-122273612D01*
X146037918Y-122325173D01*
X145973695Y-122343100D01*
X136327427Y-122343100D01*
X136260388Y-122323415D01*
X136233715Y-122300304D01*
X136221609Y-122286333D01*
X136198921Y-122260150D01*
X136198919Y-122260148D01*
X136075913Y-122181097D01*
X136075912Y-122181096D01*
X136075911Y-122181096D01*
X135950661Y-122144319D01*
X135935612Y-122139900D01*
X135935611Y-122139900D01*
X135789389Y-122139900D01*
X135789388Y-122139900D01*
X135689576Y-122169207D01*
X135649839Y-122180876D01*
X135649086Y-122181097D01*
X135526080Y-122260148D01*
X135430324Y-122370657D01*
X135430323Y-122370658D01*
X135369580Y-122503665D01*
X135348771Y-122648400D01*
X131773059Y-122648400D01*
X131915800Y-122505659D01*
X131955327Y-122437198D01*
X131955994Y-122436043D01*
X131955994Y-122436041D01*
X131969466Y-122385763D01*
X131969467Y-122385758D01*
X131976800Y-122358393D01*
X131976800Y-119689814D01*
X131996485Y-119622775D01*
X132007088Y-119608611D01*
X132103673Y-119497147D01*
X132103673Y-119497145D01*
X132103676Y-119497143D01*
X132164419Y-119364134D01*
X132185229Y-119219400D01*
X132164419Y-119074666D01*
X132155254Y-119054598D01*
X132114519Y-118965400D01*
X145852702Y-118965400D01*
X145873046Y-119171959D01*
X145873047Y-119171961D01*
X145933298Y-119370584D01*
X145933299Y-119370587D01*
X145933300Y-119370588D01*
X145933301Y-119370591D01*
X146031138Y-119553631D01*
X146031142Y-119553638D01*
X146162816Y-119714083D01*
X146323261Y-119845757D01*
X146323268Y-119845761D01*
X146506308Y-119943598D01*
X146506309Y-119943598D01*
X146506316Y-119943602D01*
X146704939Y-120003853D01*
X146704938Y-120003853D01*
X146723458Y-120005677D01*
X146911500Y-120024198D01*
X147118061Y-120003853D01*
X147316684Y-119943602D01*
X147499737Y-119845758D01*
X147660183Y-119714083D01*
X147791858Y-119553637D01*
X147889702Y-119370584D01*
X147949953Y-119171961D01*
X147970298Y-118965400D01*
X147949953Y-118758839D01*
X147889702Y-118560216D01*
X147847676Y-118481591D01*
X147791861Y-118377168D01*
X147791857Y-118377161D01*
X147660183Y-118216716D01*
X147499738Y-118085042D01*
X147499731Y-118085038D01*
X147316691Y-117987201D01*
X147316688Y-117987200D01*
X147316687Y-117987199D01*
X147316684Y-117987198D01*
X147118061Y-117926947D01*
X147118059Y-117926946D01*
X147118061Y-117926946D01*
X146911500Y-117906602D01*
X146704940Y-117926946D01*
X146587665Y-117962521D01*
X146506316Y-117987198D01*
X146506313Y-117987199D01*
X146506311Y-117987200D01*
X146506308Y-117987201D01*
X146323268Y-118085038D01*
X146323261Y-118085042D01*
X146162816Y-118216716D01*
X146031142Y-118377161D01*
X146031138Y-118377168D01*
X145933301Y-118560208D01*
X145933300Y-118560211D01*
X145873046Y-118758840D01*
X145852702Y-118965400D01*
X132114519Y-118965400D01*
X132103676Y-118941657D01*
X132007921Y-118831150D01*
X132007918Y-118831148D01*
X132007919Y-118831148D01*
X131884913Y-118752097D01*
X131884912Y-118752096D01*
X131884911Y-118752096D01*
X131802932Y-118728024D01*
X131744612Y-118710900D01*
X131744611Y-118710900D01*
X131598389Y-118710900D01*
X131598388Y-118710900D01*
X131458086Y-118752097D01*
X131335080Y-118831148D01*
X131239324Y-118941657D01*
X131239323Y-118941658D01*
X131178580Y-119074665D01*
X131157771Y-119219400D01*
X131178580Y-119364134D01*
X131239323Y-119497141D01*
X131239326Y-119497147D01*
X131335912Y-119608611D01*
X131364938Y-119672166D01*
X131366200Y-119689814D01*
X131366200Y-122140378D01*
X131346515Y-122207417D01*
X131329881Y-122228059D01*
X129346159Y-124211781D01*
X129284836Y-124245266D01*
X129258478Y-124248100D01*
X129021767Y-124248100D01*
X128954728Y-124228415D01*
X128908973Y-124175611D01*
X128899029Y-124106453D01*
X128901366Y-124097931D01*
X128900999Y-124097858D01*
X128915200Y-124026466D01*
X128915200Y-122286333D01*
X128903382Y-122226923D01*
X128903381Y-122226920D01*
X128858360Y-122159540D01*
X128790980Y-122114519D01*
X128790979Y-122114518D01*
X128790976Y-122114517D01*
X128731566Y-122102700D01*
X128731564Y-122102700D01*
X126991436Y-122102700D01*
X126991434Y-122102700D01*
X126932023Y-122114517D01*
X126932020Y-122114518D01*
X126864640Y-122159540D01*
X126819618Y-122226920D01*
X126819617Y-122226923D01*
X126807800Y-122286333D01*
X126807800Y-122727100D01*
X126788115Y-122794139D01*
X126735311Y-122839894D01*
X126683800Y-122851100D01*
X116794827Y-122851100D01*
X116727788Y-122831415D01*
X116701115Y-122808304D01*
X116696819Y-122803346D01*
X116666321Y-122768150D01*
X116666319Y-122768148D01*
X116543313Y-122689097D01*
X116543312Y-122689096D01*
X116543311Y-122689096D01*
X116461332Y-122665024D01*
X116403012Y-122647900D01*
X116403011Y-122647900D01*
X116256789Y-122647900D01*
X116256788Y-122647900D01*
X116116486Y-122689097D01*
X115993480Y-122768148D01*
X115897724Y-122878657D01*
X115897723Y-122878658D01*
X115836980Y-123011665D01*
X115816171Y-123156400D01*
X115836980Y-123301134D01*
X115895169Y-123428548D01*
X115897724Y-123434143D01*
X115993479Y-123544650D01*
X115993481Y-123544651D01*
X115993480Y-123544651D01*
X116036814Y-123572500D01*
X116116489Y-123623704D01*
X116227627Y-123656337D01*
X116256788Y-123664900D01*
X116256789Y-123664900D01*
X116403012Y-123664900D01*
X116427154Y-123657810D01*
X116543311Y-123623704D01*
X116666321Y-123544650D01*
X116701115Y-123504496D01*
X116759893Y-123466722D01*
X116794827Y-123461700D01*
X126683800Y-123461700D01*
X126750839Y-123481385D01*
X126796594Y-123534189D01*
X126807800Y-123585700D01*
X126807800Y-124026464D01*
X126807800Y-124026466D01*
X126807799Y-124026466D01*
X126822001Y-124097858D01*
X126818157Y-124098622D01*
X126823262Y-124146124D01*
X126791983Y-124208601D01*
X126731892Y-124244250D01*
X126701233Y-124248100D01*
X115217321Y-124248100D01*
X115150282Y-124228415D01*
X115129640Y-124211781D01*
X112827519Y-121909660D01*
X112794034Y-121848337D01*
X112791200Y-121821979D01*
X112791200Y-121378400D01*
X114356702Y-121378400D01*
X114377046Y-121584959D01*
X114397130Y-121651168D01*
X114437298Y-121783584D01*
X114437299Y-121783587D01*
X114437300Y-121783588D01*
X114437301Y-121783591D01*
X114535138Y-121966631D01*
X114535142Y-121966638D01*
X114666816Y-122127083D01*
X114827261Y-122258757D01*
X114827268Y-122258761D01*
X115010308Y-122356598D01*
X115010309Y-122356598D01*
X115010316Y-122356602D01*
X115208939Y-122416853D01*
X115208938Y-122416853D01*
X115227458Y-122418677D01*
X115415500Y-122437198D01*
X115622061Y-122416853D01*
X115820684Y-122356602D01*
X116003737Y-122258758D01*
X116016278Y-122248466D01*
X116901799Y-122248466D01*
X116913617Y-122307876D01*
X116913618Y-122307879D01*
X116913619Y-122307880D01*
X116958640Y-122375260D01*
X117001803Y-122404100D01*
X117026020Y-122420281D01*
X117026023Y-122420282D01*
X117085433Y-122432100D01*
X117085436Y-122432100D01*
X118825566Y-122432100D01*
X118884976Y-122420282D01*
X118884977Y-122420281D01*
X118884980Y-122420281D01*
X118952360Y-122375260D01*
X118997381Y-122307880D01*
X118997382Y-122307876D01*
X119009200Y-122248466D01*
X119009200Y-120616400D01*
X126802702Y-120616400D01*
X126823046Y-120822959D01*
X126830101Y-120846216D01*
X126883298Y-121021584D01*
X126883299Y-121021587D01*
X126883300Y-121021588D01*
X126883301Y-121021591D01*
X126981138Y-121204631D01*
X126981142Y-121204638D01*
X127112816Y-121365083D01*
X127273261Y-121496757D01*
X127273268Y-121496761D01*
X127456308Y-121594598D01*
X127456309Y-121594598D01*
X127456316Y-121594602D01*
X127654939Y-121654853D01*
X127654938Y-121654853D01*
X127672514Y-121656584D01*
X127861500Y-121675198D01*
X128068061Y-121654853D01*
X128266684Y-121594602D01*
X128449737Y-121496758D01*
X128610183Y-121365083D01*
X128741858Y-121204637D01*
X128839702Y-121021584D01*
X128899953Y-120822961D01*
X128920298Y-120616400D01*
X128899953Y-120409839D01*
X128839702Y-120211216D01*
X128838795Y-120209519D01*
X128741861Y-120028168D01*
X128741857Y-120028161D01*
X128610183Y-119867716D01*
X128449738Y-119736042D01*
X128449731Y-119736038D01*
X128266691Y-119638201D01*
X128266688Y-119638200D01*
X128266687Y-119638199D01*
X128266684Y-119638198D01*
X128068061Y-119577947D01*
X128068059Y-119577946D01*
X128068061Y-119577946D01*
X127861500Y-119557602D01*
X127654940Y-119577946D01*
X127557020Y-119607650D01*
X127456316Y-119638198D01*
X127456313Y-119638199D01*
X127456311Y-119638200D01*
X127456308Y-119638201D01*
X127273268Y-119736038D01*
X127273261Y-119736042D01*
X127112816Y-119867716D01*
X126981142Y-120028161D01*
X126981138Y-120028168D01*
X126883301Y-120211208D01*
X126883300Y-120211211D01*
X126883299Y-120211213D01*
X126883298Y-120211216D01*
X126870156Y-120254540D01*
X126823046Y-120409840D01*
X126802702Y-120616400D01*
X119009200Y-120616400D01*
X119009200Y-120508333D01*
X118997382Y-120448923D01*
X118997381Y-120448920D01*
X118971268Y-120409839D01*
X118952360Y-120381540D01*
X118907338Y-120351457D01*
X118884979Y-120336518D01*
X118884976Y-120336517D01*
X118825566Y-120324700D01*
X118825564Y-120324700D01*
X118384800Y-120324700D01*
X118317761Y-120305015D01*
X118272006Y-120252211D01*
X118260800Y-120200700D01*
X118260800Y-119524220D01*
X118280485Y-119457181D01*
X118297114Y-119436544D01*
X119657258Y-118076400D01*
X126802702Y-118076400D01*
X126823046Y-118282959D01*
X126823047Y-118282961D01*
X126883298Y-118481584D01*
X126883299Y-118481587D01*
X126883300Y-118481588D01*
X126883301Y-118481591D01*
X126981138Y-118664631D01*
X126981142Y-118664638D01*
X127112816Y-118825083D01*
X127273261Y-118956757D01*
X127273268Y-118956761D01*
X127456308Y-119054598D01*
X127456309Y-119054598D01*
X127456316Y-119054602D01*
X127654939Y-119114853D01*
X127654938Y-119114853D01*
X127673458Y-119116677D01*
X127861500Y-119135198D01*
X128068061Y-119114853D01*
X128266684Y-119054602D01*
X128449737Y-118956758D01*
X128610183Y-118825083D01*
X128741858Y-118664637D01*
X128839702Y-118481584D01*
X128899953Y-118282961D01*
X128920298Y-118076400D01*
X128899953Y-117869839D01*
X128839702Y-117671216D01*
X128741858Y-117488163D01*
X128741857Y-117488161D01*
X128610183Y-117327716D01*
X128449738Y-117196042D01*
X128449731Y-117196038D01*
X128266691Y-117098201D01*
X128266688Y-117098200D01*
X128266687Y-117098199D01*
X128266684Y-117098198D01*
X128068061Y-117037947D01*
X128068059Y-117037946D01*
X128068061Y-117037946D01*
X127861500Y-117017602D01*
X127654940Y-117037946D01*
X127537665Y-117073521D01*
X127456316Y-117098198D01*
X127456313Y-117098199D01*
X127456311Y-117098200D01*
X127456308Y-117098201D01*
X127273268Y-117196038D01*
X127273261Y-117196042D01*
X127112816Y-117327716D01*
X126981142Y-117488161D01*
X126981138Y-117488168D01*
X126883301Y-117671208D01*
X126883300Y-117671211D01*
X126823046Y-117869840D01*
X126802702Y-118076400D01*
X119657258Y-118076400D01*
X123303439Y-114430218D01*
X123364762Y-114396734D01*
X123391120Y-114393900D01*
X123489612Y-114393900D01*
X123513754Y-114386810D01*
X123629911Y-114352704D01*
X123752921Y-114273650D01*
X123848676Y-114163143D01*
X123909419Y-114030134D01*
X123930229Y-113885400D01*
X123909419Y-113740666D01*
X123848676Y-113607657D01*
X123752921Y-113497150D01*
X123752918Y-113497148D01*
X123752919Y-113497148D01*
X123629913Y-113418097D01*
X123629912Y-113418096D01*
X123629911Y-113418096D01*
X123547932Y-113394024D01*
X123489612Y-113376900D01*
X123489611Y-113376900D01*
X123343389Y-113376900D01*
X123343388Y-113376900D01*
X123203086Y-113418097D01*
X123080080Y-113497148D01*
X122984324Y-113607657D01*
X122984323Y-113607658D01*
X122923580Y-113740665D01*
X122902771Y-113885400D01*
X122902771Y-113885404D01*
X122904241Y-113895630D01*
X122894296Y-113964788D01*
X122869184Y-114000955D01*
X117711202Y-119158938D01*
X117711198Y-119158944D01*
X117676294Y-119219400D01*
X117676292Y-119219403D01*
X117671007Y-119228555D01*
X117671006Y-119228559D01*
X117650200Y-119306207D01*
X117650200Y-119306209D01*
X117650200Y-120200700D01*
X117630515Y-120267739D01*
X117577711Y-120313494D01*
X117526200Y-120324700D01*
X117085434Y-120324700D01*
X117026023Y-120336517D01*
X117026020Y-120336518D01*
X116958640Y-120381540D01*
X116913618Y-120448920D01*
X116913617Y-120448923D01*
X116901800Y-120508333D01*
X116901800Y-120508336D01*
X116901800Y-122248464D01*
X116901800Y-122248466D01*
X116901799Y-122248466D01*
X116016278Y-122248466D01*
X116164183Y-122127083D01*
X116295858Y-121966637D01*
X116393702Y-121783584D01*
X116453953Y-121584961D01*
X116474298Y-121378400D01*
X116453953Y-121171839D01*
X116393702Y-120973216D01*
X116325819Y-120846216D01*
X116295861Y-120790168D01*
X116295857Y-120790161D01*
X116164183Y-120629716D01*
X116003738Y-120498042D01*
X116003731Y-120498038D01*
X115820691Y-120400201D01*
X115820688Y-120400200D01*
X115820687Y-120400199D01*
X115820684Y-120400198D01*
X115622061Y-120339947D01*
X115622059Y-120339946D01*
X115622061Y-120339946D01*
X115415500Y-120319602D01*
X115208940Y-120339946D01*
X115106431Y-120371042D01*
X115010316Y-120400198D01*
X115010313Y-120400199D01*
X115010311Y-120400200D01*
X115010308Y-120400201D01*
X114827268Y-120498038D01*
X114827261Y-120498042D01*
X114666816Y-120629716D01*
X114535142Y-120790161D01*
X114535138Y-120790168D01*
X114437301Y-120973208D01*
X114437300Y-120973211D01*
X114377046Y-121171840D01*
X114356702Y-121378400D01*
X112791200Y-121378400D01*
X112791200Y-120381333D01*
X112779382Y-120321923D01*
X112779381Y-120321920D01*
X112773751Y-120313494D01*
X112734360Y-120254540D01*
X112689338Y-120224457D01*
X112666979Y-120209518D01*
X112666976Y-120209517D01*
X112607566Y-120197700D01*
X112607564Y-120197700D01*
X110867436Y-120197700D01*
X110867434Y-120197700D01*
X110808023Y-120209517D01*
X110808020Y-120209518D01*
X110740640Y-120254540D01*
X110695618Y-120321920D01*
X110695617Y-120321923D01*
X110683800Y-120381333D01*
X110683800Y-120381336D01*
X110683800Y-122121464D01*
X110683800Y-122121466D01*
X110683799Y-122121466D01*
X109798278Y-122121466D01*
X109946183Y-122000083D01*
X110077858Y-121839637D01*
X110175702Y-121656584D01*
X110235953Y-121457961D01*
X110256298Y-121251400D01*
X110235953Y-121044839D01*
X110175702Y-120846216D01*
X110077858Y-120663163D01*
X110077857Y-120663161D01*
X109946183Y-120502716D01*
X109785738Y-120371042D01*
X109785731Y-120371038D01*
X109602691Y-120273201D01*
X109602688Y-120273200D01*
X109602687Y-120273199D01*
X109602684Y-120273198D01*
X109404061Y-120212947D01*
X109404059Y-120212946D01*
X109404061Y-120212946D01*
X109197500Y-120192602D01*
X108990940Y-120212946D01*
X108873665Y-120248521D01*
X108792316Y-120273198D01*
X108792313Y-120273199D01*
X108792311Y-120273200D01*
X108792308Y-120273201D01*
X108609268Y-120371038D01*
X108609261Y-120371042D01*
X108448816Y-120502716D01*
X108317142Y-120663161D01*
X108317138Y-120663168D01*
X108219301Y-120846208D01*
X108219300Y-120846211D01*
X108159046Y-121044840D01*
X108138702Y-121251400D01*
X107043967Y-121251400D01*
X107043967Y-102935082D01*
X107718500Y-102935082D01*
X107718500Y-103587400D01*
X108618500Y-103587400D01*
X108618500Y-104087400D01*
X107718500Y-104087400D01*
X107718500Y-104739717D01*
X107750509Y-104941817D01*
X107813744Y-105136431D01*
X107906640Y-105318749D01*
X108026917Y-105484294D01*
X108026917Y-105484295D01*
X108171604Y-105628982D01*
X108337150Y-105749259D01*
X108519468Y-105842154D01*
X108714078Y-105905388D01*
X108768500Y-105914007D01*
X108768500Y-104853086D01*
X108772894Y-104857480D01*
X108864106Y-104910141D01*
X108965839Y-104937400D01*
X109071161Y-104937400D01*
X109172894Y-104910141D01*
X109264106Y-104857480D01*
X109268500Y-104853086D01*
X109268500Y-105914006D01*
X109322921Y-105905388D01*
X109517531Y-105842154D01*
X109526861Y-105837400D01*
X110560185Y-105837400D01*
X110578598Y-106024356D01*
X110633133Y-106204135D01*
X110721686Y-106369805D01*
X110721690Y-106369812D01*
X110840868Y-106515031D01*
X110986087Y-106634209D01*
X110986094Y-106634213D01*
X111151764Y-106722766D01*
X111151766Y-106722766D01*
X111151769Y-106722768D01*
X111331542Y-106777301D01*
X111331541Y-106777301D01*
X111348304Y-106778951D01*
X111518500Y-106795715D01*
X111705458Y-106777301D01*
X111885231Y-106722768D01*
X112050911Y-106634210D01*
X112196131Y-106515031D01*
X112315310Y-106369811D01*
X112403868Y-106204131D01*
X112458401Y-106024358D01*
X112476815Y-105837400D01*
X113060185Y-105837400D01*
X113078598Y-106024356D01*
X113133133Y-106204135D01*
X113221686Y-106369805D01*
X113221690Y-106369812D01*
X113340868Y-106515031D01*
X113486087Y-106634209D01*
X113486094Y-106634213D01*
X113651764Y-106722766D01*
X113651766Y-106722766D01*
X113651769Y-106722768D01*
X113831542Y-106777301D01*
X113831541Y-106777301D01*
X113848304Y-106778951D01*
X114018500Y-106795715D01*
X114205458Y-106777301D01*
X114385231Y-106722768D01*
X114550911Y-106634210D01*
X114696131Y-106515031D01*
X114815310Y-106369811D01*
X114903868Y-106204131D01*
X114958401Y-106024358D01*
X114976815Y-105837400D01*
X114976815Y-105837399D01*
X115263725Y-105837399D01*
X115263725Y-105837400D01*
X115282787Y-106055284D01*
X115282789Y-106055294D01*
X115339394Y-106266550D01*
X115339398Y-106266559D01*
X115431833Y-106464787D01*
X115475374Y-106526971D01*
X116035537Y-105966808D01*
X116052575Y-106030393D01*
X116118401Y-106144407D01*
X116211493Y-106237499D01*
X116325507Y-106303325D01*
X116389090Y-106320362D01*
X115828927Y-106880524D01*
X115891112Y-106924066D01*
X116089340Y-107016501D01*
X116089349Y-107016505D01*
X116300605Y-107073110D01*
X116300615Y-107073112D01*
X116518499Y-107092175D01*
X116518501Y-107092175D01*
X116736384Y-107073112D01*
X116736394Y-107073110D01*
X116947650Y-107016505D01*
X116947664Y-107016500D01*
X117145883Y-106924069D01*
X117145885Y-106924068D01*
X117208071Y-106880524D01*
X116647910Y-106320362D01*
X116711493Y-106303325D01*
X116825507Y-106237499D01*
X116918599Y-106144407D01*
X116984425Y-106030393D01*
X117001462Y-105966809D01*
X117561624Y-106526970D01*
X117605168Y-106464785D01*
X117605169Y-106464783D01*
X117697600Y-106266564D01*
X117697605Y-106266550D01*
X117754210Y-106055294D01*
X117754212Y-106055284D01*
X117773275Y-105837400D01*
X117773275Y-105837399D01*
X117754212Y-105619515D01*
X117754211Y-105619509D01*
X117710636Y-105456885D01*
X117712299Y-105387035D01*
X117751461Y-105329172D01*
X117815690Y-105301668D01*
X117884592Y-105313254D01*
X117930729Y-105351905D01*
X118026916Y-105484294D01*
X118171604Y-105628982D01*
X118337150Y-105749259D01*
X118519468Y-105842154D01*
X118714078Y-105905388D01*
X118768500Y-105914007D01*
X118768500Y-104853086D01*
X118772894Y-104857480D01*
X118864106Y-104910141D01*
X118965839Y-104937400D01*
X119071161Y-104937400D01*
X119172894Y-104910141D01*
X119264106Y-104857480D01*
X119268500Y-104853086D01*
X119268500Y-105914006D01*
X119322921Y-105905388D01*
X119517531Y-105842154D01*
X119699849Y-105749259D01*
X119865394Y-105628982D01*
X119865395Y-105628982D01*
X120010082Y-105484295D01*
X120010087Y-105484289D01*
X120092882Y-105370333D01*
X120148212Y-105327667D01*
X120217825Y-105321688D01*
X120279620Y-105354294D01*
X120313978Y-105415133D01*
X120317200Y-105443218D01*
X120317200Y-110572793D01*
X120323610Y-110596716D01*
X120335660Y-110641687D01*
X120335663Y-110641698D01*
X120335664Y-110641700D01*
X120338006Y-110650441D01*
X120378200Y-110720059D01*
X120378202Y-110720061D01*
X121017481Y-111359340D01*
X121050966Y-111420663D01*
X121053800Y-111447021D01*
X121053800Y-111509984D01*
X121034115Y-111577023D01*
X121023513Y-111591187D01*
X120926924Y-111702656D01*
X120926923Y-111702658D01*
X120866180Y-111835665D01*
X120845371Y-111980400D01*
X120866180Y-112125134D01*
X120916071Y-112234378D01*
X120926924Y-112258143D01*
X121022679Y-112368650D01*
X121022681Y-112368651D01*
X121022680Y-112368651D01*
X121125055Y-112434443D01*
X121145689Y-112447704D01*
X121256827Y-112480337D01*
X121285988Y-112488900D01*
X121285989Y-112488900D01*
X121432212Y-112488900D01*
X121456354Y-112481810D01*
X121572511Y-112447704D01*
X121695521Y-112368650D01*
X121791276Y-112258143D01*
X121852019Y-112125134D01*
X121872829Y-111980400D01*
X121852019Y-111835666D01*
X121846143Y-111822800D01*
X121813163Y-111750584D01*
X121791276Y-111702657D01*
X121695521Y-111592150D01*
X121694687Y-111591187D01*
X121665662Y-111527631D01*
X121664400Y-111509984D01*
X121664400Y-111229009D01*
X121664400Y-111229007D01*
X121643594Y-111151359D01*
X121638596Y-111142703D01*
X121638595Y-111142698D01*
X121638595Y-111142699D01*
X121603404Y-111081746D01*
X121603403Y-111081745D01*
X121603401Y-111081741D01*
X120964119Y-110442459D01*
X120930634Y-110381136D01*
X120927800Y-110354778D01*
X120927800Y-105173220D01*
X120947485Y-105106181D01*
X120964114Y-105085543D01*
X121389120Y-104660538D01*
X121450442Y-104627054D01*
X121520134Y-104632038D01*
X121576067Y-104673910D01*
X121600484Y-104739374D01*
X121600800Y-104748220D01*
X121600800Y-106373464D01*
X121600800Y-106373466D01*
X121600799Y-106373466D01*
X121612617Y-106432876D01*
X121612618Y-106432879D01*
X121612619Y-106432880D01*
X121657640Y-106500260D01*
X121697617Y-106526971D01*
X121725020Y-106545281D01*
X121725023Y-106545282D01*
X121784433Y-106557100D01*
X121784436Y-106557100D01*
X123524566Y-106557100D01*
X123583976Y-106545282D01*
X123583977Y-106545281D01*
X123583980Y-106545281D01*
X123651360Y-106500260D01*
X123696381Y-106432880D01*
X123708200Y-106373464D01*
X123708200Y-104633336D01*
X123708200Y-104633333D01*
X123696382Y-104573923D01*
X123696381Y-104573920D01*
X123687751Y-104561004D01*
X123651360Y-104506540D01*
X123583980Y-104461519D01*
X123583979Y-104461518D01*
X123583976Y-104461517D01*
X123524566Y-104449700D01*
X123524564Y-104449700D01*
X121899320Y-104449700D01*
X121832281Y-104430015D01*
X121786526Y-104377211D01*
X121776582Y-104308053D01*
X121805607Y-104244497D01*
X121811639Y-104238019D01*
X121945728Y-104103930D01*
X122092233Y-103957424D01*
X122153554Y-103923941D01*
X122223245Y-103928925D01*
X122238365Y-103935748D01*
X122249316Y-103941602D01*
X122447939Y-104001853D01*
X122447938Y-104001853D01*
X122466458Y-104003677D01*
X122654500Y-104022198D01*
X122861061Y-104001853D01*
X123059684Y-103941602D01*
X123242737Y-103843758D01*
X123403183Y-103712083D01*
X123534858Y-103551637D01*
X123632702Y-103368584D01*
X123692953Y-103169961D01*
X123713298Y-102963400D01*
X123692953Y-102756839D01*
X123632702Y-102558216D01*
X123618768Y-102532147D01*
X123534861Y-102375168D01*
X123534857Y-102375161D01*
X123403183Y-102214716D01*
X123242738Y-102083042D01*
X123242731Y-102083038D01*
X123059691Y-101985201D01*
X123059688Y-101985200D01*
X123059687Y-101985199D01*
X123059684Y-101985198D01*
X122861061Y-101924947D01*
X122861059Y-101924946D01*
X122861061Y-101924946D01*
X122654500Y-101904602D01*
X122447940Y-101924946D01*
X122320987Y-101963456D01*
X122249316Y-101985198D01*
X122249314Y-101985198D01*
X122249314Y-101985199D01*
X122238362Y-101991053D01*
X122169959Y-102005292D01*
X122104716Y-101980289D01*
X122092232Y-101969373D01*
X121063961Y-100941102D01*
X121063959Y-100941100D01*
X120994341Y-100900906D01*
X120916693Y-100880100D01*
X120916690Y-100880100D01*
X120346679Y-100880100D01*
X120279640Y-100860415D01*
X120233885Y-100807611D01*
X120227701Y-100791032D01*
X120226418Y-100786665D01*
X120165676Y-100653657D01*
X120069921Y-100543150D01*
X120069918Y-100543148D01*
X120069919Y-100543148D01*
X119946913Y-100464097D01*
X119946912Y-100464096D01*
X119946911Y-100464096D01*
X119864932Y-100440024D01*
X119806612Y-100422900D01*
X119806611Y-100422900D01*
X119660389Y-100422900D01*
X119660388Y-100422900D01*
X119520086Y-100464097D01*
X119397080Y-100543148D01*
X119301324Y-100653657D01*
X119301323Y-100653658D01*
X119240580Y-100786665D01*
X119219771Y-100931400D01*
X119240580Y-101076134D01*
X119301323Y-101209141D01*
X119301324Y-101209143D01*
X119397079Y-101319650D01*
X119397081Y-101319651D01*
X119397080Y-101319651D01*
X119499455Y-101385443D01*
X119520089Y-101398704D01*
X119631227Y-101431337D01*
X119660388Y-101439900D01*
X119784482Y-101439900D01*
X119846480Y-101456512D01*
X119869658Y-101469894D01*
X119890464Y-101475468D01*
X119947307Y-101490700D01*
X120698679Y-101490700D01*
X120765718Y-101510385D01*
X120786360Y-101527019D01*
X121660473Y-102401132D01*
X121693958Y-102462455D01*
X121688974Y-102532147D01*
X121682153Y-102547262D01*
X121676299Y-102558214D01*
X121616046Y-102756840D01*
X121595702Y-102963400D01*
X121616046Y-103169959D01*
X121616047Y-103169961D01*
X121676298Y-103368584D01*
X121676299Y-103368587D01*
X121676300Y-103368588D01*
X121676302Y-103368594D01*
X121682151Y-103379537D01*
X121696391Y-103447940D01*
X121671388Y-103513183D01*
X121660472Y-103525667D01*
X120530181Y-104655959D01*
X120468858Y-104689444D01*
X120399166Y-104684460D01*
X120343233Y-104642588D01*
X120318816Y-104577124D01*
X120318500Y-104568278D01*
X120318500Y-104087400D01*
X119418500Y-104087400D01*
X119418500Y-103587400D01*
X120318500Y-103587400D01*
X120318500Y-102935082D01*
X120286490Y-102732982D01*
X120223255Y-102538368D01*
X120130359Y-102356050D01*
X120010082Y-102190505D01*
X120010082Y-102190504D01*
X119865395Y-102045817D01*
X119699849Y-101925540D01*
X119517529Y-101832644D01*
X119322913Y-101769409D01*
X119268500Y-101760790D01*
X119268500Y-102821714D01*
X119264106Y-102817320D01*
X119172894Y-102764659D01*
X119071161Y-102737400D01*
X118965839Y-102737400D01*
X118864106Y-102764659D01*
X118772894Y-102817320D01*
X118768500Y-102821714D01*
X118768500Y-101760790D01*
X118714086Y-101769409D01*
X118519470Y-101832644D01*
X118337150Y-101925540D01*
X118171605Y-102045817D01*
X118171604Y-102045817D01*
X118026917Y-102190504D01*
X118026917Y-102190505D01*
X117906640Y-102356050D01*
X117813744Y-102538368D01*
X117750509Y-102732982D01*
X117718500Y-102935082D01*
X117718500Y-103587400D01*
X118618500Y-103587400D01*
X118618500Y-104087400D01*
X117718500Y-104087400D01*
X117718500Y-104739717D01*
X117750510Y-104941818D01*
X117750510Y-104941821D01*
X117782542Y-105040403D01*
X117784537Y-105110244D01*
X117748457Y-105170077D01*
X117685756Y-105200905D01*
X117616342Y-105192940D01*
X117563035Y-105149843D01*
X117561624Y-105147827D01*
X117001462Y-105707989D01*
X116984425Y-105644407D01*
X116918599Y-105530393D01*
X116825507Y-105437301D01*
X116711493Y-105371475D01*
X116647909Y-105354437D01*
X117208071Y-104794274D01*
X117145887Y-104750733D01*
X116947659Y-104658298D01*
X116947650Y-104658294D01*
X116736394Y-104601689D01*
X116736384Y-104601687D01*
X116518501Y-104582625D01*
X116518499Y-104582625D01*
X116300615Y-104601687D01*
X116300605Y-104601689D01*
X116089349Y-104658294D01*
X116089340Y-104658298D01*
X115891113Y-104750733D01*
X115828928Y-104794274D01*
X116389091Y-105354437D01*
X116325507Y-105371475D01*
X116211493Y-105437301D01*
X116118401Y-105530393D01*
X116052575Y-105644407D01*
X116035537Y-105707991D01*
X115475374Y-105147828D01*
X115431833Y-105210013D01*
X115339398Y-105408240D01*
X115339394Y-105408249D01*
X115282789Y-105619505D01*
X115282787Y-105619515D01*
X115263725Y-105837399D01*
X114976815Y-105837399D01*
X114958401Y-105650442D01*
X114903868Y-105470669D01*
X114903866Y-105470666D01*
X114903866Y-105470664D01*
X114815313Y-105304994D01*
X114815309Y-105304987D01*
X114696131Y-105159768D01*
X114550912Y-105040590D01*
X114550905Y-105040586D01*
X114385235Y-104952033D01*
X114295344Y-104924765D01*
X114205458Y-104897499D01*
X114205456Y-104897498D01*
X114205458Y-104897498D01*
X114018500Y-104879085D01*
X113831543Y-104897498D01*
X113651764Y-104952033D01*
X113486094Y-105040586D01*
X113486087Y-105040590D01*
X113340868Y-105159768D01*
X113221690Y-105304987D01*
X113221686Y-105304994D01*
X113133133Y-105470664D01*
X113078598Y-105650443D01*
X113060185Y-105837400D01*
X112476815Y-105837400D01*
X112458401Y-105650442D01*
X112403868Y-105470669D01*
X112403866Y-105470666D01*
X112403866Y-105470664D01*
X112315313Y-105304994D01*
X112315309Y-105304987D01*
X112196131Y-105159768D01*
X112050912Y-105040590D01*
X112050905Y-105040586D01*
X111885235Y-104952033D01*
X111795344Y-104924765D01*
X111705458Y-104897499D01*
X111705456Y-104897498D01*
X111705458Y-104897498D01*
X111518500Y-104879085D01*
X111331543Y-104897498D01*
X111151764Y-104952033D01*
X110986094Y-105040586D01*
X110986087Y-105040590D01*
X110840868Y-105159768D01*
X110721690Y-105304987D01*
X110721686Y-105304994D01*
X110633133Y-105470664D01*
X110578598Y-105650443D01*
X110560185Y-105837400D01*
X109526861Y-105837400D01*
X109699849Y-105749259D01*
X109865394Y-105628982D01*
X109865395Y-105628982D01*
X110010082Y-105484295D01*
X110010082Y-105484294D01*
X110130359Y-105318749D01*
X110223255Y-105136431D01*
X110286490Y-104941817D01*
X110318500Y-104739717D01*
X110318500Y-104087400D01*
X109418500Y-104087400D01*
X109418500Y-103587400D01*
X110318500Y-103587400D01*
X110318500Y-102935082D01*
X110286490Y-102732982D01*
X110223255Y-102538368D01*
X110130359Y-102356050D01*
X110010082Y-102190505D01*
X110010082Y-102190504D01*
X109865395Y-102045817D01*
X109699849Y-101925540D01*
X109517529Y-101832644D01*
X109322913Y-101769409D01*
X109268500Y-101760790D01*
X109268500Y-102821714D01*
X109264106Y-102817320D01*
X109172894Y-102764659D01*
X109071161Y-102737400D01*
X108965839Y-102737400D01*
X108864106Y-102764659D01*
X108772894Y-102817320D01*
X108768500Y-102821714D01*
X108768500Y-101760790D01*
X108714086Y-101769409D01*
X108519470Y-101832644D01*
X108337150Y-101925540D01*
X108171605Y-102045817D01*
X108171604Y-102045817D01*
X108026917Y-102190504D01*
X108026917Y-102190505D01*
X107906640Y-102356050D01*
X107813744Y-102538368D01*
X107750509Y-102732982D01*
X107718500Y-102935082D01*
X107043967Y-102935082D01*
X107043967Y-99562927D01*
X107063652Y-99495888D01*
X107116456Y-99450133D01*
X107123797Y-99448716D01*
X108063380Y-98509133D01*
X108158296Y-98639775D01*
X108286292Y-98767771D01*
X108416932Y-98862686D01*
X107486234Y-99793383D01*
X107486235Y-99793385D01*
X107720084Y-99963285D01*
X107720102Y-99963297D01*
X107990245Y-100111809D01*
X107990253Y-100111813D01*
X108276873Y-100225293D01*
X108575475Y-100301961D01*
X108575484Y-100301963D01*
X108881314Y-100340599D01*
X108881328Y-100340600D01*
X109189606Y-100340600D01*
X109189619Y-100340599D01*
X109495449Y-100301963D01*
X109495458Y-100301961D01*
X109794060Y-100225293D01*
X110080680Y-100111813D01*
X110080688Y-100111809D01*
X110350831Y-99963297D01*
X110350849Y-99963285D01*
X110584697Y-99793385D01*
X110584698Y-99793383D01*
X109654000Y-98862686D01*
X109784642Y-98767771D01*
X109912638Y-98639775D01*
X110007553Y-98509133D01*
X110935666Y-99437247D01*
X111021481Y-99333516D01*
X111186661Y-99073232D01*
X111186664Y-99073226D01*
X111260837Y-98915600D01*
X115871738Y-98915600D01*
X115892547Y-99060334D01*
X115953290Y-99193341D01*
X115953291Y-99193343D01*
X116049046Y-99303850D01*
X116049048Y-99303851D01*
X116049047Y-99303851D01*
X116095218Y-99333523D01*
X116172056Y-99382904D01*
X116283194Y-99415537D01*
X116312355Y-99424100D01*
X116312356Y-99424100D01*
X116458579Y-99424100D01*
X116486021Y-99416042D01*
X116598878Y-99382904D01*
X116721888Y-99303850D01*
X116770718Y-99247496D01*
X116829497Y-99209723D01*
X116864431Y-99204700D01*
X120851079Y-99204700D01*
X120918118Y-99224385D01*
X120938760Y-99241019D01*
X124014681Y-102316940D01*
X124048166Y-102378263D01*
X124051000Y-102404621D01*
X124051000Y-107565778D01*
X124031315Y-107632817D01*
X124014681Y-107653459D01*
X123348767Y-108319372D01*
X123287444Y-108352857D01*
X123217752Y-108347873D01*
X123202637Y-108341051D01*
X123191694Y-108335202D01*
X123191688Y-108335200D01*
X123191687Y-108335199D01*
X123191684Y-108335198D01*
X122993061Y-108274947D01*
X122993059Y-108274946D01*
X122993061Y-108274946D01*
X122786500Y-108254602D01*
X122579940Y-108274946D01*
X122462665Y-108310521D01*
X122381316Y-108335198D01*
X122381313Y-108335199D01*
X122381311Y-108335200D01*
X122381308Y-108335201D01*
X122198268Y-108433038D01*
X122198261Y-108433042D01*
X122037816Y-108564716D01*
X121906142Y-108725161D01*
X121906138Y-108725168D01*
X121808301Y-108908208D01*
X121808300Y-108908211D01*
X121748046Y-109106840D01*
X121727702Y-109313400D01*
X121748046Y-109519959D01*
X121764339Y-109573670D01*
X121808298Y-109718584D01*
X121808299Y-109718587D01*
X121808300Y-109718588D01*
X121808301Y-109718591D01*
X121906138Y-109901631D01*
X121906142Y-109901638D01*
X122037816Y-110062083D01*
X122198261Y-110193757D01*
X122198268Y-110193761D01*
X122381308Y-110291598D01*
X122381309Y-110291598D01*
X122381316Y-110291602D01*
X122393194Y-110295205D01*
X122451631Y-110333499D01*
X122480090Y-110397310D01*
X122481200Y-110413865D01*
X122481200Y-112305577D01*
X122461515Y-112372616D01*
X122444881Y-112393258D01*
X122259558Y-112578581D01*
X122198235Y-112612066D01*
X122171877Y-112614900D01*
X122073388Y-112614900D01*
X121933086Y-112656097D01*
X121810080Y-112735148D01*
X121714324Y-112845657D01*
X121714323Y-112845658D01*
X121653580Y-112978665D01*
X121632771Y-113123400D01*
X121653580Y-113268134D01*
X121712203Y-113396499D01*
X121714324Y-113401143D01*
X121810079Y-113511650D01*
X121810081Y-113511651D01*
X121810080Y-113511651D01*
X121898679Y-113568590D01*
X121933089Y-113590704D01*
X122034738Y-113620551D01*
X122073388Y-113631900D01*
X122073389Y-113631900D01*
X122219612Y-113631900D01*
X122243754Y-113624810D01*
X122359911Y-113590704D01*
X122482921Y-113511650D01*
X122578676Y-113401143D01*
X122639419Y-113268134D01*
X122660229Y-113123400D01*
X122658758Y-113113171D01*
X122668701Y-113044015D01*
X122693815Y-113007843D01*
X122722993Y-112978665D01*
X122955261Y-112746399D01*
X126530864Y-112746399D01*
X126530864Y-112746400D01*
X127428488Y-112746400D01*
X127395575Y-112803407D01*
X127361500Y-112930574D01*
X127361500Y-113062226D01*
X127395575Y-113189393D01*
X127428488Y-113246400D01*
X126530864Y-113246400D01*
X126588067Y-113459886D01*
X126588070Y-113459892D01*
X126687899Y-113673978D01*
X126823394Y-113867482D01*
X126990417Y-114034505D01*
X127183921Y-114170000D01*
X127398007Y-114269829D01*
X127398016Y-114269833D01*
X127514297Y-114300990D01*
X127573958Y-114337355D01*
X127604487Y-114400201D01*
X127596193Y-114469577D01*
X127551707Y-114523455D01*
X127518201Y-114539425D01*
X127456315Y-114558198D01*
X127456308Y-114558201D01*
X127273268Y-114656038D01*
X127273261Y-114656042D01*
X127112816Y-114787716D01*
X126981142Y-114948161D01*
X126981138Y-114948168D01*
X126883301Y-115131208D01*
X126883300Y-115131211D01*
X126823046Y-115329840D01*
X126802702Y-115536400D01*
X126823046Y-115742959D01*
X126823047Y-115742961D01*
X126883298Y-115941584D01*
X126883299Y-115941587D01*
X126883300Y-115941588D01*
X126883301Y-115941591D01*
X126981138Y-116124631D01*
X126981142Y-116124638D01*
X127112816Y-116285083D01*
X127273261Y-116416757D01*
X127273268Y-116416761D01*
X127456308Y-116514598D01*
X127456309Y-116514598D01*
X127456316Y-116514602D01*
X127654939Y-116574853D01*
X127654938Y-116574853D01*
X127673458Y-116576677D01*
X127861500Y-116595198D01*
X128068061Y-116574853D01*
X128266684Y-116514602D01*
X128433569Y-116425400D01*
X145852702Y-116425400D01*
X145873046Y-116631959D01*
X145873047Y-116631961D01*
X145933298Y-116830584D01*
X145933299Y-116830587D01*
X145933300Y-116830588D01*
X145933301Y-116830591D01*
X146031138Y-117013631D01*
X146031142Y-117013638D01*
X146162816Y-117174083D01*
X146323261Y-117305757D01*
X146323268Y-117305761D01*
X146506308Y-117403598D01*
X146506309Y-117403598D01*
X146506316Y-117403602D01*
X146704939Y-117463853D01*
X146704938Y-117463853D01*
X146723458Y-117465677D01*
X146911500Y-117484198D01*
X147118061Y-117463853D01*
X147316684Y-117403602D01*
X147499737Y-117305758D01*
X147660183Y-117174083D01*
X147791858Y-117013637D01*
X147889702Y-116830584D01*
X147949953Y-116631961D01*
X147970298Y-116425400D01*
X147949953Y-116218839D01*
X147889702Y-116020216D01*
X147847676Y-115941591D01*
X147791861Y-115837168D01*
X147791857Y-115837161D01*
X147660183Y-115676716D01*
X147499738Y-115545042D01*
X147499731Y-115545038D01*
X147316691Y-115447201D01*
X147316688Y-115447200D01*
X147316687Y-115447199D01*
X147316684Y-115447198D01*
X147118061Y-115386947D01*
X147118059Y-115386946D01*
X147118061Y-115386946D01*
X146911500Y-115366602D01*
X146704940Y-115386946D01*
X146587665Y-115422521D01*
X146506316Y-115447198D01*
X146506313Y-115447199D01*
X146506311Y-115447200D01*
X146506308Y-115447201D01*
X146323268Y-115545038D01*
X146323261Y-115545042D01*
X146162816Y-115676716D01*
X146031142Y-115837161D01*
X146031138Y-115837168D01*
X145933301Y-116020208D01*
X145933300Y-116020211D01*
X145873046Y-116218840D01*
X145852702Y-116425400D01*
X128433569Y-116425400D01*
X128449737Y-116416758D01*
X128610183Y-116285083D01*
X128741858Y-116124637D01*
X128839702Y-115941584D01*
X128899953Y-115742961D01*
X128920298Y-115536400D01*
X128899953Y-115329839D01*
X128839702Y-115131216D01*
X128741858Y-114948163D01*
X128741857Y-114948161D01*
X128610183Y-114787716D01*
X128449738Y-114656042D01*
X128449731Y-114656038D01*
X128266691Y-114558201D01*
X128266685Y-114558198D01*
X128266684Y-114558198D01*
X128266681Y-114558197D01*
X128204799Y-114539425D01*
X128146361Y-114501128D01*
X128117904Y-114437315D01*
X128128465Y-114368248D01*
X128174690Y-114315855D01*
X128208702Y-114300990D01*
X128324983Y-114269833D01*
X128324992Y-114269829D01*
X128539078Y-114170000D01*
X128732582Y-114034505D01*
X128868519Y-113898569D01*
X128929842Y-113865084D01*
X128999534Y-113870068D01*
X129055467Y-113911940D01*
X129079884Y-113977404D01*
X129080200Y-113986250D01*
X129080200Y-114114352D01*
X129068995Y-114165863D01*
X129019580Y-114274066D01*
X128998771Y-114418800D01*
X129019580Y-114563534D01*
X129061826Y-114656038D01*
X129080324Y-114696543D01*
X129176079Y-114807050D01*
X129176081Y-114807051D01*
X129176080Y-114807051D01*
X129264069Y-114863598D01*
X129299089Y-114886104D01*
X129410227Y-114918737D01*
X129439388Y-114927300D01*
X129439389Y-114927300D01*
X129585612Y-114927300D01*
X129609754Y-114920210D01*
X129725911Y-114886104D01*
X129848921Y-114807050D01*
X129944676Y-114696543D01*
X130005419Y-114563534D01*
X130026229Y-114418800D01*
X130005419Y-114274066D01*
X130005229Y-114273651D01*
X129954761Y-114163141D01*
X129944676Y-114141057D01*
X129848921Y-114030550D01*
X129848274Y-114030134D01*
X129747760Y-113965537D01*
X129702005Y-113912733D01*
X129690800Y-113861222D01*
X129690800Y-111015221D01*
X129710485Y-110948182D01*
X129727119Y-110927540D01*
X133565040Y-107089619D01*
X133626363Y-107056134D01*
X133652721Y-107053300D01*
X142217479Y-107053300D01*
X142284518Y-107072985D01*
X142330273Y-107125789D01*
X142340217Y-107194947D01*
X142311192Y-107258503D01*
X142305160Y-107264981D01*
X142120601Y-107449539D01*
X142120599Y-107449542D01*
X142091874Y-107499297D01*
X142091872Y-107499299D01*
X142080406Y-107519156D01*
X142080406Y-107519157D01*
X142059600Y-107596807D01*
X142059600Y-112234378D01*
X142039915Y-112301417D01*
X142023281Y-112322059D01*
X140776749Y-113568590D01*
X140724005Y-113599885D01*
X140653641Y-113620547D01*
X140653632Y-113620551D01*
X140530627Y-113699601D01*
X140434871Y-113810110D01*
X140434870Y-113810111D01*
X140374127Y-113943118D01*
X140353318Y-114087853D01*
X140374127Y-114232587D01*
X140428983Y-114352704D01*
X140434871Y-114365596D01*
X140530626Y-114476103D01*
X140530628Y-114476104D01*
X140530627Y-114476104D01*
X140604307Y-114523455D01*
X140653636Y-114555157D01*
X140764774Y-114587790D01*
X140793935Y-114596353D01*
X140793936Y-114596353D01*
X140940159Y-114596353D01*
X140964301Y-114589263D01*
X141080458Y-114555157D01*
X141203468Y-114476103D01*
X141299223Y-114365596D01*
X141359966Y-114232587D01*
X141380776Y-114087853D01*
X141359966Y-113943119D01*
X141359963Y-113943113D01*
X141359307Y-113940876D01*
X141359306Y-113938533D01*
X141358704Y-113934340D01*
X141359306Y-113934253D01*
X141359304Y-113885400D01*
X145852702Y-113885400D01*
X145873046Y-114091959D01*
X145873047Y-114091961D01*
X145933298Y-114290584D01*
X145933299Y-114290587D01*
X145933300Y-114290588D01*
X145933301Y-114290591D01*
X146031138Y-114473631D01*
X146031142Y-114473638D01*
X146162816Y-114634083D01*
X146323261Y-114765757D01*
X146323268Y-114765761D01*
X146506308Y-114863598D01*
X146506309Y-114863598D01*
X146506316Y-114863602D01*
X146704939Y-114923853D01*
X146704938Y-114923853D01*
X146723458Y-114925677D01*
X146911500Y-114944198D01*
X147118061Y-114923853D01*
X147316684Y-114863602D01*
X147499737Y-114765758D01*
X147660183Y-114634083D01*
X147791858Y-114473637D01*
X147889702Y-114290584D01*
X147949953Y-114091961D01*
X147970298Y-113885400D01*
X147949953Y-113678839D01*
X147889702Y-113480216D01*
X147878839Y-113459892D01*
X147791861Y-113297168D01*
X147791857Y-113297161D01*
X147660183Y-113136716D01*
X147499738Y-113005042D01*
X147499731Y-113005038D01*
X147316691Y-112907201D01*
X147316688Y-112907200D01*
X147316687Y-112907199D01*
X147316684Y-112907198D01*
X147118061Y-112846947D01*
X147118059Y-112846946D01*
X147118061Y-112846946D01*
X146911500Y-112826602D01*
X146704940Y-112846946D01*
X146587665Y-112882521D01*
X146506316Y-112907198D01*
X146506313Y-112907199D01*
X146506311Y-112907200D01*
X146506308Y-112907201D01*
X146323268Y-113005038D01*
X146323261Y-113005042D01*
X146162816Y-113136716D01*
X146031142Y-113297161D01*
X146031138Y-113297168D01*
X145933301Y-113480208D01*
X145933300Y-113480211D01*
X145933299Y-113480213D01*
X145933298Y-113480216D01*
X145908621Y-113561565D01*
X145873046Y-113678840D01*
X145852702Y-113885400D01*
X141359304Y-113885400D01*
X141359304Y-113871006D01*
X141390600Y-113818257D01*
X142609200Y-112599659D01*
X142649394Y-112530041D01*
X142651122Y-112523593D01*
X142670200Y-112452393D01*
X142670200Y-111345400D01*
X145852702Y-111345400D01*
X145873046Y-111551959D01*
X145873047Y-111551961D01*
X145933298Y-111750584D01*
X145933299Y-111750587D01*
X145933300Y-111750588D01*
X145933301Y-111750591D01*
X146031138Y-111933631D01*
X146031142Y-111933638D01*
X146162816Y-112094083D01*
X146323261Y-112225757D01*
X146323268Y-112225761D01*
X146506308Y-112323598D01*
X146506309Y-112323598D01*
X146506316Y-112323602D01*
X146704939Y-112383853D01*
X146704938Y-112383853D01*
X146723458Y-112385677D01*
X146911500Y-112404198D01*
X147118061Y-112383853D01*
X147316684Y-112323602D01*
X147499737Y-112225758D01*
X147660183Y-112094083D01*
X147791858Y-111933637D01*
X147889702Y-111750584D01*
X147949953Y-111551961D01*
X147970298Y-111345400D01*
X147949953Y-111138839D01*
X147889702Y-110940216D01*
X147882927Y-110927540D01*
X147791861Y-110757168D01*
X147791857Y-110757161D01*
X147660183Y-110596716D01*
X147499738Y-110465042D01*
X147499731Y-110465038D01*
X147316691Y-110367201D01*
X147316688Y-110367200D01*
X147316687Y-110367199D01*
X147316684Y-110367198D01*
X147118061Y-110306947D01*
X147118059Y-110306946D01*
X147118061Y-110306946D01*
X146911500Y-110286602D01*
X146704940Y-110306946D01*
X146587665Y-110342521D01*
X146506316Y-110367198D01*
X146506313Y-110367199D01*
X146506311Y-110367200D01*
X146506308Y-110367201D01*
X146323268Y-110465038D01*
X146323261Y-110465042D01*
X146162816Y-110596716D01*
X146031142Y-110757161D01*
X146031138Y-110757168D01*
X145933301Y-110940208D01*
X145933300Y-110940211D01*
X145933299Y-110940213D01*
X145933298Y-110940216D01*
X145919983Y-110984110D01*
X145873046Y-111138840D01*
X145852702Y-111345400D01*
X142670200Y-111345400D01*
X142670200Y-107814821D01*
X142689885Y-107747782D01*
X142706519Y-107727140D01*
X144418260Y-106015399D01*
X145580864Y-106015399D01*
X145580864Y-106015400D01*
X146478488Y-106015400D01*
X146445575Y-106072407D01*
X146411500Y-106199574D01*
X146411500Y-106331226D01*
X146445575Y-106458393D01*
X146478488Y-106515400D01*
X145580864Y-106515400D01*
X145638067Y-106728886D01*
X145638070Y-106728892D01*
X145737899Y-106942978D01*
X145873394Y-107136482D01*
X146040417Y-107303505D01*
X146233921Y-107439000D01*
X146448007Y-107538829D01*
X146448016Y-107538833D01*
X146564297Y-107569990D01*
X146623958Y-107606355D01*
X146654487Y-107669201D01*
X146646193Y-107738577D01*
X146601707Y-107792455D01*
X146568201Y-107808425D01*
X146506315Y-107827198D01*
X146506308Y-107827201D01*
X146323268Y-107925038D01*
X146323261Y-107925042D01*
X146162816Y-108056716D01*
X146031142Y-108217161D01*
X146031138Y-108217168D01*
X145933301Y-108400208D01*
X145933300Y-108400211D01*
X145933299Y-108400213D01*
X145933298Y-108400216D01*
X145920612Y-108442038D01*
X145873046Y-108598840D01*
X145852702Y-108805400D01*
X145873046Y-109011959D01*
X145873047Y-109011961D01*
X145933298Y-109210584D01*
X145933299Y-109210587D01*
X145933300Y-109210588D01*
X145933301Y-109210591D01*
X146031138Y-109393631D01*
X146031142Y-109393638D01*
X146162816Y-109554083D01*
X146323261Y-109685757D01*
X146323268Y-109685761D01*
X146506308Y-109783598D01*
X146506309Y-109783598D01*
X146506316Y-109783602D01*
X146704939Y-109843853D01*
X146704938Y-109843853D01*
X146723458Y-109845677D01*
X146911500Y-109864198D01*
X147118061Y-109843853D01*
X147192083Y-109821399D01*
X151580643Y-109821399D01*
X151580643Y-109821400D01*
X151601225Y-110043522D01*
X151601225Y-110043524D01*
X151601226Y-110043527D01*
X151662274Y-110258090D01*
X151662275Y-110258093D01*
X151761705Y-110457775D01*
X151761710Y-110457783D01*
X151896145Y-110635804D01*
X152061000Y-110786088D01*
X152061002Y-110786090D01*
X152250662Y-110903522D01*
X152250668Y-110903525D01*
X152279716Y-110914778D01*
X152458681Y-110984110D01*
X152677961Y-111025100D01*
X152677964Y-111025100D01*
X152901036Y-111025100D01*
X152901039Y-111025100D01*
X153120319Y-110984110D01*
X153328334Y-110903524D01*
X153517999Y-110786089D01*
X153676386Y-110641700D01*
X153682854Y-110635804D01*
X153712372Y-110596717D01*
X153817291Y-110457781D01*
X153916726Y-110258090D01*
X153977774Y-110043527D01*
X153998357Y-109821400D01*
X153998356Y-109821394D01*
X155784359Y-109821394D01*
X155784359Y-109821405D01*
X155804885Y-110069129D01*
X155804887Y-110069138D01*
X155865912Y-110310117D01*
X155965766Y-110537764D01*
X156066064Y-110691282D01*
X156765712Y-109991634D01*
X156776982Y-110033692D01*
X156849390Y-110159108D01*
X156951792Y-110261510D01*
X157077208Y-110333918D01*
X157119265Y-110345187D01*
X156419442Y-111045009D01*
X156466268Y-111081455D01*
X156466270Y-111081456D01*
X156684885Y-111199764D01*
X156684896Y-111199769D01*
X156920006Y-111280483D01*
X157165207Y-111321400D01*
X157413793Y-111321400D01*
X157658993Y-111280483D01*
X157894103Y-111199769D01*
X157894114Y-111199764D01*
X158112728Y-111081457D01*
X158112731Y-111081455D01*
X158159556Y-111045009D01*
X157459734Y-110345187D01*
X157501792Y-110333918D01*
X157627208Y-110261510D01*
X157729610Y-110159108D01*
X157802018Y-110033692D01*
X157813287Y-109991635D01*
X158512934Y-110691282D01*
X158613231Y-110537769D01*
X158713087Y-110310117D01*
X158774112Y-110069138D01*
X158774114Y-110069129D01*
X158794641Y-109821405D01*
X158794641Y-109821394D01*
X158774114Y-109573670D01*
X158774112Y-109573661D01*
X158713087Y-109332682D01*
X158613231Y-109105030D01*
X158512934Y-108951516D01*
X157813287Y-109651164D01*
X157802018Y-109609108D01*
X157729610Y-109483692D01*
X157627208Y-109381290D01*
X157501792Y-109308882D01*
X157459735Y-109297612D01*
X158159557Y-108597790D01*
X158159556Y-108597789D01*
X158112729Y-108561343D01*
X157894114Y-108443035D01*
X157894103Y-108443030D01*
X157658993Y-108362316D01*
X157413793Y-108321400D01*
X157165207Y-108321400D01*
X156920006Y-108362316D01*
X156684896Y-108443030D01*
X156684890Y-108443032D01*
X156466261Y-108561349D01*
X156419442Y-108597788D01*
X156419442Y-108597790D01*
X157119265Y-109297612D01*
X157077208Y-109308882D01*
X156951792Y-109381290D01*
X156849390Y-109483692D01*
X156776982Y-109609108D01*
X156765712Y-109651164D01*
X156066064Y-108951516D01*
X155965767Y-109105032D01*
X155865912Y-109332682D01*
X155804887Y-109573661D01*
X155804885Y-109573670D01*
X155784359Y-109821394D01*
X153998356Y-109821394D01*
X153977774Y-109599277D01*
X153977774Y-109599273D01*
X153916726Y-109384710D01*
X153860304Y-109271400D01*
X153817294Y-109185024D01*
X153817289Y-109185016D01*
X153682854Y-109006995D01*
X153517999Y-108856711D01*
X153517997Y-108856709D01*
X153328337Y-108739277D01*
X153328331Y-108739274D01*
X153220262Y-108697408D01*
X153120319Y-108658690D01*
X152901039Y-108617700D01*
X152677961Y-108617700D01*
X152458681Y-108658690D01*
X152408709Y-108678049D01*
X152250668Y-108739274D01*
X152250662Y-108739277D01*
X152061002Y-108856709D01*
X152061000Y-108856711D01*
X151896145Y-109006995D01*
X151761710Y-109185016D01*
X151761705Y-109185024D01*
X151662275Y-109384706D01*
X151601225Y-109599277D01*
X151580643Y-109821399D01*
X147192083Y-109821399D01*
X147316684Y-109783602D01*
X147499737Y-109685758D01*
X147660183Y-109554083D01*
X147791858Y-109393637D01*
X147889702Y-109210584D01*
X147949953Y-109011961D01*
X147970298Y-108805400D01*
X147949953Y-108598839D01*
X147889702Y-108400216D01*
X147889698Y-108400208D01*
X147791861Y-108217168D01*
X147791857Y-108217161D01*
X147660183Y-108056716D01*
X147499738Y-107925042D01*
X147499731Y-107925038D01*
X147316691Y-107827201D01*
X147316685Y-107827198D01*
X147316684Y-107827198D01*
X147316681Y-107827197D01*
X147254799Y-107808425D01*
X147196361Y-107770128D01*
X147167904Y-107706315D01*
X147178465Y-107637248D01*
X147224690Y-107584855D01*
X147258702Y-107569990D01*
X147374983Y-107538833D01*
X147374992Y-107538829D01*
X147589078Y-107439000D01*
X147782582Y-107303505D01*
X147949605Y-107136482D01*
X148085100Y-106942978D01*
X148184929Y-106728892D01*
X148184932Y-106728886D01*
X148242136Y-106515400D01*
X147344512Y-106515400D01*
X147377425Y-106458393D01*
X147411500Y-106331226D01*
X147411500Y-106199574D01*
X147377425Y-106072407D01*
X147344512Y-106015400D01*
X148242136Y-106015400D01*
X148242135Y-106015399D01*
X148184932Y-105801913D01*
X148184929Y-105801907D01*
X148085100Y-105587822D01*
X148085099Y-105587820D01*
X147949613Y-105394326D01*
X147949608Y-105394320D01*
X147782582Y-105227294D01*
X147589078Y-105091799D01*
X147374992Y-104991970D01*
X147374986Y-104991967D01*
X147161500Y-104934764D01*
X147161500Y-105832388D01*
X147104493Y-105799475D01*
X146977326Y-105765400D01*
X146845674Y-105765400D01*
X146718507Y-105799475D01*
X146661500Y-105832388D01*
X146661500Y-104934764D01*
X146661499Y-104934764D01*
X146448013Y-104991967D01*
X146448007Y-104991970D01*
X146233922Y-105091799D01*
X146233920Y-105091800D01*
X146040426Y-105227286D01*
X146040420Y-105227291D01*
X145873391Y-105394320D01*
X145873386Y-105394326D01*
X145737900Y-105587820D01*
X145737899Y-105587822D01*
X145638070Y-105801907D01*
X145638067Y-105801913D01*
X145580864Y-106015399D01*
X144418260Y-106015399D01*
X145795140Y-104638519D01*
X145856463Y-104605034D01*
X145882821Y-104602200D01*
X145981312Y-104602200D01*
X146022652Y-104590061D01*
X146121611Y-104561004D01*
X146244621Y-104481950D01*
X146340376Y-104371443D01*
X146401119Y-104238434D01*
X146421929Y-104093700D01*
X146402387Y-103957783D01*
X146401119Y-103948965D01*
X146365696Y-103871400D01*
X146340376Y-103815957D01*
X146244621Y-103705450D01*
X146244618Y-103705448D01*
X146244619Y-103705448D01*
X146121613Y-103626397D01*
X146121612Y-103626396D01*
X146121611Y-103626396D01*
X146039632Y-103602324D01*
X145981312Y-103585200D01*
X145981311Y-103585200D01*
X145835089Y-103585200D01*
X145835088Y-103585200D01*
X145694786Y-103626397D01*
X145571780Y-103705448D01*
X145476024Y-103815957D01*
X145476023Y-103815958D01*
X145415280Y-103948965D01*
X145394471Y-104093700D01*
X145394471Y-104093704D01*
X145395941Y-104103930D01*
X145385996Y-104173088D01*
X145360884Y-104209255D01*
X143163760Y-106406381D01*
X143102437Y-106439866D01*
X143076079Y-106442700D01*
X133434707Y-106442700D01*
X133357059Y-106463506D01*
X133357057Y-106463506D01*
X133357057Y-106463507D01*
X133287441Y-106503700D01*
X133287438Y-106503702D01*
X129141202Y-110649938D01*
X129141196Y-110649946D01*
X129130344Y-110668742D01*
X129130345Y-110668743D01*
X129101006Y-110719559D01*
X129080200Y-110797207D01*
X129080200Y-110797209D01*
X129080200Y-112006550D01*
X129060515Y-112073589D01*
X129007711Y-112119344D01*
X128938553Y-112129288D01*
X128874997Y-112100263D01*
X128868519Y-112094231D01*
X128732582Y-111958294D01*
X128539078Y-111822799D01*
X128324992Y-111722970D01*
X128324986Y-111722967D01*
X128111500Y-111665764D01*
X128111500Y-112563388D01*
X128054493Y-112530475D01*
X127927326Y-112496400D01*
X127795674Y-112496400D01*
X127668507Y-112530475D01*
X127611500Y-112563388D01*
X127611500Y-111665764D01*
X127611499Y-111665764D01*
X127398013Y-111722967D01*
X127398007Y-111722970D01*
X127183922Y-111822799D01*
X127183920Y-111822800D01*
X126990426Y-111958286D01*
X126990420Y-111958291D01*
X126823391Y-112125320D01*
X126823386Y-112125326D01*
X126687900Y-112318820D01*
X126687899Y-112318822D01*
X126588070Y-112532907D01*
X126588067Y-112532913D01*
X126530864Y-112746399D01*
X122955261Y-112746399D01*
X123030801Y-112670859D01*
X123070994Y-112601241D01*
X123071159Y-112600624D01*
X123071418Y-112599660D01*
X123071418Y-112599658D01*
X123077066Y-112578581D01*
X123091800Y-112523593D01*
X123091800Y-110413865D01*
X123111485Y-110346826D01*
X123164289Y-110301071D01*
X123179793Y-110295208D01*
X123191684Y-110291602D01*
X123374737Y-110193758D01*
X123535183Y-110062083D01*
X123666858Y-109901637D01*
X123764702Y-109718584D01*
X123824953Y-109519961D01*
X123845298Y-109313400D01*
X123824953Y-109106839D01*
X123764702Y-108908216D01*
X123758848Y-108897265D01*
X123744607Y-108828863D01*
X123769606Y-108763619D01*
X123780518Y-108751139D01*
X124061119Y-108470538D01*
X124122442Y-108437054D01*
X124192134Y-108442038D01*
X124248067Y-108483910D01*
X124272484Y-108549374D01*
X124272800Y-108558220D01*
X124272800Y-110183464D01*
X124272800Y-110183466D01*
X124272799Y-110183466D01*
X124284617Y-110242876D01*
X124284618Y-110242879D01*
X124284619Y-110242880D01*
X124329640Y-110310260D01*
X124384366Y-110346826D01*
X124397020Y-110355281D01*
X124397023Y-110355282D01*
X124456433Y-110367100D01*
X124456436Y-110367100D01*
X126196566Y-110367100D01*
X126255976Y-110355282D01*
X126255977Y-110355281D01*
X126255980Y-110355281D01*
X126323360Y-110310260D01*
X126368381Y-110242880D01*
X126378152Y-110193761D01*
X126380200Y-110183466D01*
X126380200Y-108443333D01*
X126368382Y-108383923D01*
X126368381Y-108383920D01*
X126353946Y-108362316D01*
X126323360Y-108316540D01*
X126278338Y-108286457D01*
X126255979Y-108271518D01*
X126255976Y-108271517D01*
X126196566Y-108259700D01*
X126196564Y-108259700D01*
X124571321Y-108259700D01*
X124504282Y-108240015D01*
X124458527Y-108187211D01*
X124448583Y-108118053D01*
X124477608Y-108054497D01*
X124483640Y-108048019D01*
X124497291Y-108034367D01*
X124600600Y-107931059D01*
X124640793Y-107861442D01*
X124640794Y-107861441D01*
X124661600Y-107783793D01*
X124661600Y-103321399D01*
X151580643Y-103321399D01*
X151580643Y-103321400D01*
X151601225Y-103543522D01*
X151601225Y-103543524D01*
X151601226Y-103543527D01*
X151638620Y-103674953D01*
X151662275Y-103758093D01*
X151761705Y-103957775D01*
X151761710Y-103957783D01*
X151896145Y-104135804D01*
X152061000Y-104286088D01*
X152061002Y-104286090D01*
X152250662Y-104403522D01*
X152250668Y-104403525D01*
X152279716Y-104414778D01*
X152458681Y-104484110D01*
X152677961Y-104525100D01*
X152677964Y-104525100D01*
X152901036Y-104525100D01*
X152901039Y-104525100D01*
X153120319Y-104484110D01*
X153328334Y-104403524D01*
X153517999Y-104286089D01*
X153682856Y-104135802D01*
X153817291Y-103957781D01*
X153916726Y-103758090D01*
X153977774Y-103543527D01*
X153998357Y-103321400D01*
X153998356Y-103321394D01*
X155784359Y-103321394D01*
X155784359Y-103321405D01*
X155804885Y-103569129D01*
X155804887Y-103569138D01*
X155865912Y-103810117D01*
X155965766Y-104037764D01*
X156066064Y-104191282D01*
X156765712Y-103491634D01*
X156776982Y-103533692D01*
X156849390Y-103659108D01*
X156951792Y-103761510D01*
X157077208Y-103833918D01*
X157119265Y-103845187D01*
X156419442Y-104545009D01*
X156466268Y-104581455D01*
X156466270Y-104581456D01*
X156684885Y-104699764D01*
X156684896Y-104699769D01*
X156920006Y-104780483D01*
X157165207Y-104821400D01*
X157413793Y-104821400D01*
X157658993Y-104780483D01*
X157894103Y-104699769D01*
X157894114Y-104699764D01*
X158112728Y-104581457D01*
X158112731Y-104581455D01*
X158159556Y-104545009D01*
X157459734Y-103845187D01*
X157501792Y-103833918D01*
X157627208Y-103761510D01*
X157729610Y-103659108D01*
X157802018Y-103533692D01*
X157813287Y-103491635D01*
X158512934Y-104191282D01*
X158613231Y-104037769D01*
X158713087Y-103810117D01*
X158774112Y-103569138D01*
X158774114Y-103569129D01*
X158794641Y-103321405D01*
X158794641Y-103321394D01*
X158774114Y-103073670D01*
X158774112Y-103073661D01*
X158713087Y-102832682D01*
X158613231Y-102605030D01*
X158512934Y-102451516D01*
X157813287Y-103151164D01*
X157802018Y-103109108D01*
X157729610Y-102983692D01*
X157627208Y-102881290D01*
X157501792Y-102808882D01*
X157459735Y-102797612D01*
X158159557Y-102097790D01*
X158159556Y-102097789D01*
X158112729Y-102061343D01*
X157894114Y-101943035D01*
X157894103Y-101943030D01*
X157658993Y-101862316D01*
X157413793Y-101821400D01*
X157165207Y-101821400D01*
X156920006Y-101862316D01*
X156684896Y-101943030D01*
X156684890Y-101943032D01*
X156466261Y-102061349D01*
X156419442Y-102097788D01*
X156419442Y-102097790D01*
X157119265Y-102797612D01*
X157077208Y-102808882D01*
X156951792Y-102881290D01*
X156849390Y-102983692D01*
X156776982Y-103109108D01*
X156765712Y-103151164D01*
X156066064Y-102451516D01*
X155965767Y-102605032D01*
X155865912Y-102832682D01*
X155804887Y-103073661D01*
X155804885Y-103073670D01*
X155784359Y-103321394D01*
X153998356Y-103321394D01*
X153977774Y-103099277D01*
X153977774Y-103099273D01*
X153916726Y-102884710D01*
X153860304Y-102771400D01*
X153817294Y-102685024D01*
X153817289Y-102685016D01*
X153682854Y-102506995D01*
X153517999Y-102356711D01*
X153517997Y-102356709D01*
X153328337Y-102239277D01*
X153328331Y-102239274D01*
X153202442Y-102190505D01*
X153120319Y-102158690D01*
X152901039Y-102117700D01*
X152677961Y-102117700D01*
X152458681Y-102158690D01*
X152408709Y-102178049D01*
X152250668Y-102239274D01*
X152250662Y-102239277D01*
X152061002Y-102356709D01*
X152061000Y-102356711D01*
X151896145Y-102506995D01*
X151761710Y-102685016D01*
X151761705Y-102685024D01*
X151662275Y-102884706D01*
X151601225Y-103099277D01*
X151580643Y-103321399D01*
X124661600Y-103321399D01*
X124661600Y-102186607D01*
X124640794Y-102108959D01*
X124640794Y-102108958D01*
X124600600Y-102039341D01*
X123727725Y-101166466D01*
X125283799Y-101166466D01*
X125295617Y-101225876D01*
X125295618Y-101225879D01*
X125295619Y-101225880D01*
X125340640Y-101293260D01*
X125380138Y-101319651D01*
X125408020Y-101338281D01*
X125408023Y-101338282D01*
X125467433Y-101350100D01*
X125467436Y-101350100D01*
X127207566Y-101350100D01*
X127266976Y-101338282D01*
X127266977Y-101338281D01*
X127266980Y-101338281D01*
X127334360Y-101293260D01*
X127379381Y-101225880D01*
X127379382Y-101225876D01*
X127391200Y-101166466D01*
X127391200Y-100296400D01*
X127818702Y-100296400D01*
X127839046Y-100502959D01*
X127839047Y-100502961D01*
X127899298Y-100701584D01*
X127899299Y-100701587D01*
X127899300Y-100701588D01*
X127899301Y-100701591D01*
X127997138Y-100884631D01*
X127997142Y-100884638D01*
X128128816Y-101045083D01*
X128289261Y-101176757D01*
X128289268Y-101176761D01*
X128472308Y-101274598D01*
X128472309Y-101274598D01*
X128472316Y-101274602D01*
X128670939Y-101334853D01*
X128670938Y-101334853D01*
X128689458Y-101336677D01*
X128877500Y-101355198D01*
X129084061Y-101334853D01*
X129282684Y-101274602D01*
X129465737Y-101176758D01*
X129626183Y-101045083D01*
X129757858Y-100884637D01*
X129855702Y-100701584D01*
X129915953Y-100502961D01*
X129936298Y-100296400D01*
X130358702Y-100296400D01*
X130379046Y-100502959D01*
X130379047Y-100502961D01*
X130439298Y-100701584D01*
X130439299Y-100701587D01*
X130439300Y-100701588D01*
X130439301Y-100701591D01*
X130537138Y-100884631D01*
X130537142Y-100884638D01*
X130668816Y-101045083D01*
X130829261Y-101176757D01*
X130829268Y-101176761D01*
X131012308Y-101274598D01*
X131012309Y-101274598D01*
X131012316Y-101274602D01*
X131210939Y-101334853D01*
X131210938Y-101334853D01*
X131229458Y-101336677D01*
X131417500Y-101355198D01*
X131624061Y-101334853D01*
X131822684Y-101274602D01*
X132005737Y-101176758D01*
X132166183Y-101045083D01*
X132297858Y-100884637D01*
X132395702Y-100701584D01*
X132455953Y-100502961D01*
X132476298Y-100296400D01*
X132898702Y-100296400D01*
X132919046Y-100502959D01*
X132919047Y-100502961D01*
X132979298Y-100701584D01*
X132979299Y-100701587D01*
X132979300Y-100701588D01*
X132979301Y-100701591D01*
X133077138Y-100884631D01*
X133077142Y-100884638D01*
X133208816Y-101045083D01*
X133369261Y-101176757D01*
X133369268Y-101176761D01*
X133552308Y-101274598D01*
X133552309Y-101274598D01*
X133552316Y-101274602D01*
X133750939Y-101334853D01*
X133750938Y-101334853D01*
X133769458Y-101336677D01*
X133957500Y-101355198D01*
X134164061Y-101334853D01*
X134362684Y-101274602D01*
X134545737Y-101176758D01*
X134706183Y-101045083D01*
X134837858Y-100884637D01*
X134935702Y-100701584D01*
X134995953Y-100502961D01*
X135016298Y-100296400D01*
X135438702Y-100296400D01*
X135459046Y-100502959D01*
X135459047Y-100502961D01*
X135519298Y-100701584D01*
X135519299Y-100701587D01*
X135519300Y-100701588D01*
X135519301Y-100701591D01*
X135617138Y-100884631D01*
X135617142Y-100884638D01*
X135748816Y-101045083D01*
X135909261Y-101176757D01*
X135909268Y-101176761D01*
X136092308Y-101274598D01*
X136092309Y-101274598D01*
X136092316Y-101274602D01*
X136290939Y-101334853D01*
X136290938Y-101334853D01*
X136309458Y-101336677D01*
X136497500Y-101355198D01*
X136704061Y-101334853D01*
X136902684Y-101274602D01*
X137085737Y-101176758D01*
X137246183Y-101045083D01*
X137377858Y-100884637D01*
X137475702Y-100701584D01*
X137535953Y-100502961D01*
X137556298Y-100296400D01*
X137978702Y-100296400D01*
X137999046Y-100502959D01*
X137999047Y-100502961D01*
X138059298Y-100701584D01*
X138059299Y-100701587D01*
X138059300Y-100701588D01*
X138059301Y-100701591D01*
X138157138Y-100884631D01*
X138157142Y-100884638D01*
X138288816Y-101045083D01*
X138449261Y-101176757D01*
X138449268Y-101176761D01*
X138632308Y-101274598D01*
X138632309Y-101274598D01*
X138632316Y-101274602D01*
X138830939Y-101334853D01*
X138830938Y-101334853D01*
X138849458Y-101336677D01*
X139037500Y-101355198D01*
X139244061Y-101334853D01*
X139442684Y-101274602D01*
X139625737Y-101176758D01*
X139786183Y-101045083D01*
X139917858Y-100884637D01*
X140015702Y-100701584D01*
X140075953Y-100502961D01*
X140096298Y-100296400D01*
X140518702Y-100296400D01*
X140539046Y-100502959D01*
X140539047Y-100502961D01*
X140599298Y-100701584D01*
X140599299Y-100701587D01*
X140599300Y-100701588D01*
X140599301Y-100701591D01*
X140697138Y-100884631D01*
X140697142Y-100884638D01*
X140828816Y-101045083D01*
X140989261Y-101176757D01*
X140989268Y-101176761D01*
X141172308Y-101274598D01*
X141172309Y-101274598D01*
X141172316Y-101274602D01*
X141370939Y-101334853D01*
X141370938Y-101334853D01*
X141389458Y-101336677D01*
X141577500Y-101355198D01*
X141784061Y-101334853D01*
X141982684Y-101274602D01*
X142165737Y-101176758D01*
X142326183Y-101045083D01*
X142457858Y-100884637D01*
X142555702Y-100701584D01*
X142615953Y-100502961D01*
X142636298Y-100296400D01*
X143058702Y-100296400D01*
X143079046Y-100502959D01*
X143079047Y-100502961D01*
X143139298Y-100701584D01*
X143139299Y-100701587D01*
X143139300Y-100701588D01*
X143139301Y-100701591D01*
X143237138Y-100884631D01*
X143237142Y-100884638D01*
X143368816Y-101045083D01*
X143529261Y-101176757D01*
X143529268Y-101176761D01*
X143712308Y-101274598D01*
X143712309Y-101274598D01*
X143712316Y-101274602D01*
X143910939Y-101334853D01*
X143910938Y-101334853D01*
X143929458Y-101336677D01*
X144117500Y-101355198D01*
X144324061Y-101334853D01*
X144522684Y-101274602D01*
X144705737Y-101176758D01*
X144866183Y-101045083D01*
X144997858Y-100884637D01*
X145095702Y-100701584D01*
X145155953Y-100502961D01*
X145176298Y-100296400D01*
X145155953Y-100089839D01*
X145095702Y-99891216D01*
X144997858Y-99708163D01*
X144997857Y-99708161D01*
X144866183Y-99547716D01*
X144705738Y-99416042D01*
X144705731Y-99416038D01*
X144522691Y-99318201D01*
X144522688Y-99318200D01*
X144522687Y-99318199D01*
X144522684Y-99318198D01*
X144324061Y-99257947D01*
X144324059Y-99257946D01*
X144324061Y-99257946D01*
X144117500Y-99237602D01*
X143910940Y-99257946D01*
X143793665Y-99293521D01*
X143712316Y-99318198D01*
X143712313Y-99318199D01*
X143712311Y-99318200D01*
X143712308Y-99318201D01*
X143529268Y-99416038D01*
X143529261Y-99416042D01*
X143368816Y-99547716D01*
X143237142Y-99708161D01*
X143237138Y-99708168D01*
X143139301Y-99891208D01*
X143139300Y-99891211D01*
X143079046Y-100089840D01*
X143058702Y-100296400D01*
X142636298Y-100296400D01*
X142615953Y-100089839D01*
X142555702Y-99891216D01*
X142457858Y-99708163D01*
X142457857Y-99708161D01*
X142326183Y-99547716D01*
X142165738Y-99416042D01*
X142165731Y-99416038D01*
X141982691Y-99318201D01*
X141982688Y-99318200D01*
X141982687Y-99318199D01*
X141982684Y-99318198D01*
X141784061Y-99257947D01*
X141784059Y-99257946D01*
X141784061Y-99257946D01*
X141577500Y-99237602D01*
X141370940Y-99257946D01*
X141253665Y-99293521D01*
X141172316Y-99318198D01*
X141172313Y-99318199D01*
X141172311Y-99318200D01*
X141172308Y-99318201D01*
X140989268Y-99416038D01*
X140989261Y-99416042D01*
X140828816Y-99547716D01*
X140697142Y-99708161D01*
X140697138Y-99708168D01*
X140599301Y-99891208D01*
X140599300Y-99891211D01*
X140539046Y-100089840D01*
X140518702Y-100296400D01*
X140096298Y-100296400D01*
X140075953Y-100089839D01*
X140015702Y-99891216D01*
X139917858Y-99708163D01*
X139917857Y-99708161D01*
X139786183Y-99547716D01*
X139625738Y-99416042D01*
X139625731Y-99416038D01*
X139442691Y-99318201D01*
X139442688Y-99318200D01*
X139442687Y-99318199D01*
X139442684Y-99318198D01*
X139244061Y-99257947D01*
X139244059Y-99257946D01*
X139244061Y-99257946D01*
X139037500Y-99237602D01*
X138830940Y-99257946D01*
X138713665Y-99293521D01*
X138632316Y-99318198D01*
X138632313Y-99318199D01*
X138632311Y-99318200D01*
X138632308Y-99318201D01*
X138449268Y-99416038D01*
X138449261Y-99416042D01*
X138288816Y-99547716D01*
X138157142Y-99708161D01*
X138157138Y-99708168D01*
X138059301Y-99891208D01*
X138059300Y-99891211D01*
X137999046Y-100089840D01*
X137978702Y-100296400D01*
X137556298Y-100296400D01*
X137535953Y-100089839D01*
X137475702Y-99891216D01*
X137377858Y-99708163D01*
X137377857Y-99708161D01*
X137246183Y-99547716D01*
X137085738Y-99416042D01*
X137085731Y-99416038D01*
X136902691Y-99318201D01*
X136902688Y-99318200D01*
X136902687Y-99318199D01*
X136902684Y-99318198D01*
X136704061Y-99257947D01*
X136704059Y-99257946D01*
X136704061Y-99257946D01*
X136497500Y-99237602D01*
X136290940Y-99257946D01*
X136173665Y-99293521D01*
X136092316Y-99318198D01*
X136092313Y-99318199D01*
X136092311Y-99318200D01*
X136092308Y-99318201D01*
X135909268Y-99416038D01*
X135909261Y-99416042D01*
X135748816Y-99547716D01*
X135617142Y-99708161D01*
X135617138Y-99708168D01*
X135519301Y-99891208D01*
X135519300Y-99891211D01*
X135459046Y-100089840D01*
X135438702Y-100296400D01*
X135016298Y-100296400D01*
X134995953Y-100089839D01*
X134935702Y-99891216D01*
X134837858Y-99708163D01*
X134837857Y-99708161D01*
X134706183Y-99547716D01*
X134545738Y-99416042D01*
X134545731Y-99416038D01*
X134362691Y-99318201D01*
X134362688Y-99318200D01*
X134362687Y-99318199D01*
X134362684Y-99318198D01*
X134164061Y-99257947D01*
X134164059Y-99257946D01*
X134164061Y-99257946D01*
X133957500Y-99237602D01*
X133750940Y-99257946D01*
X133633665Y-99293521D01*
X133552316Y-99318198D01*
X133552313Y-99318199D01*
X133552311Y-99318200D01*
X133552308Y-99318201D01*
X133369268Y-99416038D01*
X133369261Y-99416042D01*
X133208816Y-99547716D01*
X133077142Y-99708161D01*
X133077138Y-99708168D01*
X132979301Y-99891208D01*
X132979300Y-99891211D01*
X132919046Y-100089840D01*
X132898702Y-100296400D01*
X132476298Y-100296400D01*
X132455953Y-100089839D01*
X132395702Y-99891216D01*
X132297858Y-99708163D01*
X132297857Y-99708161D01*
X132166183Y-99547716D01*
X132005738Y-99416042D01*
X132005731Y-99416038D01*
X131822691Y-99318201D01*
X131822688Y-99318200D01*
X131822687Y-99318199D01*
X131822684Y-99318198D01*
X131624061Y-99257947D01*
X131624059Y-99257946D01*
X131624061Y-99257946D01*
X131417500Y-99237602D01*
X131210940Y-99257946D01*
X131093665Y-99293521D01*
X131012316Y-99318198D01*
X131012313Y-99318199D01*
X131012311Y-99318200D01*
X131012308Y-99318201D01*
X130829268Y-99416038D01*
X130829261Y-99416042D01*
X130668816Y-99547716D01*
X130537142Y-99708161D01*
X130537138Y-99708168D01*
X130439301Y-99891208D01*
X130439300Y-99891211D01*
X130379046Y-100089840D01*
X130358702Y-100296400D01*
X129936298Y-100296400D01*
X129915953Y-100089839D01*
X129855702Y-99891216D01*
X129757858Y-99708163D01*
X129757857Y-99708161D01*
X129626183Y-99547716D01*
X129465738Y-99416042D01*
X129465731Y-99416038D01*
X129282691Y-99318201D01*
X129282688Y-99318200D01*
X129282687Y-99318199D01*
X129282684Y-99318198D01*
X129084061Y-99257947D01*
X129084059Y-99257946D01*
X129084061Y-99257946D01*
X128877500Y-99237602D01*
X128670940Y-99257946D01*
X128553665Y-99293521D01*
X128472316Y-99318198D01*
X128472313Y-99318199D01*
X128472311Y-99318200D01*
X128472308Y-99318201D01*
X128289268Y-99416038D01*
X128289261Y-99416042D01*
X128128816Y-99547716D01*
X127997142Y-99708161D01*
X127997138Y-99708168D01*
X127899301Y-99891208D01*
X127899300Y-99891211D01*
X127839046Y-100089840D01*
X127818702Y-100296400D01*
X127391200Y-100296400D01*
X127391200Y-99426333D01*
X127379382Y-99366923D01*
X127379381Y-99366920D01*
X127357066Y-99333523D01*
X127334360Y-99299540D01*
X127289338Y-99269457D01*
X127266979Y-99254518D01*
X127266976Y-99254517D01*
X127207566Y-99242700D01*
X127207564Y-99242700D01*
X125467436Y-99242700D01*
X125467434Y-99242700D01*
X125408023Y-99254517D01*
X125408020Y-99254518D01*
X125340640Y-99299540D01*
X125295618Y-99366920D01*
X125295617Y-99366923D01*
X125283800Y-99426333D01*
X125283800Y-99426336D01*
X125283800Y-101166464D01*
X125283800Y-101166466D01*
X125283799Y-101166466D01*
X123727725Y-101166466D01*
X121216359Y-98655100D01*
X121146741Y-98614906D01*
X121069093Y-98594100D01*
X121069090Y-98594100D01*
X116836356Y-98594100D01*
X116769317Y-98574415D01*
X116742643Y-98551303D01*
X116721886Y-98527348D01*
X116598880Y-98448297D01*
X116598879Y-98448296D01*
X116598878Y-98448296D01*
X116516899Y-98424224D01*
X116458579Y-98407100D01*
X116458578Y-98407100D01*
X116312356Y-98407100D01*
X116312355Y-98407100D01*
X116172053Y-98448297D01*
X116049047Y-98527348D01*
X115953291Y-98637857D01*
X115953290Y-98637858D01*
X115892547Y-98770865D01*
X115871738Y-98915600D01*
X111260837Y-98915600D01*
X111317920Y-98794294D01*
X111317922Y-98794289D01*
X111413186Y-98501099D01*
X111470954Y-98198270D01*
X111470955Y-98198263D01*
X111475975Y-98118466D01*
X113861766Y-98118466D01*
X113873584Y-98177876D01*
X113873585Y-98177879D01*
X113873586Y-98177880D01*
X113918607Y-98245260D01*
X113980336Y-98286505D01*
X113985987Y-98290281D01*
X113985990Y-98290282D01*
X114045400Y-98302100D01*
X114045403Y-98302100D01*
X115785533Y-98302100D01*
X115844943Y-98290282D01*
X115844944Y-98290281D01*
X115844947Y-98290281D01*
X115912327Y-98245260D01*
X115957348Y-98177880D01*
X115967119Y-98128761D01*
X115969167Y-98118466D01*
X115969167Y-97248400D01*
X116396669Y-97248400D01*
X116417013Y-97454959D01*
X116417014Y-97454961D01*
X116477265Y-97653584D01*
X116477266Y-97653586D01*
X116477267Y-97653588D01*
X116477268Y-97653591D01*
X116575105Y-97836631D01*
X116575109Y-97836638D01*
X116706783Y-97997083D01*
X116867228Y-98128757D01*
X116867235Y-98128761D01*
X117050275Y-98226598D01*
X117050276Y-98226598D01*
X117050283Y-98226602D01*
X117248906Y-98286853D01*
X117248905Y-98286853D01*
X117267425Y-98288677D01*
X117455467Y-98307198D01*
X117662028Y-98286853D01*
X117860651Y-98226602D01*
X118043704Y-98128758D01*
X118204150Y-97997083D01*
X118335825Y-97836637D01*
X118433669Y-97653584D01*
X118493920Y-97454961D01*
X118514265Y-97248400D01*
X118493920Y-97041839D01*
X118433669Y-96843216D01*
X118402506Y-96784914D01*
X118335828Y-96660168D01*
X118335824Y-96660161D01*
X118204150Y-96499716D01*
X118043705Y-96368042D01*
X118043698Y-96368038D01*
X117860658Y-96270201D01*
X117860655Y-96270200D01*
X117860654Y-96270199D01*
X117860651Y-96270198D01*
X117662028Y-96209947D01*
X117662026Y-96209946D01*
X117662028Y-96209946D01*
X117455467Y-96189602D01*
X117248907Y-96209946D01*
X117131632Y-96245521D01*
X117050283Y-96270198D01*
X117050280Y-96270199D01*
X117050278Y-96270200D01*
X117050275Y-96270201D01*
X116867235Y-96368038D01*
X116867228Y-96368042D01*
X116706783Y-96499716D01*
X116575109Y-96660161D01*
X116575105Y-96660168D01*
X116477268Y-96843208D01*
X116477267Y-96843211D01*
X116477266Y-96843213D01*
X116477265Y-96843216D01*
X116461605Y-96894841D01*
X116417013Y-97041840D01*
X116396669Y-97248400D01*
X115969167Y-97248400D01*
X115969167Y-96378333D01*
X115957349Y-96318923D01*
X115957348Y-96318920D01*
X115951802Y-96310620D01*
X115912327Y-96251540D01*
X115867305Y-96221457D01*
X115844946Y-96206518D01*
X115844943Y-96206517D01*
X115785533Y-96194700D01*
X115785531Y-96194700D01*
X114045403Y-96194700D01*
X114045401Y-96194700D01*
X113985990Y-96206517D01*
X113985987Y-96206518D01*
X113918607Y-96251540D01*
X113873585Y-96318920D01*
X113873584Y-96318923D01*
X113861767Y-96378333D01*
X113861767Y-96378336D01*
X113861767Y-98118464D01*
X113861767Y-98118466D01*
X113861766Y-98118466D01*
X111475975Y-98118466D01*
X111490311Y-97890605D01*
X111490311Y-97890594D01*
X111470955Y-97582936D01*
X111470954Y-97582929D01*
X111413186Y-97280100D01*
X111317922Y-96986910D01*
X111317920Y-96986905D01*
X111186664Y-96707973D01*
X111186661Y-96707967D01*
X111021484Y-96447688D01*
X110935665Y-96343951D01*
X110007552Y-97272064D01*
X109912638Y-97141425D01*
X109784642Y-97013429D01*
X109654000Y-96918512D01*
X110601155Y-95971357D01*
X110602607Y-95964448D01*
X110651660Y-95914693D01*
X110711859Y-95899100D01*
X121715537Y-95899100D01*
X121782576Y-95918785D01*
G37*
%TD.AperFunction*%
%TD*%
M02*
