M48
; DRILL file {KiCad 8.0.3} date 2024-08-03T02:47:28+0800
; FORMAT={-:-/ absolute / inch / decimal}
; #@! TF.CreationDate,2024-08-03T02:47:28+08:00
; #@! TF.GenerationSoftware,Kicad,Pcbnew,8.0.3
; #@! TF.FileFunction,Plated,1,2,PTH
FMAT,2
INCH
; #@! TA.AperFunction,Plated,PTH,ViaDrill
T1C0.0100
; #@! TA.AperFunction,Plated,PTH,ViaDrill
T2C0.0110
; #@! TA.AperFunction,Plated,PTH,ViaDrill
T3C0.0120
; #@! TA.AperFunction,Plated,PTH,ViaDrill
T4C0.0130
; #@! TA.AperFunction,Plated,PTH,ViaDrill
T5C0.0140
; #@! TA.AperFunction,Plated,PTH,ComponentDrill
T6C0.0315
; #@! TA.AperFunction,Plated,PTH,ComponentDrill
T7C0.0354
; #@! TA.AperFunction,Plated,PTH,ComponentDrill
T8C0.0394
; #@! TA.AperFunction,Plated,PTH,ComponentDrill
T9C0.0433
; #@! TA.AperFunction,Plated,PTH,ComponentDrill
T10C0.0906
%
G90
G05
T1
X5.9943Y-4.4416
X6.0693Y-4.4416
X6.1443Y-4.4416
X6.2193Y-4.4416
T2
X5.9693Y-4.4916
X6.0443Y-4.4916
X6.1193Y-4.4916
X6.1943Y-4.4916
T3
X4.2343Y-3.9666
X4.2343Y-4.0666
X4.2343Y-4.1666
X4.2343Y-4.2666
X4.2343Y-4.3666
X4.2343Y-4.4666
X4.2343Y-4.5666
X4.2343Y-4.6666
X4.2343Y-4.7666
X4.2343Y-4.8666
X4.2343Y-4.9666
X4.2343Y-5.0666
X4.2343Y-5.1666
X4.2343Y-5.2666
X4.2993Y-4.2666
X4.3943Y-5.5266
X4.4043Y-3.7966
X4.4119Y-4.3677
X4.4143Y-4.3236
X4.4593Y-4.8816
X4.4943Y-5.5266
X4.5043Y-4.8416
X4.5689Y-4.2717
X4.5719Y-4.3637
X4.5799Y-4.8487
X4.5821Y-3.8943
X4.5943Y-5.5266
X4.6443Y-4.6466
X4.6443Y-4.8766
X4.6443Y-4.9366
X4.6793Y-4.7016
X4.6943Y-5.5266
X4.7139Y-3.9737
X4.7139Y-4.1917
X4.7429Y-4.3917
X4.7459Y-4.8757
X4.7779Y-4.4087
X4.7843Y-5.2666
X4.7943Y-5.5266
X4.7993Y-3.9866
X4.8089Y-4.4537
X4.8193Y-4.2266
X4.8209Y-4.8767
X4.8293Y-5.3716
X4.8293Y-5.4316
X4.8449Y-3.914
X4.8589Y-4.4837
X4.8589Y-4.6027
X4.8593Y-4.7916
X4.8659Y-4.4267
X4.8669Y-4.7017
X4.8943Y-5.5266
X4.8989Y-5.4747
X4.9043Y-3.7966
X4.9093Y-5.3716
X4.9093Y-5.4316
X4.9343Y-4.1466
X4.9359Y-4.2167
X4.9479Y-4.4767
X4.9843Y-4.9666
X4.9943Y-5.5266
X5.0043Y-3.7966
X5.0093Y-4.0166
X5.0099Y-5.2047
X5.025Y-3.8766
X5.0259Y-4.1407
X5.0343Y-5.3266
X5.0379Y-4.2757
X5.0409Y-5.2347
X5.0669Y-5.4207
X5.0669Y-5.4617
X5.0943Y-5.5266
X5.0989Y-4.5047
X5.1043Y-3.7966
X5.1069Y-4.1527
X5.1139Y-4.2977
X5.1243Y-4.0216
X5.1329Y-4.6017
X5.1399Y-4.4977
X5.1493Y-5.0716
X5.1509Y-4.6797
X5.1539Y-4.9087
X5.1549Y-4.7707
X5.1759Y-4.2437
X5.1793Y-5.0116
X5.1839Y-4.6937
X5.1943Y-5.5266
X5.1989Y-4.8747
X5.2043Y-3.7966
X5.2049Y-5.4187
X5.2159Y-4.6007
X5.2289Y-4.1047
X5.2359Y-4.1857
X5.2393Y-4.0166
X5.2393Y-4.7816
X5.2393Y-4.8416
X5.2839Y-4.2307
X5.2939Y-5.3237
X5.2943Y-4.5516
X5.2943Y-5.5266
X5.2993Y-4.8416
X5.3043Y-3.7966
X5.3239Y-4.1057
X5.3339Y-5.1687
X5.3343Y-4.5366
X5.3359Y-4.5997
X5.3393Y-4.0116
X5.3393Y-4.9366
X5.3393Y-5.0766
X5.3399Y-5.2777
X5.3443Y-4.9766
X5.3443Y-5.0216
X5.3489Y-4.8287
X5.3539Y-5.3697
X5.3619Y-5.4987
X5.3639Y-5.4161
X5.3639Y-5.4535
X5.3743Y-4.9266
X5.3843Y-4.8616
X5.3879Y-5.2747
X5.3889Y-5.2387
X5.3899Y-5.3437
X5.3943Y-5.5266
X5.4043Y-3.7966
X5.4179Y-4.1757
X5.4189Y-4.2857
X5.4239Y-4.0907
X5.4249Y-4.6017
X5.4343Y-4.0166
X5.4489Y-5.3362
X5.4509Y-4.7437
X5.4549Y-4.2837
X5.4859Y-4.6857
X5.4919Y-4.2297
X5.4943Y-5.5266
X5.4999Y-4.4887
X5.5043Y-3.7966
X5.5043Y-5.1816
X5.5093Y-4.7966
X5.5143Y-4.7166
X5.5199Y-4.6067
X5.5239Y-4.1007
X5.5293Y-4.0166
X5.5459Y-5.3177
X5.5459Y-4.4916
X5.5493Y-4.1716
X5.5529Y-4.2537
X5.5543Y-4.3566
X5.5643Y-4.6666
X5.5643Y-4.8566
X5.5743Y-4.5566
X5.5869Y-5.4487
X5.5869Y-5.4917
X5.5943Y-5.5266
X5.5954Y-5.3652
X5.6043Y-3.7966
X5.6143Y-5.2366
X5.6189Y-4.1017
X5.6359Y-4.3257
X5.6389Y-4.2417
X5.6393Y-4.0116
X5.6409Y-4.6307
X5.6409Y-4.7327
X5.6443Y-5.1666
X5.6589Y-5.3267
X5.6593Y-5.2366
X5.6649Y-5.2887
X5.6943Y-5.5266
X5.6993Y-5.1616
X5.7043Y-3.7966
X5.7043Y-5.2366
X5.7109Y-5.3257
X5.7143Y-4.9566
X5.7444Y-4.0982
X5.7943Y-5.5266
X5.8043Y-3.7966
X5.8659Y-5.3567
X5.8659Y-5.4287
X5.8893Y-4.9466
X5.8939Y-4.1227
X5.8943Y-5.5266
X5.8949Y-4.5387
X5.8959Y-4.3297
X5.8979Y-4.2297
X5.8979Y-4.6407
X5.8989Y-4.4377
X5.8989Y-4.7327
X5.9043Y-3.7966
X5.9099Y-3.9057
X5.9193Y-5.3216
X5.9343Y-4.9066
X5.9943Y-4.5416
X5.9943Y-5.5266
X6.0043Y-3.7966
X6.0093Y-5.2966
X6.0339Y-4.9487
X6.0443Y-5.1016
X6.0593Y-5.3566
X6.0693Y-4.5416
X6.0723Y-4.9288
X6.0879Y-5.3877
X6.0889Y-5.3237
X6.0943Y-5.5266
X6.1043Y-3.7966
X6.1393Y-5.2216
X6.1443Y-4.5416
X6.2193Y-4.5416
X6.2643Y-3.9666
X6.2643Y-4.0666
X6.2643Y-4.1666
X6.2643Y-4.2666
X6.2643Y-4.3666
X6.2643Y-4.4666
X6.2643Y-4.5666
X6.2643Y-4.6666
X6.2643Y-4.7666
X6.2643Y-4.8666
X6.2643Y-4.9666
X6.2643Y-5.0666
X6.2643Y-5.1666
X6.2643Y-5.2666
X6.2643Y-5.3666
T4
X5.9693Y-4.5916
X6.0443Y-4.5916
X6.1193Y-4.5916
X6.1943Y-4.5916
T5
X5.9943Y-4.6416
X6.0693Y-4.6416
X6.1443Y-4.6416
X6.2193Y-4.6416
T6
X4.5271Y-5.4187
X4.6255Y-5.4187
X4.7239Y-5.4187
T7
X5.0739Y-4.9739
X5.0739Y-5.0739
X5.2591Y-4.9587
X5.2591Y-5.0587
T8
X4.2991Y-4.7737
X4.3905Y-4.1668
X4.3991Y-4.7737
X4.4889Y-4.1668
X4.5242Y-3.8287
X4.5439Y-4.7787
X4.5873Y-4.1668
X4.6242Y-3.8287
X4.6439Y-4.7787
X4.7242Y-3.8287
X4.8242Y-3.8287
X4.8289Y-4.0537
X4.8289Y-4.1537
X4.8341Y-4.3037
X4.9341Y-4.3037
X4.9739Y-3.9487
X5.0339Y-4.4487
X5.0339Y-4.5487
X5.0339Y-4.6487
X5.0339Y-4.7487
X5.0339Y-4.8487
X5.0739Y-3.9487
X5.1739Y-3.9487
X5.2739Y-3.9487
X5.3739Y-3.9487
X5.4241Y-5.0287
X5.4241Y-5.1287
X5.4739Y-3.9487
X5.5641Y-5.0287
X5.5641Y-5.1287
X5.5739Y-3.9487
X5.6739Y-3.9487
X5.7091Y-5.0587
X5.7839Y-4.1837
X5.7839Y-4.2837
X5.7839Y-4.3837
X5.7839Y-4.4837
X5.7839Y-4.5837
X5.7839Y-4.6837
X5.7839Y-4.7837
X5.7839Y-4.8837
X5.8091Y-5.0587
X5.9689Y-5.1339
X5.9689Y-5.2339
T9
X6.0153Y-4.0678
X6.0153Y-4.3237
X6.1925Y-4.0678
X6.1925Y-4.3237
T10
X4.2927Y-3.854
X4.2927Y-5.4681
X6.2022Y-3.854
X6.2022Y-5.4681
T6
X4.2921Y-4.1156G85X4.2921Y-4.0605
G05
X4.5506Y-5.0054G85X4.5506Y-5.092
G05
X4.6175Y-5.2377G85X4.7041Y-5.2377
G05
X4.6858Y-4.0605G85X4.6858Y-4.1156
G05
X4.7789Y-4.9975G85X4.7789Y-5.0999
G05
M30
