%TF.GenerationSoftware,KiCad,Pcbnew,8.0.3*%
%TF.CreationDate,2024-08-05T20:49:33+08:00*%
%TF.ProjectId,PC_Fan_Control,50435f46-616e-45f4-936f-6e74726f6c2e,v1.0*%
%TF.SameCoordinates,Original*%
%TF.FileFunction,Soldermask,Top*%
%TF.FilePolarity,Negative*%
%FSLAX46Y46*%
G04 Gerber Fmt 4.6, Leading zero omitted, Abs format (unit mm)*
G04 Created by KiCad (PCBNEW 8.0.3) date 2024-08-05 20:49:33*
%MOMM*%
%LPD*%
G01*
G04 APERTURE LIST*
G04 Aperture macros list*
%AMRoundRect*
0 Rectangle with rounded corners*
0 $1 Rounding radius*
0 $2 $3 $4 $5 $6 $7 $8 $9 X,Y pos of 4 corners*
0 Add a 4 corners polygon primitive as box body*
4,1,4,$2,$3,$4,$5,$6,$7,$8,$9,$2,$3,0*
0 Add four circle primitives for the rounded corners*
1,1,$1+$1,$2,$3*
1,1,$1+$1,$4,$5*
1,1,$1+$1,$6,$7*
1,1,$1+$1,$8,$9*
0 Add four rect primitives between the rounded corners*
20,1,$1+$1,$2,$3,$4,$5,0*
20,1,$1+$1,$4,$5,$6,$7,0*
20,1,$1+$1,$6,$7,$8,$9,0*
20,1,$1+$1,$8,$9,$2,$3,0*%
G04 Aperture macros list end*
%ADD10C,0.100000*%
%ADD11RoundRect,0.180400X0.237900X0.180400X-0.237900X0.180400X-0.237900X-0.180400X0.237900X-0.180400X0*%
%ADD12RoundRect,0.262900X0.262900X-0.325400X0.262900X0.325400X-0.262900X0.325400X-0.262900X-0.325400X0*%
%ADD13RoundRect,0.050800X-0.850000X-0.850000X0.850000X-0.850000X0.850000X0.850000X-0.850000X0.850000X0*%
%ADD14O,1.801600X1.801600*%
%ADD15RoundRect,0.050800X-0.335000X0.210000X-0.335000X-0.210000X0.335000X-0.210000X0.335000X0.210000X0*%
%ADD16RoundRect,0.050800X0.850000X0.850000X-0.850000X0.850000X-0.850000X-0.850000X0.850000X-0.850000X0*%
%ADD17RoundRect,0.050800X-0.850000X0.850000X-0.850000X-0.850000X0.850000X-0.850000X0.850000X0.850000X0*%
%ADD18RoundRect,0.050800X0.335000X-0.210000X0.335000X0.210000X-0.335000X0.210000X-0.335000X-0.210000X0*%
%ADD19RoundRect,0.050800X0.210000X0.335000X-0.210000X0.335000X-0.210000X-0.335000X0.210000X-0.335000X0*%
%ADD20RoundRect,0.050800X0.304800X0.177800X-0.304800X0.177800X-0.304800X-0.177800X0.304800X-0.177800X0*%
%ADD21C,4.001600*%
%ADD22RoundRect,0.271166X0.479634X-0.379634X0.479634X0.379634X-0.479634X0.379634X-0.479634X-0.379634X0*%
%ADD23RoundRect,0.050800X0.875000X-0.300000X0.875000X0.300000X-0.875000X0.300000X-0.875000X-0.300000X0*%
%ADD24RoundRect,0.050800X-0.542500X0.275000X-0.542500X-0.275000X0.542500X-0.275000X0.542500X0.275000X0*%
%ADD25RoundRect,0.050800X0.835000X0.935000X-0.835000X0.935000X-0.835000X-0.935000X0.835000X-0.935000X0*%
%ADD26RoundRect,0.271166X0.379634X0.479634X-0.379634X0.479634X-0.379634X-0.479634X0.379634X-0.479634X0*%
%ADD27RoundRect,0.271617X0.366683X0.504183X-0.366683X0.504183X-0.366683X-0.504183X0.366683X-0.504183X0*%
%ADD28RoundRect,0.050800X-0.279400X0.660400X-0.279400X-0.660400X0.279400X-0.660400X0.279400X0.660400X0*%
%ADD29C,2.101600*%
%ADD30RoundRect,0.050800X0.850000X-0.850000X0.850000X0.850000X-0.850000X0.850000X-0.850000X-0.850000X0*%
%ADD31RoundRect,0.271617X-0.504183X0.366683X-0.504183X-0.366683X0.504183X-0.366683X0.504183X0.366683X0*%
%ADD32RoundRect,0.050800X0.900000X-0.900000X0.900000X0.900000X-0.900000X0.900000X-0.900000X-0.900000X0*%
%ADD33C,1.901600*%
%ADD34RoundRect,0.271166X-0.379634X-0.479634X0.379634X-0.479634X0.379634X0.479634X-0.379634X0.479634X0*%
%ADD35RoundRect,0.119150X0.131650X-0.119150X0.131650X0.119150X-0.131650X0.119150X-0.131650X-0.119150X0*%
%ADD36RoundRect,0.050800X0.800000X-0.500000X0.800000X0.500000X-0.800000X0.500000X-0.800000X-0.500000X0*%
%ADD37RoundRect,0.050800X-0.900000X2.200000X-0.900000X-2.200000X0.900000X-2.200000X0.900000X2.200000X0*%
%ADD38O,1.901600X4.101600*%
%ADD39O,4.101600X1.901600*%
%ADD40RoundRect,0.050800X-0.900000X0.900000X-0.900000X-0.900000X0.900000X-0.900000X0.900000X0.900000X0*%
%ADD41RoundRect,0.262900X-0.325400X-0.262900X0.325400X-0.262900X0.325400X0.262900X-0.325400X0.262900X0*%
%ADD42RoundRect,0.050800X-0.650000X-0.650000X0.650000X-0.650000X0.650000X0.650000X-0.650000X0.650000X0*%
%ADD43C,1.401600*%
%ADD44RoundRect,0.125400X0.662900X0.125400X-0.662900X0.125400X-0.662900X-0.125400X0.662900X-0.125400X0*%
%ADD45RoundRect,0.050800X-0.444500X-0.609600X0.444500X-0.609600X0.444500X0.609600X-0.444500X0.609600X0*%
%ADD46RoundRect,0.050800X-3.365500X-3.251200X3.365500X-3.251200X3.365500X3.251200X-3.365500X3.251200X0*%
%ADD47RoundRect,0.271617X0.504183X-0.366683X0.504183X0.366683X-0.504183X0.366683X-0.504183X-0.366683X0*%
%ADD48RoundRect,0.180400X-0.237900X-0.180400X0.237900X-0.180400X0.237900X0.180400X-0.237900X0.180400X0*%
%ADD49RoundRect,0.271166X-0.479634X0.379634X-0.479634X-0.379634X0.479634X-0.379634X0.479634X0.379634X0*%
%ADD50RoundRect,0.175400X0.537900X0.175400X-0.537900X0.175400X-0.537900X-0.175400X0.537900X-0.175400X0*%
%ADD51C,1.601600*%
%ADD52O,1.701600X3.301600*%
G04 APERTURE END LIST*
D10*
X125742547Y-139130000D02*
X127439667Y-139130000D01*
X127439667Y-139384000D01*
X125742547Y-139384000D01*
X125742547Y-139130000D01*
G36*
X125742547Y-139130000D02*
G01*
X127439667Y-139130000D01*
X127439667Y-139384000D01*
X125742547Y-139384000D01*
X125742547Y-139130000D01*
G37*
X125737867Y-136742400D02*
X126779267Y-136742400D01*
X126779267Y-137250400D01*
X125737867Y-137250400D01*
X125737867Y-136742400D01*
G36*
X125737867Y-136742400D02*
G01*
X126779267Y-136742400D01*
X126779267Y-137250400D01*
X125737867Y-137250400D01*
X125737867Y-136742400D01*
G37*
D11*
%TO.C,C7*%
X151102967Y-122890600D03*
X149967967Y-122890600D03*
%TD*%
D12*
%TO.C,C4*%
X150594500Y-138724400D03*
X150594500Y-136999400D03*
%TD*%
D13*
%TO.C,J6*%
X141328500Y-127728400D03*
D14*
X141328500Y-130268400D03*
%TD*%
D15*
%TO.C,D11*%
X110679500Y-109567400D03*
X109229500Y-109567400D03*
%TD*%
D16*
%TO.C,JP3*%
X122654500Y-105503400D03*
D14*
X122654500Y-102963400D03*
%TD*%
D15*
%TO.C,D9*%
X125448500Y-118203400D03*
X123998500Y-118203400D03*
%TD*%
D17*
%TO.C,JP2*%
X147551500Y-128490400D03*
D14*
X145011500Y-128490400D03*
%TD*%
D13*
%TO.C,J7*%
X137772500Y-127728400D03*
D14*
X137772500Y-130268400D03*
%TD*%
D15*
%TO.C,D8*%
X125411500Y-120616400D03*
X123961500Y-120616400D03*
%TD*%
D18*
%TO.C,D19*%
X143150100Y-108780000D03*
X144600100Y-108780000D03*
%TD*%
D19*
%TO.C,D24*%
X136345100Y-104540400D03*
X136345100Y-103090400D03*
%TD*%
D20*
%TO.C,U7*%
X119212800Y-99915400D03*
X117714200Y-99915400D03*
%TD*%
D21*
%TO.C,J3*%
X157535467Y-138890600D03*
%TD*%
D22*
%TO.C,R7*%
X121765500Y-121997400D03*
X121765500Y-119997400D03*
%TD*%
D15*
%TO.C,D7*%
X125411500Y-123283400D03*
X123961500Y-123283400D03*
%TD*%
D19*
%TO.C,D21*%
X128849300Y-104540400D03*
X128849300Y-103090400D03*
%TD*%
%TO.C,D26*%
X141342300Y-104540400D03*
X141342300Y-103090400D03*
%TD*%
D18*
%TO.C,D16*%
X143175500Y-116298400D03*
X144625500Y-116298400D03*
%TD*%
D23*
%TO.C,L1*%
X143811500Y-137634400D03*
X146911500Y-137634400D03*
%TD*%
D18*
%TO.C,D12*%
X113547500Y-109567400D03*
X114997500Y-109567400D03*
%TD*%
D24*
%TO.C,D3*%
X157071500Y-133824400D03*
X154791500Y-133824400D03*
%TD*%
D25*
%TO.C,D1*%
X124813500Y-134575600D03*
X124813500Y-130425600D03*
%TD*%
D26*
%TO.C,R1*%
X148673500Y-134332400D03*
X146673500Y-134332400D03*
%TD*%
D27*
%TO.C,C10*%
X119755000Y-109694400D03*
X117680000Y-109694400D03*
%TD*%
D21*
%TO.C,J4*%
X109035467Y-138890600D03*
%TD*%
D28*
%TO.C,U3*%
X157005501Y-126407600D03*
X156055500Y-126407600D03*
X155105499Y-126407600D03*
X155105499Y-128795200D03*
X157005501Y-128795200D03*
%TD*%
D29*
%TO.C,SW1*%
X157289500Y-103321400D03*
X157289500Y-109821400D03*
X152789500Y-103321400D03*
X152789500Y-109821400D03*
%TD*%
D20*
%TO.C,U5*%
X157058800Y-131157400D03*
X155560200Y-131157400D03*
%TD*%
D21*
%TO.C,J1*%
X157535467Y-97890600D03*
%TD*%
D18*
%TO.C,D2*%
X138439500Y-123791400D03*
X139889500Y-123791400D03*
%TD*%
D19*
%TO.C,D25*%
X138843700Y-104540400D03*
X138843700Y-103090400D03*
%TD*%
D16*
%TO.C,JP1*%
X151610500Y-132940400D03*
D14*
X151610500Y-130400400D03*
%TD*%
D30*
%TO.C,J9*%
X126337500Y-100296400D03*
D14*
X128877500Y-100296400D03*
X131417500Y-100296400D03*
X133957500Y-100296400D03*
X136497500Y-100296400D03*
X139037500Y-100296400D03*
X141577500Y-100296400D03*
X144117500Y-100296400D03*
%TD*%
D31*
%TO.C,C2*%
X130528500Y-136618400D03*
X130528500Y-138693400D03*
%TD*%
D32*
%TO.C,D5*%
X128877500Y-128876400D03*
D33*
X128877500Y-126336400D03*
%TD*%
D34*
%TO.C,R2*%
X130528500Y-133443400D03*
X132528500Y-133443400D03*
%TD*%
D26*
%TO.C,R9*%
X111208500Y-118457400D03*
X109208500Y-118457400D03*
%TD*%
D35*
%TO.C,U2*%
X125936467Y-138974600D03*
X126586467Y-138974600D03*
X127236467Y-138974600D03*
X127236467Y-137199600D03*
X126586467Y-137199600D03*
X125936467Y-137199600D03*
D36*
X126586467Y-138087100D03*
%TD*%
D15*
%TO.C,D10*%
X125411500Y-115663400D03*
X123961500Y-115663400D03*
%TD*%
D34*
%TO.C,R10*%
X113510500Y-118457400D03*
X115510500Y-118457400D03*
%TD*%
D37*
%TO.C,J5*%
X121384500Y-128236400D03*
D38*
X115584500Y-128236400D03*
D39*
X118384500Y-133036400D03*
%TD*%
D20*
%TO.C,U6*%
X115035467Y-99890600D03*
X113536867Y-99890600D03*
%TD*%
D19*
%TO.C,D23*%
X133846500Y-104540400D03*
X133846500Y-103090400D03*
%TD*%
D18*
%TO.C,D14*%
X143124700Y-121434400D03*
X144574700Y-121434400D03*
%TD*%
D17*
%TO.C,JP6*%
X117955500Y-121378400D03*
D14*
X115415500Y-121378400D03*
%TD*%
D17*
%TO.C,JP4*%
X125326500Y-109313400D03*
D14*
X122786500Y-109313400D03*
%TD*%
D18*
%TO.C,D18*%
X143150100Y-111294600D03*
X144600100Y-111294600D03*
%TD*%
D26*
%TO.C,R5*%
X152610500Y-127601400D03*
X150610500Y-127601400D03*
%TD*%
D18*
%TO.C,D15*%
X143124700Y-118889200D03*
X144574700Y-118889200D03*
%TD*%
D19*
%TO.C,D6*%
X150213500Y-102037400D03*
X150213500Y-100587400D03*
%TD*%
D21*
%TO.C,J2*%
X109035467Y-97890600D03*
%TD*%
D40*
%TO.C,D4*%
X133581500Y-125950400D03*
D33*
X133581500Y-128490400D03*
%TD*%
D30*
%TO.C,P1*%
X114915467Y-97248400D03*
D14*
X117455467Y-97248400D03*
X119995467Y-97248400D03*
X122535467Y-97248400D03*
%TD*%
D12*
%TO.C,C5*%
X152499500Y-138724400D03*
X152499500Y-136999400D03*
%TD*%
D27*
%TO.C,C8*%
X137027000Y-118457400D03*
X134952000Y-118457400D03*
%TD*%
D17*
%TO.C,JP5*%
X111737500Y-121251400D03*
D14*
X109197500Y-121251400D03*
%TD*%
D41*
%TO.C,C1*%
X138429000Y-133443400D03*
X140154000Y-133443400D03*
%TD*%
D42*
%TO.C,S1*%
X114987500Y-137634400D03*
D43*
X117487500Y-137634400D03*
X119987500Y-137634400D03*
%TD*%
D18*
%TO.C,D17*%
X143163900Y-113809200D03*
X144613900Y-113809200D03*
%TD*%
D19*
%TO.C,D22*%
X131347900Y-104540400D03*
X131347900Y-103090400D03*
%TD*%
D22*
%TO.C,R8*%
X121765500Y-117933400D03*
X121765500Y-115933400D03*
%TD*%
D44*
%TO.C,U8*%
X138031500Y-115790400D03*
X138031500Y-115140400D03*
X138031500Y-114490400D03*
X138031500Y-113840400D03*
X138031500Y-113190400D03*
X138031500Y-112540400D03*
X138031500Y-111890400D03*
X138031500Y-111240400D03*
X138031500Y-110590400D03*
X138031500Y-109940400D03*
X132306500Y-109940400D03*
X132306500Y-110590400D03*
X132306500Y-111240400D03*
X132306500Y-111890400D03*
X132306500Y-112540400D03*
X132306500Y-113190400D03*
X132306500Y-113840400D03*
X132306500Y-114490400D03*
X132306500Y-115140400D03*
X132306500Y-115790400D03*
%TD*%
D45*
%TO.C,U4*%
X152627500Y-122165800D03*
D46*
X154912500Y-115511000D03*
D45*
X157197500Y-122165800D03*
%TD*%
D47*
%TO.C,C11*%
X147673500Y-101968900D03*
X147673500Y-99893900D03*
%TD*%
D48*
%TO.C,C6*%
X156367967Y-124390600D03*
X157502967Y-124390600D03*
%TD*%
D49*
%TO.C,R6*%
X124559500Y-126093400D03*
X124559500Y-128093400D03*
%TD*%
D19*
%TO.C,D27*%
X143840900Y-104540400D03*
X143840900Y-103090400D03*
%TD*%
%TO.C,D20*%
X126407000Y-104497100D03*
X126407000Y-103047100D03*
%TD*%
D18*
%TO.C,D13*%
X143150100Y-124045400D03*
X144600100Y-124045400D03*
%TD*%
D27*
%TO.C,C9*%
X137027000Y-120870400D03*
X134952000Y-120870400D03*
%TD*%
D31*
%TO.C,C3*%
X133830500Y-136618400D03*
X133830500Y-138693400D03*
%TD*%
D50*
%TO.C,U1*%
X140180500Y-138518400D03*
X140180500Y-137568400D03*
X140180500Y-136618400D03*
X137905500Y-136618400D03*
X137905500Y-137568400D03*
X137905500Y-138518400D03*
%TD*%
D16*
%TO.C,J8*%
X146911500Y-124045400D03*
D14*
X146911500Y-121505400D03*
X146911500Y-118965400D03*
X146911500Y-116425400D03*
X146911500Y-113885400D03*
X146911500Y-111345400D03*
X146911500Y-108805400D03*
X146911500Y-106265400D03*
%TD*%
D34*
%TO.C,R3*%
X146673500Y-131792400D03*
X148673500Y-131792400D03*
%TD*%
D26*
%TO.C,R4*%
X134068500Y-130776400D03*
X132068500Y-130776400D03*
%TD*%
D16*
%TO.C,P2*%
X127861500Y-123156400D03*
D14*
X127861500Y-120616400D03*
X127861500Y-118076400D03*
X127861500Y-115536400D03*
X127861500Y-112996400D03*
%TD*%
D51*
%TO.C,U9*%
X111518500Y-105837400D03*
X114018500Y-105837400D03*
X116518500Y-105837400D03*
D52*
X109018500Y-103837400D03*
X119018500Y-103837400D03*
%TD*%
M02*
